<?xml version="1.0" standalone="no"?>
<!DOCTYPE svg PUBLIC "-//W3C//DTD SVG 1.1//EN" "http://www.w3.org/Graphics/SVG/1.1/DTD/svg11.dtd" >
<svg xmlns="http://www.w3.org/2000/svg" xmlns:xlink="http://www.w3.org/1999/xlink" version="1.1">
<metadata>
Created by FontForge 20161013 at Mon Apr 16 12:22:35 2007
 By ,,,
Copyright (c) 2002, 2006 Parachute :, www.parachute.gr.  All rights reserved.
</metadata>
<defs>
<font id="PFBeauSansPro-BoldItalic" horiz-adv-x="1818" >
  <font-face 
    font-family="PF BeauSans Pro"
    font-weight="700"
    font-style="italic"
    font-stretch="normal"
    units-per-em="1000"
    panose-1="2 0 8 0 0 0 0 9 0 4"
    ascent="750"
    descent="-250"
    x-height="525"
    cap-height="701"
    bbox="-191.167 -314 1760 966.111"
    underline-thickness="50"
    underline-position="-150"
    slope="-8"
    unicode-range="U+0020-FB05"
  />
<missing-glyph horiz-adv-x="453" 
d="M0 700h453v-700h-453v700zM336 80l-109 197l-109 -197h218zM336 620h-219l110 -195zM80 164l102 186l-102 188v-374zM374 164v373l-103 -187z" />
    <glyph glyph-name="fj" unicode="fj" horiz-adv-x="611" 
d="M536 70q-9 -68 -26.5 -117.5t-44.5 -84t-65 -57t-90 -37.5q-14 -5 -19.5 -3t-8.5 11l-28 83q-5 13 0 18.5t14 9.5q37 15 60 32.5t36.5 39t20 47t10.5 56.5l44 348h-168l-72 -549q-2 -15 -7.5 -20.5t-14.5 -8.5l-108 -34q-9 -4 -16 0.5t-5 16.5l82 595h-70q-10 0 -12 4.5
t0 12.5l8 57q1 9 4 13.5t15 7.5l71 17l4 32q5 36 17.5 70t38.5 60t68 42t107 16q23 -1 68.5 -4t97.5 -19q8 -2 10.5 -7t-1.5 -16l-16 -70q-6 -17 -23 -14q-38 7 -68.5 9.5t-50.5 2.5q-56 0 -79.5 -20.5t-28.5 -56.5l-4 -28h288q13 0 16.5 -3.5t1.5 -14.5z" />
    <glyph glyph-name="ffj" unicode="ffj" horiz-adv-x="891" 
d="M492 -98q-2 -12 -7.5 -17.5t-14.5 -8.5l-102 -32q-8 -2 -16.5 0.5t-6.5 15.5l78 556h-154q-4 -27 -10 -72.5t-13.5 -99.5t-15.5 -113t-16 -113.5t-14 -99.5t-10 -72q-2 -15 -7.5 -21t-14.5 -9l-104 -33q-10 -5 -17 0.5t-5 17.5l87 615h-70q-11 0 -12.5 4.5t-0.5 12.5
l8 57q2 8 5 13t14 8l71 17l5 31q5 35 18 67.5t39.5 57t68 39t103.5 14.5q21 -1 63.5 -4t86.5 -14q27 17 61.5 26.5t84.5 9.5q23 0 64.5 -3t90.5 -17q16 -4 11 -23l-18 -71q-5 -18 -24 -14q-33 7 -63 9t-46 2q-54 0 -78 -20.5t-29 -56.5l-5 -36h288q13 0 16 -3.5t1 -14.5
l-56 -432q-9 -68 -26.5 -117.5t-44.5 -84t-65 -57t-90 -37.5q-14 -5 -19.5 -3t-8.5 11l-28 83q-4 13 0.5 18.5t14.5 9.5q37 15 60 32.5t36.5 38.5t19.5 47t11 57l44 343h-169zM392 619q-53 -1 -76 -19t-28 -53l-3 -22h150l7 42q2 13 4.5 24.5t6.5 23.5q-19 2 -35 3t-26 1z
" />
    <glyph glyph-name="ff" unicode="ff" horiz-adv-x="695" 
d="M270 416q-19 -144 -39 -285.5t-40 -284.5q-2 -15 -7 -20.5t-15 -8.5l-104 -34q-10 -3 -17 1.5t-5 16.5l87 615h-70q-11 0 -12 4t-1 12l8 57q2 10 5 14.5t14 6.5q17 5 35 9l36 8l8 47q6 33 19.5 62.5t39.5 51.5t66 35t99 13q20 0 61.5 -3t86.5 -13q43 32 111 32
q7 0 19.5 -0.5t28.5 -2.5t33.5 -5t34.5 -9q9 -3 9 -7.5t-2 -12.5l-19 -82q-3 -11 -8 -10.5t-13 0.5q-16 2 -34.5 3.5t-30.5 1.5q-32 0 -44 -13.5t-15 -33.5l-4 -28l-4 -28h115q18 0 13 -16l-10 -78q-2 -8 -5 -11.5t-15 -3.5h-113q-18 -130 -36 -257.5t-35 -255.5
q-2 -12 -7.5 -18t-15.5 -9l-101 -31q-9 -3 -17 0t-7 16q20 139 39 277t39 278h-161zM446 525q2 13 4 26.5t4 27.5q2 9 3.5 17.5t3.5 16.5q-20 3 -42.5 5.5t-39.5 1.5q-26 -1 -42.5 -6.5t-26.5 -13.5t-15 -19t-6 -23l-4 -33h161z" />
    <glyph glyph-name="fi" unicode="fi" horiz-adv-x="611" 
d="M195 -143q-2 -15 -8 -20.5t-15 -8.5l-105 -34q-9 -4 -16 0.5t-5 17.5l84 604h-70q-10 0 -12 4.5t0 12.5l8 57q1 9 4 13.5t15 7.5l71 17l4 32q5 36 17.5 70t38.5 60t68 42t107 16q23 -1 68.5 -4t97.5 -19q8 -2 10.5 -7t-1.5 -16l-16 -70q-6 -17 -23 -14q-38 7 -68.5 9.5
t-50.5 2.5q-56 0 -79.5 -20.5t-28.5 -56.5l-4 -28h289q14 0 17 -4t1 -14l-68 -489q-2 -11 -5.5 -14.5t-17.5 -3.5h-100q-11 0 -15.5 3.5t-2.5 14.5l56 398h-169z" />
    <glyph glyph-name="fl" unicode="fl" horiz-adv-x="665" 
d="M552 158q-3 -25 2 -34t27 -9q7 0 17 0.5t18 1.5q9 1 11.5 -1t3.5 -11l11 -81q1 -9 -3 -13.5t-16 -7.5q-26 -8 -55 -11t-54 -3q-66 0 -93 31t-14 114l69 488q-24 4 -44.5 5.5t-34.5 1.5q-55 0 -78.5 -19.5t-28.5 -55.5l-4 -29h108q12 0 14 -4t0 -12l-10 -72
q-2 -10 -4.5 -14.5t-14.5 -4.5h-108l-76 -559q-2 -15 -8 -21t-15 -9l-105 -33q-9 -4 -16 0.5t-5 16.5l84 605h-70q-10 0 -12 4.5t0 11.5l8 56q1 9 4 13.5t15 7.5l71 17l4 33q5 36 18 69.5t39 60t68 42.5t106 16q10 0 27 -1t37.5 -3t43.5 -5t46 -9l79 16q11 1 15.5 -3
t2.5 -15z" />
    <glyph glyph-name="ffi" unicode="ffi" horiz-adv-x="891" 
d="M492 -98q-2 -12 -7.5 -17.5t-14.5 -8.5l-102 -32q-8 -2 -16.5 0.5t-6.5 15.5l78 556h-154q-4 -27 -10 -72.5t-13.5 -99.5t-15.5 -113t-16 -113.5t-14 -99.5t-10 -72q-2 -15 -7.5 -21t-14.5 -9l-104 -33q-10 -5 -17 0.5t-5 17.5l87 615h-70q-11 0 -12.5 4.5t-0.5 12.5
l8 57q2 8 5 13t14 8l71 17l5 31q5 35 18 67.5t39.5 57t68 39t103.5 14.5q21 -1 63.5 -4t86.5 -14q27 17 61.5 26.5t84.5 9.5q23 0 64.5 -3t90.5 -17q16 -4 11 -23l-18 -71q-5 -18 -24 -14q-33 7 -63 9t-46 2q-54 0 -78 -20.5t-29 -56.5l-5 -36h279q14 0 16.5 -4t0.5 -14
l-68 -489q-2 -11 -6 -14.5t-17 -3.5h-100q-12 0 -16 4t-2 14l56 398h-157zM392 619q-53 -1 -76 -19t-28 -53l-3 -22h151l7 42q3 26 10 48q-19 2 -35 3t-26 1z" />
    <glyph glyph-name="ffl" unicode="ffl" horiz-adv-x="939" 
d="M750 630q-19 3 -37 4.5t-30 1.5q-51 0 -72 -19t-26 -56q-2 -6 -3.5 -17.5t-2.5 -18.5h92q13 0 14 -4.5t0 -12.5l-10 -73q-2 -10 -4.5 -14.5t-14.5 -4.5h-93l-71 -514q-2 -12 -7.5 -17.5t-14.5 -8.5l-102 -32q-8 -2 -16.5 0.5t-6.5 15.5l78 556h-154q-4 -27 -10 -72.5
t-13.5 -99.5t-15.5 -113t-16 -113.5t-14 -99.5t-10 -72q-2 -15 -7.5 -21t-14.5 -9l-104 -33q-10 -5 -17 0.5t-5 17.5l87 615h-70q-11 0 -12.5 4.5t-0.5 12.5l8 57q1 8 4.5 13t14.5 8l71 17l5 32q5 35 18 67.5t39.5 57t68.5 39t104 14.5q23 -1 62.5 -3.5t87.5 -13.5
q24 17 60 26.5t78 9.5q21 -1 59 -4t84 -14l79 15q21 3 18 -17l-81 -575q-4 -26 1 -35t28 -9q7 0 17 0.5t18 1.5t10.5 -1t4.5 -11l10 -80q1 -10 -3 -14t-15 -8q-26 -8 -55.5 -11t-53.5 -3q-33 0 -56.5 7t-37 24t-17 44.5t2.5 69.5zM393 620q-54 0 -77 -18t-28 -53l-3 -24h150
l7 44q2 12 4.5 24t7.5 23q-18 2 -35.5 3t-25.5 1z" />
    <glyph glyph-name="ft" unicode="ft" horiz-adv-x="715" 
d="M194 -141q-2 -15 -8 -21t-14 -9l-105 -33q-9 -4 -16 0.5t-5 16.5l84 605h-72q-11 0 -11.5 4.5t1.5 11.5l7 56q1 9 4.5 13.5t14.5 7.5l71 16l10 69q5 34 16.5 63t32.5 50t51.5 32.5t74.5 11.5q14 0 46.5 -2.5t64.5 -12.5q11 -4 12 -9t-1 -13l-19 -80q-2 -10 -7.5 -12.5
t-13.5 -0.5q-17 4 -32.5 5t-27.5 1q-32 0 -44 -14t-15 -33l-8 -57h170l21 86q2 11 8 16t16 8l93 30q22 5 19 -17l-18 -123h106q11 0 13 -4.5t0 -12.5l-10 -71q-2 -10 -4.5 -14.5t-13.5 -4.5h-106l-35 -254q-5 -29 7 -40t41 -11q14 0 35 2.5t35 4.5q16 3 16 -11l12 -83
q-1 -7 -1.5 -11.5t-11.5 -8.5q-38 -11 -76.5 -14t-63.5 -3q-84 0 -116 36.5t-22 107.5l39 285h-168z" />
    <glyph glyph-name=".notdef" horiz-adv-x="453" 
d="M0 700h453v-700h-453v700zM336 80l-109 197l-109 -197h218zM336 620h-219l110 -195zM80 164l102 186l-102 188v-374zM374 164v373l-103 -187z" />
    <glyph glyph-name=".null" horiz-adv-x="0" 
 />
    <glyph glyph-name="nonmarkingreturn" horiz-adv-x="333" 
 />
    <glyph glyph-name="space" unicode=" " horiz-adv-x="287" 
 />
    <glyph glyph-name="exclam" unicode="!" horiz-adv-x="292" 
d="M141 164q34 0 56.5 -21.5t22.5 -53.5q0 -20 -7.5 -38t-20 -31.5t-30.5 -21.5t-39 -8q-36 0 -57.5 20.5t-21.5 52.5q0 21 7.5 39t20.5 32t31 22t38 8zM206 246q-2 -12 -8 -15.5t-17 -3.5h-58q-13 0 -18 3.5t-3 14.5l40 434q0 21 25 21h102q17 0 19.5 -6.5t0.5 -14.5z" />
    <glyph glyph-name="quotedbl" unicode="&#x22;" horiz-adv-x="465" 
d="M409 417q-3 -12 -8.5 -15t-17.5 -3h-51q-13 0 -18 3t-3 14l13 263q1 11 6.5 16.5t19.5 5.5h99q16 0 19 -6.5t1 -15.5zM220 417q-3 -12 -8.5 -15t-17.5 -3h-51q-13 0 -17.5 3t-3.5 14l14 263q0 11 5.5 16.5t20.5 5.5h98q16 0 18.5 -6.5t0.5 -15.5z" />
    <glyph glyph-name="numbersign" unicode="#" horiz-adv-x="634" 
d="M607 381q-4 -10 -7.5 -13t-11.5 -3h-75l-49 -141h77q14 0 8 -17l-19 -54q-4 -9 -7.5 -12t-10.5 -3h-76l-44 -124q-2 -8 -5 -11t-13 -3h-62q-8 0 -11.5 2.5t-0.5 12.5l42 123h-113l-43 -124q-3 -8 -5.5 -11t-13.5 -3h-61q-9 0 -12.5 2.5t-0.5 12.5l42 123h-73
q-9 0 -11 3.5t1 11.5l19 56q3 8 6 11.5t14 3.5h74l47 141h-75q-9 0 -10.5 4t0.5 12l19 54q2 7 5.5 11.5t14.5 4.5h76l44 124q2 8 5.5 10.5t14.5 2.5h57q11 0 14 -2.5t-1 -13.5l-40 -121h113l43 124q2 8 6 10.5t15 2.5h56q11 0 14 -2.5t1 -13.5l-43 -121h77q9 0 10.5 -4.5
t-1.5 -12.5zM306 365l-48 -141h113l48 141h-113z" />
    <glyph glyph-name="dollar" unicode="$" horiz-adv-x="634" 
d="M268 310q-31 15 -57 32.5t-44.5 39t-29 48.5t-10.5 60q0 37 12 69.5t36 58t60 41.5t84 19l12 85q2 11 5.5 12t12.5 1h21q9 0 13 -1t2 -12l-121 -863q-2 -11 -6 -12t-13 -1h-20q-9 0 -13.5 1t-2.5 12l14 101q-42 6 -81 20.5t-75 36.5q-13 6 -1 25l35 72q5 10 10.5 12
t13.5 -2q26 -12 54.5 -22t62.5 -17zM416 384q31 -15 58 -34t47 -42t31.5 -50.5t11.5 -61.5q0 -46 -15 -81.5t-42 -60.5t-64 -39.5t-81 -19.5l-14 -95q-2 -11 -5.5 -12t-12.5 -1h-18q-8 0 -12.5 1t-2.5 12l121 863q2 11 6 12t12 1h19q8 0 12 -1t2 -12l-12 -87q38 -7 65.5 -17
t49.5 -21q8 -4 8.5 -10t-4.5 -17l-28 -67q-5 -11 -9.5 -12.5t-12.5 0.5q-20 7 -42 12t-45 9zM380 125q28 9 41 29t13 44q0 31 -36 55zM261 493q0 -11 4.5 -23.5t20.5 -25.5l15 104q-22 -8 -31 -23t-9 -32z" />
    <glyph glyph-name="percent" unicode="%" horiz-adv-x="950" 
d="M764 413q85 0 124.5 -46.5t39.5 -124.5q0 -55 -14 -100.5t-41.5 -78.5t-67.5 -51t-91 -18q-81 0 -121.5 44.5t-40.5 122.5q0 117 56 184.5t156 67.5zM756 321q-23 0 -40 -12.5t-28 -34t-16.5 -50t-5.5 -60.5q0 -35 13 -57t45 -22q24 0 41 12.5t28.5 34t17 50t5.5 60.5
q0 35 -13.5 57t-46.5 22zM294 680q85 0 123.5 -46.5t38.5 -124.5q0 -55 -14 -100.5t-41 -78.5t-67 -51t-91 -18q-81 0 -121.5 44.5t-40.5 122.5q0 58 14.5 104.5t42 79.5t67 50.5t89.5 17.5zM286 588q-24 0 -41 -12.5t-28 -34t-16.5 -50t-5.5 -60.5q0 -35 13.5 -57t45.5 -22
q23 0 40 12.5t28.5 34t17 50t5.5 60.5q0 35 -13 57t-46 22zM306 -14q-7 -9 -14.5 -13.5t-21.5 -4.5h-50q-11 0 -12 5.5t4 13.5l501 704q5 8 9 11.5t15 3.5h57q9 0 12 -5t-4 -15z" />
    <glyph glyph-name="ampersand" unicode="&#x26;" horiz-adv-x="744" 
d="M262 114q29 0 61 19t53 45q-21 32 -41.5 63t-40.5 63q-39 -23 -69 -56t-30 -76q0 -25 15.5 -41.5t51.5 -16.5zM381 594q-28 0 -44.5 -18t-16.5 -46q0 -20 9 -39t20 -36q28 17 51 39t23 54q0 18 -10.5 32t-31.5 14zM443 81q-41 -40 -91.5 -66.5t-118.5 -26.5
q-81 0 -127 41.5t-46 117.5q0 41 14 78t37.5 69t54.5 58t65 46q-18 26 -29.5 59t-11.5 68q0 46 16 81t43.5 58.5t63.5 35.5t76 12q72 0 117.5 -38t45.5 -104q0 -39 -13.5 -70.5t-34.5 -56t-47 -43.5t-50 -34q14 -24 26 -41t24 -35q33 45 75.5 80t95.5 49q16 5 26.5 7t24.5 3
q13 0 13 -11l12 -83q1 -14 -15 -17q-62 -12 -99.5 -46t-63.5 -79q13 -18 34 -47t41 -57q24 -33 50 -68q5 -6 2 -13.5t-15 -7.5h-106q-14 0 -23 3t-16 12q-11 14 -21 27q-8 11 -16.5 22t-12.5 17z" />
    <glyph glyph-name="quotesingle" unicode="'" horiz-adv-x="276" 
d="M220 417q-3 -12 -8.5 -15t-17.5 -3h-51q-13 0 -17.5 3t-3.5 14l14 263q1 10 6.5 16t19.5 6h98q16 0 18.5 -6.5t0.5 -15.5z" />
    <glyph glyph-name="parenleft" unicode="(" horiz-adv-x="338" 
d="M298 724q11 11 16.5 10.5t15.5 -8.5l45 -37q6 -5 7.5 -9t-6.5 -12q-82 -92 -126.5 -192.5t-44.5 -221.5q0 -77 18.5 -141.5t56.5 -127.5q8 -15 -7 -25l-55 -37q-12 -8 -17 -6t-13 13q-26 33 -49 68.5t-40 75t-27 83.5t-10 94q0 76 19.5 142.5t52 125.5t75 110t89.5 95z
" />
    <glyph glyph-name="parenright" unicode=")" horiz-adv-x="346" 
d="M212 724q26 -33 49 -70t40 -78t27 -86.5t10 -95.5q0 -77 -19.5 -142.5t-51.5 -122.5t-75 -106t-89 -93q-11 -11 -17 -13t-15 5l-46 38q-6 5 -7 11t7 14q82 93 126 192t44 222q0 77 -18 142.5t-56 127.5q-5 8 -3 11.5t10 8.5l55 37q11 8 16 8t13 -10z" />
    <glyph glyph-name="asterisk" unicode="*" horiz-adv-x="492" 
d="M473 531q2 -11 -1.5 -15t-13.5 -5l-113 -27q4 -5 13 -16.5t18.5 -24.5t18 -25t12.5 -17q7 -9 4.5 -15t-13.5 -13l-52 -36q-12 -8 -15.5 -6.5t-8.5 12.5l-43 98l-68 -99q-8 -11 -14 -11.5t-13 6.5l-44 38q-8 7 -8 12t8 13l86 86l-100 27q-11 3 -13 6t3 17l26 57
q9 21 25 12l95 -46q0 7 0.5 22.5t1.5 33.5t1.5 34t0.5 23q0 9 4.5 13t16.5 4h60q12 0 14.5 -3t0.5 -14l-28 -115l105 46q11 5 15.5 1.5t6.5 -14.5z" />
    <glyph glyph-name="plus" unicode="+" horiz-adv-x="634" 
d="M580 305q-2 -12 -6 -16.5t-15 -4.5h-162l-26 -176q-2 -11 -5.5 -14.5t-16.5 -3.5h-90q-11 0 -15.5 3.5t-2.5 14.5l25 176h-163q-11 0 -14 4.5t-1 16.5l11 77q2 14 6 18t15 4h163l25 176q2 11 6.5 14.5t15.5 3.5h90q13 0 16.5 -3.5t1.5 -14.5l-24 -176h163q11 0 13.5 -4
t0.5 -18l-11 -77v0z" />
    <glyph glyph-name="comma" unicode="," horiz-adv-x="273" 
d="M117 -113q-5 -11 -9 -14.5t-15 -3.5h-51q-26 0 -22 17l49 256q2 11 7 16.5t18 5.5h111q16 0 18 -6.5t-1 -15.5z" />
    <glyph glyph-name="hyphen" unicode="-" horiz-adv-x="385" 
d="M339 251q-3 -21 -20 -21h-247q-18 0 -15 21l13 90q2 13 5.5 17t14.5 4h247q11 0 14 -4t1 -17l-13 -90v0z" />
    <glyph glyph-name="period" unicode="." horiz-adv-x="289" 
d="M144 168q35 0 57 -22t22 -55q0 -21 -8.5 -39.5t-23 -33t-33 -22.5t-39.5 -8q-33 0 -55.5 22t-22.5 55q0 21 8.5 39.5t22.5 33t33 22.5t39 8z" />
    <glyph glyph-name="slash" unicode="/" horiz-adv-x="447" 
d="M99 -79q-7 -17 -33 -17h-78q-20 0 -12 18l421 840q4 9 10 12.5t19 3.5h81q9 0 13.5 -3.5t-0.5 -14.5z" />
    <glyph glyph-name="zero" unicode="0" horiz-adv-x="634" 
d="M380 684q62 0 107.5 -19t75 -54.5t43.5 -85.5t14 -113q0 -93 -22 -171t-63.5 -134t-102 -87t-137.5 -31q-61 0 -105.5 19t-74 54.5t-44 86t-14.5 113.5q0 91 22 168.5t63 133.5t101 88t137 32zM369 561q-42 0 -73.5 -24t-52.5 -65t-31.5 -96t-10.5 -116q0 -66 24.5 -107
t82.5 -41q42 0 73.5 24t52.5 65t32 95.5t11 114.5q0 68 -25 109t-83 41z" />
    <glyph glyph-name="one" unicode="1" horiz-adv-x="634" 
d="M496 20q-2 -11 -5.5 -15.5t-13.5 -4.5h-355q-19 0 -16 20l11 79q2 14 6 17t15 3h103l58 420l-104 -18q-13 -2 -16.5 1.5t-1.5 14.5l10 73q2 9 5.5 15t14.5 10l169 45q17 5 32.5 5.5t26.5 -5t16 -17.5t2 -31l-72 -513h112q11 0 14 -3t1 -17l-12 -79v0z" />
    <glyph glyph-name="two" unicode="2" horiz-adv-x="634" 
d="M524 119q11 0 15.5 -3t2.5 -17l-12 -79q-2 -11 -6 -15.5t-15 -4.5h-378q-38 0 -58 13.5t-20 52.5q0 47 31 96t91 100q41 36 85.5 65.5t85.5 53.5q32 19 53 34.5t33 30t17 28.5t5 29q0 22 -18 39.5t-65 17.5q-76 0 -161 -54q-9 -5 -16 -5t-12 8l-42 70q-8 16 7 27
q57 40 118.5 59t124.5 19q45 0 83.5 -10t67 -31t44.5 -52.5t16 -74.5q0 -38 -14.5 -70.5t-39.5 -61t-60 -53.5t-75 -47q-26 -14 -54 -32.5t-54 -39.5t-47.5 -44.5t-34.5 -48.5h302z" />
    <glyph glyph-name="three" unicode="3" horiz-adv-x="634" 
d="M286 299q-16 0 -24 4t-4 28l6 45q3 23 11 29.5t25 6.5h25q50 0 78 24t28 57q0 35 -25 49t-63 14q-35 0 -75.5 -11.5t-77.5 -33.5q-11 -6 -18 -6.5t-12 10.5l-35 70q-4 9 -3 15t10 11q54 39 117.5 56t119.5 17q41 0 80 -9.5t69.5 -29.5t48 -52t16.5 -77
q-2 -54 -35.5 -95.5t-90.5 -62.5l-1 -5q54 -16 79 -55.5t24 -90.5q-1 -48 -20.5 -88.5t-54 -69t-82.5 -44.5t-106 -16q-70 0 -134 17t-104 52q-8 7 -8 12.5t8 14.5l44 69q8 11 14.5 12t17.5 -7q35 -23 74.5 -34t73.5 -11q63 0 95 30t34 75q1 36 -24.5 58t-73.5 22h-27z" />
    <glyph glyph-name="four" unicode="4" horiz-adv-x="634" 
d="M595 153q-2 -11 -7 -15t-16 -4h-64l-16 -115q-2 -11 -5.5 -15t-16.5 -4h-100q-22 0 -19 19l17 114h-271q-12 0 -23 1.5t-19 6.5t-12 15.5t-1 28.5l4 29q2 19 10.5 38.5t24.5 36.5l310 346q17 18 37.5 34.5t56.5 16.5h47q29 0 39.5 -14t5.5 -49l-52 -372h62q11 0 16 -3
t3 -17zM418 495l-5 3l-216 -243l1 -5h186z" />
    <glyph glyph-name="five" unicode="5" horiz-adv-x="634" 
d="M210 284q-12 -5 -27.5 -6.5t-28.5 3.5l-33 10q-22 7 -27.5 21t0.5 37l60 250q10 39 30 56.5t52 17.5h338q13 0 17.5 -3t2.5 -19l-11 -79q-2 -13 -8 -17.5t-17 -4.5h-283l-33 -130q34 11 66.5 14.5t61.5 3.5q98 0 154.5 -48.5t56.5 -141.5q0 -65 -24 -113.5t-64.5 -81
t-94 -49t-112.5 -16.5q-56 0 -117 14.5t-115 60.5q-12 9 -2 24l48 74q8 10 14.5 10t18.5 -8q34 -23 73 -34.5t77 -11.5q75 0 114.5 32t39.5 89q0 40 -25.5 60.5t-66.5 20.5q-42 0 -71.5 -10.5t-63.5 -24.5z" />
    <glyph glyph-name="six" unicode="6" horiz-adv-x="634" 
d="M356 318q-38 0 -71.5 -5.5t-73.5 -16.5q-3 -17 -4 -30.5t-1 -23.5q0 -60 29 -94.5t86 -34.5q27 0 51 7.5t41.5 22.5t28 37.5t10.5 52.5q0 40 -23.5 62.5t-72.5 22.5zM434 562q-72 0 -123 -37.5t-76 -108.5q14 4 32 7.5t37.5 6.5t38.5 4.5t35 1.5q49 0 89.5 -10.5
t69.5 -33t45.5 -58t16.5 -85.5q0 -68 -26 -117t-67.5 -81t-92.5 -47t-102 -15q-66 0 -113 18.5t-77.5 53t-44.5 83t-14 108.5q0 91 24 170.5t70.5 138t116 92t160.5 33.5q31 0 69 -4.5t67 -15.5q7 -2 9 -6t-3 -21l-21 -78q-3 -13 -11 -13t-16 2q-20 6 -44.5 9t-48.5 3z" />
    <glyph glyph-name="seven" unicode="7" horiz-adv-x="634" 
d="M575 674q24 0 36.5 -11t9.5 -34l-5 -31q-4 -31 -26 -63l-346 -513q-8 -13 -17 -17.5t-25 -4.5h-107q-11 0 -14 8t3 17l356 525h-311q-11 0 -14 4.5t-1 18.5l10 77q2 15 6.5 19.5t17.5 4.5h427z" />
    <glyph glyph-name="eight" unicode="8" horiz-adv-x="634" 
d="M384 686q102 0 155.5 -44.5t53.5 -119.5q0 -20 -5 -42t-16.5 -43t-31 -40t-49.5 -34l-1 -2q24 -9 40.5 -24.5t26.5 -34t14.5 -40t4.5 -42.5q0 -48 -20.5 -90.5t-58 -73.5t-90.5 -49t-118 -18q-114 0 -174.5 48.5t-60.5 131.5q0 33 10.5 63.5t28 56t41 44.5t50.5 28l1 3
q-37 17 -50.5 49.5t-13.5 63.5q0 51 23 90t60 65.5t84.5 40t95.5 13.5zM329 304q-26 0 -49.5 -8.5t-41 -23.5t-28 -36t-10.5 -46q0 -31 22.5 -56t78.5 -25q37 0 62 11t40.5 28t22 36.5t6.5 36.5q0 39 -28 61t-75 22zM365 562q-51 0 -78 -27t-27 -65q0 -27 22 -46t60 -19
q24 0 43.5 7.5t34 20t22 28.5t7.5 33q0 29 -19.5 48.5t-64.5 19.5z" />
    <glyph glyph-name="nine" unicode="9" horiz-adv-x="634" 
d="M319 358q39 0 72 5.5t74 16.5q2 17 3 30.5t1 23.5q0 60 -28.5 94.5t-85.5 34.5q-27 0 -51 -7.5t-42 -22.5t-28.5 -37.5t-10.5 -52.5q0 -40 23.5 -62.5t72.5 -22.5zM241 114q72 0 123.5 37.5t75.5 108.5q-14 -4 -32 -7.5t-37.5 -6.5t-38.5 -4.5t-35 -1.5q-48 0 -88.5 10.5
t-70 33t-45.5 58t-16 85.5q0 68 26 117t67 81t92.5 47t102.5 15q66 0 113 -18.5t77 -53t44 -83t14 -108.5q0 -91 -24 -170.5t-70.5 -138t-116 -92t-160.5 -33.5q-31 0 -71 4.5t-69 15.5q-6 2 -8.5 6t2.5 21l25 78q4 13 11.5 13t15.5 -2q20 -6 44.5 -9t48.5 -3z" />
    <glyph glyph-name="colon" unicode=":" horiz-adv-x="289" 
d="M194 523q36 0 58 -23t20 -58q-1 -20 -10 -37.5t-23 -31t-32.5 -21t-38.5 -7.5q-35 0 -57 23t-19 58q1 20 9.5 37.5t22.5 31t32 21t38 7.5zM143 168q37 0 59 -23t20 -59q-1 -20 -10 -37.5t-23 -30.5t-32 -20.5t-38 -7.5q-35 0 -57 23t-20 58q1 20 9.5 37.5t22.5 31t32 21
t37 7.5z" />
    <glyph glyph-name="semicolon" unicode=";" horiz-adv-x="287" 
d="M200 523q35 0 56.5 -23t19.5 -58q-1 -20 -9.5 -37.5t-22.5 -31t-32 -21t-38 -7.5q-35 0 -57 23t-20 58q1 20 9.5 37.5t23 31t32.5 21t38 7.5zM120 -111q-5 -11 -9.5 -15.5t-15.5 -4.5h-51q-26 0 -21 19l48 252q2 11 7 17.5t19 6.5h110q16 0 18 -7.5t-1 -16.5z" />
    <glyph glyph-name="less" unicode="&#x3c;" horiz-adv-x="634" 
d="M269 341l273 -138q15 -9 18 -15t1 -22l-12 -75q-2 -10 -6.5 -16.5t-17.5 1.5l-404 210q-17 8 -24.5 16.5t-5.5 21.5l1 5t1.5 11t1.5 11.5l1 5.5q3 21 13.5 29.5t27.5 16.5l463 211q16 8 19 1t2 -18l-11 -81q-2 -14 -6 -20.5t-20 -14.5z" />
    <glyph glyph-name="equal" unicode="=" horiz-adv-x="634" 
d="M583 404q-2 -11 -6 -16t-15 -5h-434q-11 0 -14 5t-1 16l10 77q2 13 6.5 17t15.5 4h434q11 0 13.5 -4t0.5 -17zM554 197q-2 -11 -6 -16.5t-15 -5.5h-434q-19 0 -16 20l11 79q2 11 6 15t15 4h436q11 0 13.5 -4.5t0.5 -15.5z" />
    <glyph glyph-name="greater" unicode="&#x3e;" horiz-adv-x="634" 
d="M136 490q-14 8 -16 15t0 21l10 71q2 11 7 18t19 -1l403 -211q15 -8 23 -16.5t6 -29.5l-1 -5.5t-1.5 -11.5t-1.5 -11l-1 -5q-3 -13 -12 -21.5t-29 -16.5l-462 -210q-16 -8 -19.5 -1.5t-1.5 16.5l12 85q2 15 6.5 22t22.5 15l311 138z" />
    <glyph glyph-name="question" unicode="?" horiz-adv-x="562" 
d="M254 158q29 0 52.5 -18.5t23.5 -55.5q0 -21 -8 -39.5t-22 -32t-32.5 -21t-39.5 -7.5q-33 0 -55 20.5t-22 52.5q0 21 8.5 39t22.5 32t33 22t39 8zM355 707q41 0 79.5 -7.5t68 -25.5t47 -46.5t17.5 -70.5q0 -30 -10 -56t-26.5 -48t-37.5 -42t-43 -38q-20 -17 -39.5 -33.5
t-35.5 -33.5t-26.5 -35t-13.5 -37l-4 -23q-2 -11 -4.5 -13t-10.5 -2h-107q-11 0 -12.5 4.5t0.5 12.5l4 32q4 31 17 55.5t30 45t37 37.5t40 32q31 25 53.5 51.5t22.5 57.5q0 21 -16.5 36.5t-54.5 15.5q-34 0 -73.5 -12t-82.5 -36q-10 -5 -15.5 -5.5t-10.5 8.5l-40 76
q-3 8 -2 13.5t11 11.5q57 40 121 57.5t117 17.5z" />
    <glyph glyph-name="at" unicode="@" horiz-adv-x="953" 
d="M509 453q-48 0 -78.5 -40.5t-30.5 -118.5q0 -38 16.5 -55.5t44.5 -17.5q15 0 35 5t41 18q3 19 6.5 46.5t7.5 56.5t8 55.5t7 44.5q-29 6 -57 6zM444 -77q-89 0 -155.5 25.5t-111.5 71.5t-67.5 109.5t-22.5 140.5q0 99 33.5 183.5t95 146.5t149 97t195.5 35q83 0 149 -23
t112 -65t70.5 -102t24.5 -135q0 -67 -19 -121.5t-52 -93.5t-77.5 -60t-94.5 -21q-92 0 -115 58q-24 -20 -62 -33.5t-75 -13.5q-66 0 -101.5 42t-35.5 114q0 57 13.5 106.5t42 86t72.5 58t105 21.5q16 0 51 -3t76 -15q23 -7 29 -20.5t3 -29.5q-6 -37 -10.5 -65.5t-8 -55
t-6.5 -53t-7 -60.5q-3 -22 9 -35t40 -13q26 0 48.5 15t39.5 42t27 64t10 82q0 54 -17 98t-50 74.5t-81.5 47.5t-111.5 17q-92 0 -161.5 -30t-117 -81t-71.5 -117.5t-24 -139.5q0 -57 17 -105t50 -82.5t82 -54t112 -19.5q12 0 29 1t36 3.5t39 7.5t39 13q8 4 12 3t7 -8l23 -55
q2 -8 -1 -12t-12 -9q-19 -9 -42 -15.5t-46.5 -10t-46 -5t-38.5 -1.5z" />
    <glyph glyph-name="A" unicode="A" horiz-adv-x="635" 
d="M427 146h-221l-56 -127q-5 -10 -10.5 -14.5t-19.5 -4.5h-118q-10 0 -12 6t1 14l290 627q15 34 32 44t46 11h59q16 0 27 -1.5t19 -7.5t13 -17t8 -29l114 -627q1 -6 -1.5 -13t-13.5 -7h-111q-11 0 -17.5 2.5t-8.5 13.5zM257 270h152l-18 127l-15 143h-7l-57 -143z" />
    <glyph glyph-name="B" unicode="B" horiz-adv-x="659" 
d="M214 134h140q32 0 53 11t33 27t17 34.5t5 32.5q0 33 -20 53.5t-62 20.5h-141zM256 435h131q12 0 27 3.5t27.5 12.5t21.5 24.5t9 39.5q0 25 -17 39t-45 14h-135zM439 701q40 0 74.5 -8.5t60.5 -27t41 -48t15 -71.5q0 -55 -27.5 -95.5t-72.5 -62.5l-1 -7q47 -20 66 -59.5
t19 -85.5q0 -52 -20 -95t-55 -74.5t-83.5 -49t-105.5 -17.5h-244q-35 0 -45 14.5t-5 46.5l82 578q5 32 18 47t48 15h235z" />
    <glyph glyph-name="C" unicode="C" horiz-adv-x="624" 
d="M421 710q48 0 98.5 -9.5t94.5 -33.5q11 -6 10 -12.5t-7 -22.5l-29 -68q-6 -14 -12.5 -17t-19.5 2q-35 14 -67 19.5t-65 5.5q-49 0 -86 -21t-61.5 -59.5t-36.5 -91.5t-12 -117q0 -36 6.5 -65.5t22.5 -50.5t42.5 -32t66.5 -11q47 0 85.5 12t71.5 24q15 6 19 3t9 -15l33 -73
q6 -14 2.5 -20.5t-13.5 -11.5q-59 -32 -119 -44t-117 -12q-71 0 -121 19.5t-82.5 56t-47.5 89.5t-15 120q0 103 26 184t72.5 137t110.5 85.5t141 29.5z" />
    <glyph glyph-name="D" unicode="D" horiz-adv-x="676" 
d="M274 567q-15 -109 -30 -217t-31 -217h79q57 0 96.5 22.5t63.5 60.5t34.5 86.5t10.5 101.5q0 36 -7 66t-23.5 51.5t-45 33.5t-71.5 12h-76zM382 700q74 0 124.5 -21.5t82 -59.5t45.5 -89.5t14 -111.5q0 -77 -18 -152t-59.5 -134t-108.5 -95.5t-165 -36.5h-191q-19 0 -30 4
t-16 11.5t-6 19t1 25.5l82 579q5 31 18.5 46t48.5 15h178z" />
    <glyph glyph-name="E" unicode="E" horiz-adv-x="594" 
d="M543 23q-2 -12 -7 -17.5t-16 -5.5h-293q-55 0 -87.5 16t-49 42t-19.5 59t2 67l47 332q5 36 16 69t33 59t56.5 41.5t86.5 15.5h283q13 0 16 -5t1 -19l-12 -85q-2 -13 -6.5 -17.5t-16.5 -4.5h-239q-38 0 -53 -18t-18 -44l-11 -77h278q12 0 14.5 -5t0.5 -19l-11 -78
q-2 -12 -6.5 -17.5t-15.5 -5.5h-278l-16 -114q-5 -35 9.5 -47.5t44.5 -12.5h262q13 0 15.5 -4.5t0.5 -19.5l-11 -85v0z" />
    <glyph glyph-name="F" unicode="F" horiz-adv-x="574" 
d="M197 21q-2 -14 -6 -17.5t-19 -3.5h-102q-11 0 -16.5 4.5t-3.5 16.5l70 495q5 36 17.5 69t35.5 59t58.5 41.5t87.5 15.5h282q13 0 16 -5t1 -19l-12 -85q-2 -13 -7 -17.5t-16 -4.5h-245q-38 0 -53 -17.5t-18 -44.5l-13 -92h275q12 0 14.5 -4.5t0.5 -19.5l-11 -78
q-2 -12 -7 -17.5t-16 -5.5h-274l-39 -270v0z" />
    <glyph glyph-name="G" unicode="G" horiz-adv-x="671" 
d="M495 354q3 21 26 21h96q14 0 18 -4.5t2 -16.5l-34 -267q-2 -14 -7 -26t-22 -21q-30 -17 -64 -27.5t-66 -15.5t-59 -6.5t-43 -1.5q-72 0 -123.5 19.5t-84.5 56t-48.5 89.5t-15.5 120q0 103 27 184t75 137t113.5 85.5t142.5 29.5q48 0 99 -9.5t94 -33.5q11 -6 10.5 -12.5
t-7.5 -22.5l-29 -68q-5 -14 -11.5 -17t-19.5 2q-35 14 -67 19.5t-66 5.5q-49 0 -87 -21t-64 -59.5t-39.5 -91.5t-13.5 -117q0 -36 6.5 -65.5t22.5 -50.5t42.5 -32t66.5 -11q17 0 45.5 2.5t56.5 12.5z" />
    <glyph glyph-name="H" unicode="H" horiz-adv-x="704" 
d="M608 21q-2 -13 -6 -17t-19 -4h-102q-12 0 -17 4.5t-3 16.5l40 280h-263l-40 -280q-2 -13 -6.5 -17t-18.5 -4h-103q-11 0 -16.5 4.5t-3.5 16.5l93 658q2 12 8 16.5t17 4.5h103q14 0 18 -4t2 -17l-35 -249h262l36 249q2 12 7.5 16.5t17.5 4.5h102q15 0 18.5 -4t1.5 -17
l-93 -658v0z" />
    <glyph glyph-name="I" unicode="I" horiz-adv-x="319" 
d="M211 21q-2 -13 -6.5 -17t-18.5 -4h-103q-12 0 -17.5 4.5t-3.5 16.5l93 658q2 12 8 16.5t18 4.5h103q14 0 18 -4t2 -17l-93 -658v0z" />
    <glyph glyph-name="J" unicode="J" horiz-adv-x="573" 
d="M231 -11q-42 0 -99.5 10t-114.5 41q-8 4 -9.5 9t5.5 19l37 82q5 11 10.5 11t13.5 -4q32 -15 68 -23.5t74 -8.5q42 0 68.5 11.5t43 33.5t24.5 53.5t14 71.5l54 385q2 14 8.5 17t17.5 3h102q12 0 16.5 -3t2.5 -17l-59 -418q-8 -58 -24 -108t-47 -86.5t-81 -57.5t-125 -21z
" />
    <glyph glyph-name="K" unicode="K" horiz-adv-x="662" 
d="M461 446l166 -421q10 -25 -13 -25h-103q-21 0 -30.5 2.5t-15.5 20.5l-115 306l-129 -134l-25 -174q-2 -14 -6 -17.5t-19 -3.5h-101q-11 0 -16.5 4.5t-3.5 16.5l93 658q2 12 8 16.5t17 4.5h101q14 0 18 -3.5t2 -15.5l-38 -270l4 -2l107 119l142 153q11 11 20.5 15t29.5 4
h125q10 0 12 -5.5t-5 -13.5z" />
    <glyph glyph-name="L" unicode="L" horiz-adv-x="560" 
d="M227 0q-54 0 -86.5 15.5t-49 41t-20 58t1.5 66.5l70 500q4 21 25 21h103q14 0 18 -4.5t2 -16.5l-68 -485q-5 -38 10 -51t46 -13h247q11 0 14 -4t1 -18l-12 -89q-2 -11 -6.5 -16t-15.5 -5h-280v0z" />
    <glyph glyph-name="M" unicode="M" horiz-adv-x="843" 
d="M666 430h-5l-60 -115l-104 -189q-14 -26 -26 -35t-35 -9h-53q-25 0 -33.5 9t-15.5 35l-46 170l-33 122h-6l-56 -398q-2 -14 -7 -17t-17 -3h-99q-11 0 -16.5 3t-3.5 17l86 611q5 38 21 54t51 16h50q28 0 39.5 -10.5t19.5 -36.5l67 -242l42 -163h4l93 170l128 233
q16 27 32 38t47 11h52q32 0 45 -13.5t8 -51.5l-87 -616q-2 -14 -7 -17t-18 -3h-95q-11 0 -16.5 3t-3.5 17z" />
    <glyph glyph-name="N" unicode="N" horiz-adv-x="722" 
d="M260 471l-63 -450q-2 -13 -6.5 -17t-18.5 -4h-102q-11 0 -16.5 4.5t-3.5 16.5l86 610q5 39 21 54.5t52 15.5h41q15 0 24.5 -1.5t16.5 -6.5t12.5 -14t12.5 -23l127 -287l61 -139h5l63 450q2 12 7 16.5t19 4.5h102q22 0 19 -21l-86 -611q-5 -32 -19.5 -50.5t-52.5 -18.5
h-41q-15 0 -24.5 1.5t-17 6.5t-13 13.5t-11.5 22.5l-129 288l-60 139h-5z" />
    <glyph glyph-name="O" unicode="O" horiz-adv-x="708" 
d="M422 711q66 0 115 -19.5t81.5 -56t49 -88t16.5 -115.5q0 -95 -23 -176t-67.5 -140.5t-110.5 -93t-152 -33.5q-132 0 -195.5 71.5t-63.5 203.5q0 103 25.5 186t72 141t111 89t141.5 31zM409 575q-47 0 -81.5 -26t-57 -68.5t-34 -96.5t-11.5 -110q0 -70 27.5 -109t94.5 -39
q48 0 83 26t57.5 68t33.5 95.5t11 108.5q0 33 -6 60.5t-20.5 47.5t-38 31.5t-58.5 11.5z" />
    <glyph glyph-name="P" unicode="P" horiz-adv-x="625" 
d="M275 567l-27 -190h124q54 0 83.5 32t29.5 80q0 13 -3.5 27t-13 25t-26 18.5t-41.5 7.5h-126zM230 254l-33 -233q-2 -14 -6.5 -17.5t-18.5 -3.5h-102q-11 0 -16.5 4.5t-3.5 16.5l88 619q4 28 17.5 44.5t48.5 16.5h233q49 0 87 -14.5t63.5 -40.5t38.5 -62.5t13 -79.5
q0 -19 -4 -45t-14.5 -53.5t-30 -55t-50.5 -49t-75 -34.5t-105 -13h-130z" />
    <glyph glyph-name="Q" unicode="Q" horiz-adv-x="708" 
d="M273 -163q-10 0 -12 4.5t-1 14.5l12 77q2 11 4.5 15t13.5 4h98q47 0 85.5 -6t69 -16t53 -21.5t36.5 -23.5q8 -6 9 -10.5t-5 -13.5l-40 -69q-6 -9 -11.5 -9.5t-17.5 6.5q-36 20 -86.5 34t-124.5 14h-83zM422 711q66 0 115 -19.5t81.5 -56t49 -88t16.5 -115.5
q0 -95 -23 -176t-67.5 -140.5t-110.5 -93t-152 -33.5q-132 0 -195.5 71.5t-63.5 203.5q0 103 25.5 186t72 141t111 89t141.5 31zM409 575q-47 0 -81.5 -26t-57 -68.5t-34 -96.5t-11.5 -110q0 -70 27.5 -109t94.5 -39q48 0 83 26t57.5 68t33.5 95.5t11 108.5q0 33 -6 60.5
t-20.5 47.5t-38 31.5t-58.5 11.5z" />
    <glyph glyph-name="R" unicode="R" horiz-adv-x="648" 
d="M199 21q-2 -14 -6.5 -17.5t-18.5 -3.5h-104q-11 0 -16.5 4.5t-3.5 16.5l88 619q4 30 17.5 45.5t48.5 15.5h235q98 0 147.5 -47.5t49.5 -128.5q0 -73 -35.5 -123t-97.5 -76l-1 -3q41 -12 56 -37.5t20 -62.5l24 -200q2 -10 0 -16.5t-14 -6.5h-105q-11 0 -23 2.5t-14 17.5
l-18 177q-5 49 -29 68t-72 19h-91zM254 407h129q47 0 73.5 26.5t26.5 68.5q0 12 -3.5 23.5t-12 21t-22.5 15t-36 5.5h-133z" />
    <glyph glyph-name="S" unicode="S" horiz-adv-x="582" 
d="M286 -11q-32 0 -66 3.5t-67 11t-64 19.5t-56 29q-7 5 -8 11t6 19l38 80q6 12 12 14t17 -3q18 -8 40.5 -16.5t47 -15t50 -11t50.5 -4.5q34 0 55.5 7t34.5 18t18 25t5 28q0 27 -22 44.5t-74 42.5q-48 23 -85.5 46t-63.5 48.5t-40 55.5t-14 66q0 93 65.5 149t187.5 56
q55 0 111 -11t96 -33q11 -5 13 -11.5t-3 -22.5l-24 -75q-6 -15 -13 -16.5t-18 1.5q-43 14 -86.5 23t-82.5 9q-47 0 -66.5 -19t-19.5 -44q0 -20 23.5 -39t79.5 -44q43 -19 80 -39.5t64 -46.5t42 -59t15 -76q0 -57 -21 -98.5t-58.5 -68.5t-88.5 -40t-110 -13z" />
    <glyph glyph-name="T" unicode="T" horiz-adv-x="557" 
d="M603 590q-2 -11 -6 -15.5t-15 -4.5h-176l-78 -549q-2 -13 -6.5 -17t-18.5 -4h-104q-12 0 -17 4.5t-3 16.5l78 549h-172q-11 0 -14 4.5t-2 15.5l13 89q2 13 6 17t15 4h497q11 0 14.5 -4t1.5 -17l-13 -89v0z" />
    <glyph glyph-name="U" unicode="U" horiz-adv-x="696" 
d="M610 97q-5 -35 -23 -60t-61 -36q-20 -5 -43.5 -7.5t-47 -3.5t-44 -1.5t-33.5 -0.5q-85 0 -142.5 14.5t-89.5 49.5t-40.5 93t3.5 146l53 388q2 12 8 16.5t17 4.5h104q15 0 18.5 -4t1.5 -17l-56 -397q-6 -41 -3.5 -71.5t16.5 -50.5t42.5 -29.5t75.5 -9.5q7 0 19 0.5t26 1
t29.5 2t28.5 4.5l78 550q2 12 7.5 16.5t17.5 4.5h102q15 0 18 -4t1 -17z" />
    <glyph glyph-name="V" unicode="V" horiz-adv-x="644" 
d="M313 167h8l70 175l152 344q5 10 11 12.5t17 2.5h122q9 0 9.5 -6t-1.5 -11l-297 -631q-8 -18 -16 -28t-17 -15.5t-19.5 -7.5t-23.5 -2h-61q-29 0 -43.5 9.5t-21.5 44.5l-118 630q-1 7 2.5 12t11.5 5h114q12 0 16 -4.5t6 -13.5l55 -339z" />
    <glyph glyph-name="W" unicode="W" horiz-adv-x="878" 
d="M484 503l-67 -184l-96 -266q-7 -17 -14 -28t-15 -17t-19 -8t-25 -2h-56q-14 0 -24.5 1t-18 6t-12 15t-5.5 29l-47 633q-2 14 2.5 17t14.5 3h114q14 0 20.5 -3.5t7.5 -18.5l8 -290l5 -179h6l62 181l88 252q6 16 12 27t14 17.5t19 9.5t27 3h57q29 0 37.5 -12.5t10.5 -40.5
l18 -263l11 -170h6l51 170l90 293q5 15 10.5 19t18.5 4h128q9 0 12.5 -3.5t-1.5 -16.5l-227 -630q-7 -19 -14 -29.5t-15.5 -16t-19 -6.5t-24.5 -1h-53q-29 0 -42.5 9t-18.5 46l-19 266l-13 184h-4z" />
    <glyph glyph-name="X" unicode="X" horiz-adv-x="599" 
d="M315 240l-148 -217q-11 -14 -19 -18.5t-26 -4.5h-128q-8 0 -10 6.5t3 13.5l254 344l-143 318q-4 6 -0.5 12.5t14.5 6.5h106q20 0 27 -4t12 -18l80 -195l133 195q9 14 17 18t28 4h119q11 0 12 -6.5t-4 -13.5l-232 -316l158 -345q2 -7 -1 -13.5t-11 -6.5h-115
q-17 0 -24.5 4.5t-14.5 18.5z" />
    <glyph glyph-name="Y" unicode="Y" horiz-adv-x="606" 
d="M330 397l86 148l83 137q6 10 12 14.5t18 4.5h128q14 0 13.5 -6t-3.5 -12l-278 -425l-33 -238q-2 -11 -5.5 -15.5t-16.5 -4.5h-107q-20 0 -17 20l32 236l-162 426q-2 5 1 12t14 7h117q15 0 19 -5t7 -17l46 -139l41 -143h5z" />
    <glyph glyph-name="Z" unicode="Z" horiz-adv-x="610" 
d="M634 611q-3 -23 -16.5 -42.5t-28.5 -35.5l-371 -396l1 -7h334q11 0 13.5 -4t0.5 -18l-13 -87q-2 -12 -5.5 -16.5t-13.5 -4.5h-475q-27 0 -40 12.5t-9 41.5l3 24q4 24 14.5 41.5t27.5 35.5l386 410v6h-295q-18 0 -15 21l12 87q2 14 6 18t15 4h424q32 0 43.5 -12t6.5 -45z
" />
    <glyph glyph-name="bracketleft" unicode="[" horiz-adv-x="354" 
d="M281 -73q-1 -17 -15 -17h-211q-20 0 -17 21l107 768q3 21 24 21h211q8 0 10 -4t1 -12l-11 -76q-1 -8 -4 -11.5t-14 -3.5h-95l-83 -596h96q9 0 11.5 -3.5t0.5 -11.5z" />
    <glyph glyph-name="backslash" unicode="\" horiz-adv-x="447" 
d="M401 -77q5 -19 -17 -19h-79q-14 0 -20 3.5t-8 14.5l-184 837q-3 10 2.5 14.5t14.5 4.5h81q14 0 18.5 -4.5t6.5 -13.5l185 -837v0z" />
    <glyph glyph-name="bracketright" unicode="]" horiz-adv-x="361" 
d="M273 -69q-1 -10 -5.5 -15.5t-16.5 -5.5h-211q-9 0 -11 3.5t-1 14.5l11 74q2 8 5 11.5t12 3.5h96l84 596h-97q-9 0 -11 3.5t-1 11.5l10 74q2 11 5.5 14.5t13.5 3.5h209q12 0 15 -5.5t1 -15.5l-108 -768v0z" />
    <glyph glyph-name="asciicircum" unicode="^" horiz-adv-x="566" 
d="M551 399q4 -9 -0.5 -14.5t-12.5 -5.5h-89q-9 0 -16 3t-9 12l-82 198h-3l-136 -194q-8 -12 -15 -16t-19 -4h-93q-9 0 -10.5 5.5t3.5 13.5l220 301q8 11 19.5 20.5t29.5 9.5h36q23 0 29.5 -7.5t11.5 -21.5l136 -300v0z" />
    <glyph glyph-name="underscore" unicode="_" horiz-adv-x="485" 
d="M459 -126q-2 -11 -5.5 -16t-14.5 -5h-484q-11 0 -13.5 5t-0.5 16l5 33q2 14 5 18t15 4h484q11 0 13 -4t0 -18l-4 -33v0z" />
    <glyph glyph-name="grave" unicode="`" horiz-adv-x="530" 
d="M394 631q6 -10 4 -14t-9 -8l-45 -29q-7 -4 -11.5 -3.5t-11.5 7.5l-150 161q-5 5 -4.5 10t7.5 8l93 51q10 5 14 2t8 -9l105 -176v0z" />
    <glyph glyph-name="a" unicode="a" horiz-adv-x="581" 
d="M337 537q35 0 89.5 -6t112.5 -21q17 -5 19 -13t0 -19q-17 -114 -31.5 -220t-27.5 -216q-1 -14 -15 -19q-57 -20 -113 -27t-99 -7q-62 0 -104 15t-68 42t-37.5 64.5t-11.5 82.5q0 80 18.5 143.5t54.5 108t89.5 68.5t123.5 24zM330 415q-26 0 -49 -11.5t-41.5 -36.5
t-30 -64.5t-12.5 -94.5q0 -21 5 -38.5t17 -30.5t31.5 -20.5t48.5 -7.5q15 0 34 3.5t35 8.5q6 48 10.5 81.5t9 63.5t9 62t12.5 77q-9 2 -19.5 3.5t-21.5 2.5t-21 1.5t-17 0.5z" />
    <glyph glyph-name="b" unicode="b" horiz-adv-x="586" 
d="M261 -11q-52 0 -106 9t-96 30q-11 5 -13 12t0 18l92 653q2 12 7 16t16 4h100q11 0 16 -3.5t3 -16.5l-28 -194q64 22 123 22q51 0 86 -15.5t56.5 -43.5t31 -66.5t9.5 -84.5q0 -68 -17 -129.5t-53.5 -108.5t-92.5 -74.5t-134 -27.5zM328 414q-13 0 -38 -4t-54 -15l-39 -272
q19 -6 39.5 -8t34.5 -2q29 0 54.5 12.5t44.5 37.5t30 62t11 86q0 103 -83 103z" />
    <glyph glyph-name="c" unicode="c" horiz-adv-x="497" 
d="M323 406q-33 0 -56.5 -14.5t-38.5 -40t-22 -59t-7 -71.5q0 -23 4.5 -41.5t15 -32t28 -21t43.5 -7.5q32 0 62 7t53 15q11 4 16 3t8 -12l27 -77q3 -10 1.5 -16t-13.5 -12q-45 -23 -95.5 -30.5t-88.5 -7.5q-102 0 -155 54t-53 164q0 81 18.5 143t53 103.5t83 63t108.5 21.5
q40 0 82.5 -8t74.5 -24q9 -5 10.5 -10.5t-2.5 -17.5l-28 -78q-3 -11 -10.5 -11.5t-20.5 3.5q-25 7 -51 10.5t-47 3.5z" />
    <glyph glyph-name="d" unicode="d" horiz-adv-x="586" 
d="M335 414q-23 0 -47 -9.5t-43.5 -32.5t-32 -61t-12.5 -95q0 -54 24.5 -78.5t72.5 -24.5q14 0 36.5 3t39.5 8l39 279q-23 7 -42.5 9t-34.5 2zM456 711q2 12 6.5 16t17.5 4h99q11 0 15.5 -3.5t2.5 -16.5l-90 -652q-2 -11 -5.5 -17.5t-16.5 -12.5q-51 -23 -109 -31.5
t-108 -8.5q-61 0 -102.5 16t-67 45t-36.5 68t-11 86q0 73 18 135t52.5 106t86 69t119.5 25q27 0 50.5 -2.5t51.5 -8.5z" />
    <glyph glyph-name="e" unicode="e" horiz-adv-x="540" 
d="M320 417q-36 0 -67.5 -24.5t-41.5 -82.5q11 -1 22 -1.5t21 -0.5q39 0 64 3.5t39.5 11t20.5 19t6 27.5q0 19 -13.5 33.5t-50.5 14.5zM254 -11q-95 0 -149.5 50.5t-54.5 153.5q0 87 21 152t58.5 107.5t88 64t110.5 21.5q100 0 148 -40.5t48 -109.5q0 -94 -59.5 -139.5
t-187.5 -45.5q-19 0 -38.5 1t-41.5 4q-7 -53 12 -71.5t75 -19.5q12 0 27.5 2t32 5.5t32.5 8t29 9.5q12 4 16 2.5t8 -9.5l31 -79q7 -14 -11 -24q-20 -12 -45.5 -20t-52 -13.5t-52 -7.5t-45.5 -2z" />
    <glyph glyph-name="f" unicode="f" horiz-adv-x="393" 
d="M437 621q-3 -10 -8 -11.5t-14 0.5q-15 3 -33.5 5t-30.5 2q-32 0 -44 -13.5t-15 -33.5l-7 -45h116q9 0 12 -3t1 -13l-10 -77q-2 -8 -5 -12t-15 -4h-114l-76 -559q-2 -15 -8 -20.5t-14 -8.5l-105 -34q-9 -4 -16 0.5t-5 17.5l84 604h-72q-11 0 -11.5 4.5t0.5 12.5l8 57
q1 9 4.5 13.5t14.5 7.5l71 16l8 57q5 34 17 63t32.5 50t51 32.5t72.5 11.5q7 0 21 -0.5t30.5 -2t34.5 -5t34 -8.5q11 -4 12 -8.5t-1 -12.5z" />
    <glyph glyph-name="g" unicode="g" horiz-adv-x="586" 
d="M339 413q-27 0 -52.5 -9.5t-45 -31.5t-31.5 -57.5t-12 -89.5t24.5 -77t66.5 -23q14 0 37.5 2.5t48.5 10.5l36 264q-17 6 -38 8.5t-34 2.5zM497 0q-7 -49 -22.5 -89.5t-43.5 -70t-71 -45.5t-106 -16q-47 0 -98.5 9.5t-86.5 22.5q-14 7 -15 12.5t2 13.5l25 79q5 11 10 13
t19 -2q26 -8 62.5 -16t66.5 -8q31 0 52 5.5t34 18t20 34.5t12 55q-26 -8 -56 -11.5t-59 -3.5q-51 0 -87 15t-59 42.5t-33.5 66.5t-10.5 86q0 73 18 133t55 103t91.5 66t128.5 23q52 0 106.5 -8.5t96.5 -29.5q11 -7 14.5 -13.5t1.5 -17.5z" />
    <glyph glyph-name="h" unicode="h" horiz-adv-x="591" 
d="M505 18q-2 -12 -5.5 -15t-17.5 -3h-100q-11 0 -16 3.5t-3 14.5l40 280q4 26 4 47.5t-7.5 36.5t-24 23.5t-45.5 8.5q-9 0 -21.5 -1t-26 -2.5t-26 -4t-22.5 -5.5l-53 -383q-2 -12 -6 -15t-17 -3h-100q-11 0 -15.5 3.5t-2.5 14.5l98 694q3 19 22 19h100q13 0 16.5 -4
t1.5 -15l-26 -189q13 4 29.5 7t33.5 5t32.5 3t27.5 1q105 0 146 -58t26 -164l-42 -299v0z" />
    <glyph glyph-name="i" unicode="i" horiz-adv-x="303" 
d="M233 745q31 0 51 -20t20 -51q0 -20 -8 -37t-21.5 -30t-30.5 -20t-34 -7q-31 0 -50.5 19.5t-19.5 49.5q0 20 7.5 37.5t20.5 30.5t30 20.5t35 7.5zM199 18q-2 -11 -5.5 -14.5t-17.5 -3.5h-99q-11 0 -15.5 3.5t-2.5 14.5l68 489q2 11 7 14.5t16 3.5h99q14 0 17.5 -3.5
t1.5 -14.5z" />
    <glyph glyph-name="j" unicode="j" horiz-adv-x="310" 
d="M239 745q30 0 50 -20t20 -51q0 -20 -8 -37t-21.5 -30t-30 -20t-34.5 -7q-30 0 -50 19.5t-20 49.5q0 20 7.5 37.5t20.5 30.5t30 20.5t36 7.5zM212 76q-10 -72 -29 -122t-47.5 -84t-68.5 -55t-92 -35q-14 -4 -19.5 -2.5t-8.5 10.5l-29 83q-3 13 0.5 18t14.5 10
q37 15 61.5 31.5t40 37t23.5 47t13 60.5l60 432q2 11 7 14.5t16 3.5h102q13 0 16 -3.5t1 -14.5z" />
    <glyph glyph-name="k" unicode="k" horiz-adv-x="535" 
d="M399 348l108 -328q6 -20 -16 -20h-105q-12 0 -18.5 3.5t-8.5 15.5l-68 222l-92 -94q-2 -9 -4 -25.5t-4.5 -35t-5.5 -36.5t-5 -31q-2 -11 -5.5 -15t-17.5 -4h-99q-22 0 -19 19l98 694q2 11 7 14.5t16 3.5h101q13 0 16 -3t1 -15l-52 -371l3 -2l159 171q9 8 15 11t20 3h121
q14 0 14.5 -6.5t-7.5 -14.5z" />
    <glyph glyph-name="l" unicode="l" horiz-adv-x="320" 
d="M298 24q1 -9 -3 -13.5t-15 -7.5q-26 -8 -55.5 -11t-53.5 -3q-33 0 -56.5 7t-37 24t-17 44.5t2.5 69.5l83 578q2 14 7.5 16.5t16.5 2.5h97q11 0 16 -3.5t3 -14.5l-78 -555q-3 -25 2 -34t27 -9q8 0 17.5 0.5t17.5 1.5q9 1 11.5 -1t3.5 -11z" />
    <glyph glyph-name="m" unicode="m" horiz-adv-x="903" 
d="M181 18q-2 -11 -6 -14.5t-17 -3.5h-100q-11 0 -15.5 3.5t-2.5 14.5l60 427q5 34 19.5 54t52.5 29q9 2 25.5 3.5t36 3t39.5 2.5t34 1q59 0 101 -11t71 -36q35 22 84.5 35t96.5 13q63 0 104 -18t64 -51t29 -78.5t-1 -99.5l-39 -274q-2 -11 -5.5 -14.5t-16.5 -3.5h-100
q-11 0 -15.5 3.5t-2.5 14.5l37 257q4 35 3.5 61t-10 43.5t-28.5 26.5t-52 9q-9 0 -21.5 -1.5t-25.5 -3.5t-25.5 -5.5t-20.5 -7.5q5 -25 4.5 -53.5t-5.5 -61.5l-37 -264q-2 -11 -5.5 -14.5t-17.5 -3.5h-100q-11 0 -16 3.5t-3 14.5l38 270q4 31 3.5 55t-10 40.5t-29.5 25.5
t-55 9q-10 0 -30.5 -1t-34.5 -4l-55 -395v0z" />
    <glyph glyph-name="n" unicode="n" horiz-adv-x="591" 
d="M302 418q-10 0 -27.5 -0.5t-37.5 -4.5l-56 -395q-2 -11 -5.5 -14.5t-17.5 -3.5h-99q-11 0 -16 3.5t-3 14.5l61 429q5 34 20.5 54t50.5 27q10 2 27.5 3.5t38 3t40 2.5t34.5 1q67 0 115.5 -14t77 -44.5t37.5 -80t-1 -120.5l-36 -261q-2 -11 -5.5 -14.5t-17.5 -3.5h-100
q-11 0 -16 3.5t-3 14.5l38 270q4 33 2.5 57t-12.5 40.5t-32.5 24.5t-56.5 8z" />
    <glyph glyph-name="o" unicode="o" horiz-adv-x="577" 
d="M334 538q108 0 161.5 -57t53.5 -162q0 -75 -19 -136t-55.5 -104t-89.5 -66.5t-121 -23.5q-109 0 -161.5 53.5t-52.5 153.5q0 82 21 146t58.5 107.5t89.5 66t115 22.5zM321 415q-30 0 -53 -15t-38.5 -42t-23.5 -64t-8 -81q0 -50 19.5 -75.5t62.5 -25.5q31 0 54 16.5
t38 44.5t22.5 64.5t7.5 77.5q0 45 -18 72.5t-63 27.5z" />
    <glyph glyph-name="p" unicode="p" horiz-adv-x="586" 
d="M311 411q-14 0 -36.5 -3t-38.5 -8l-38 -273q23 -7 43 -9t35 -2q26 0 50.5 10.5t43 33t29.5 58.5t11 87q0 59 -26 82.5t-73 23.5zM153 -187q-2 -11 -6 -14t-17 -3h-101q-11 0 -15.5 3t-2.5 14l92 652q2 11 6.5 17.5t17.5 13.5q50 22 106 31t107 9q61 0 102.5 -16.5
t66.5 -46.5t35.5 -70.5t10.5 -88.5q0 -68 -17 -126.5t-51 -102.5t-84 -69t-116 -25q-29 0 -53.5 2.5t-53.5 9.5z" />
    <glyph glyph-name="q" unicode="q" horiz-adv-x="586" 
d="M339 414q-29 0 -54 -11t-44.5 -34.5t-30.5 -60.5t-11 -89q0 -56 22.5 -80t64.5 -24q13 0 37.5 2.5t48.5 9.5l39 276q-17 6 -38 8.5t-34 2.5zM241 -11q-51 0 -87 15.5t-59 43.5t-33.5 66.5t-10.5 85.5q0 168 76 252t216 84q52 0 107 -9t97 -30q11 -6 13.5 -13t0.5 -17
l-90 -654q-2 -11 -6 -15t-16 -4h-102q-19 0 -18 19l27 192q-26 -7 -56 -11.5t-59 -4.5z" />
    <glyph glyph-name="r" unicode="r" horiz-adv-x="397" 
d="M106 419q4 27 8.5 46.5t14 33t26 21t44.5 11.5q56 6 108.5 7.5t102.5 -0.5q16 0 21 -4.5t2 -20.5l-16 -89q-2 -15 -9 -17t-20 0q-42 6 -74 8t-67 4l-57 -398q-2 -14 -7.5 -17.5t-18.5 -3.5h-93q-11 0 -16.5 3.5t-3.5 17.5l55 398v0z" />
    <glyph glyph-name="s" unicode="s" horiz-adv-x="483" 
d="M229 108q37 0 53.5 14t16.5 35q0 18 -18.5 31.5t-60.5 30.5q-66 28 -102.5 65t-36.5 91q0 75 52.5 119t150.5 44q45 0 88.5 -8.5t76.5 -25.5q10 -5 10.5 -10.5t-4.5 -17.5l-24 -64q-5 -11 -10.5 -12.5t-14.5 2.5q-35 11 -64 17t-61 6q-16 0 -26.5 -4.5t-17 -11t-9.5 -14
t-3 -13.5q0 -18 17 -29.5t56 -28.5q31 -13 58 -27.5t47 -34t31.5 -45t11.5 -59.5q0 -44 -17 -76t-46.5 -52.5t-69.5 -30.5t-86 -10q-50 0 -104.5 11.5t-92.5 37.5q-7 5 -7.5 10t4.5 16l30 68q5 11 11 13t16 -3q38 -17 76 -25.5t69 -8.5z" />
    <glyph glyph-name="t" unicode="t" horiz-adv-x="409" 
d="M383 26q0 -7 -1 -11.5t-12 -8.5q-37 -11 -75.5 -14t-63.5 -3q-84 0 -116 36.5t-22 107.5l40 285h-69q-11 0 -12.5 5.5t-0.5 13.5l8 54q2 10 4.5 13.5t13.5 6.5l74 17l20 93q3 12 9 17.5t16 8.5l94 30q9 2 14 -2t3 -16l-19 -134h111q11 0 13.5 -4.5t0.5 -12.5l-10 -71
q-2 -10 -4.5 -14.5t-14.5 -4.5h-111l-35 -254q-4 -29 7.5 -40t40.5 -11q14 0 34.5 2.5t34.5 4.5q10 2 13 -1.5t4 -10.5l11 -82v0z" />
    <glyph glyph-name="u" unicode="u" horiz-adv-x="582" 
d="M301 108q10 0 28.5 1t39.5 4l54 394q2 11 6 15t18 4h100q20 0 17 -19l-60 -427q-5 -34 -20.5 -54t-50.5 -28q-12 -2 -30 -4t-38.5 -3.5t-40 -2t-33.5 -0.5q-71 0 -118 13t-73 42.5t-33 77t3 115.5l39 271q2 11 5.5 15t17.5 4h101q20 0 17 -19l-37 -268q-5 -35 -4.5 -59.5
t9.5 -40.5t28.5 -23.5t54.5 -7.5z" />
    <glyph glyph-name="v" unicode="v" horiz-adv-x="543" 
d="M358 48q-8 -17 -15.5 -27.5t-16 -16t-19 -7.5t-23.5 -2h-73q-23 0 -36 10t-20 43l-94 459q-2 11 1.5 14.5t12.5 3.5h105q15 0 19.5 -3.5t6.5 -14.5l33 -205l22 -169h5l68 170l88 203q5 11 10 15t20 4h114q16 0 8 -16z" />
    <glyph glyph-name="w" unicode="w" horiz-adv-x="769" 
d="M405 327l-61 -138l-63 -142q-16 -32 -29.5 -42t-39.5 -10h-54q-23 0 -36 10t-16 44l-46 459q-1 11 3 14.5t13 3.5h108q12 0 17 -2t6 -14l8 -189l4 -151h6l52 126l66 156q11 25 24 36.5t40 11.5h52q25 0 32 -13t12 -35l22 -154l18 -129h6l45 159l57 181q4 11 8.5 13.5
t15.5 2.5l114 1q9 0 12.5 -3.5t-1.5 -14.5l-175 -459q-14 -34 -30 -44t-39 -10h-50q-14 0 -23 1.5t-15 7t-10.5 16t-7.5 27.5l-22 144l-19 136h-4z" />
    <glyph glyph-name="x" unicode="x" horiz-adv-x="507" 
d="M259 175l-107 -153q-8 -11 -16 -16.5t-23 -5.5h-117q-11 0 -13 6t6 16l198 255l-113 230q-3 5 -1 11.5t12 6.5h109q14 0 20 -4t11 -15l52 -128l85 128q7 11 14.5 15t21.5 4h121q11 0 11.5 -6t-3.5 -11l-181 -229l129 -258q4 -8 1.5 -14.5t-15.5 -6.5h-107q-15 0 -21 5.5
t-11 16.5z" />
    <glyph glyph-name="y" unicode="y" horiz-adv-x="542" 
d="M571 525q8 0 10.5 -4t-2.5 -12l-279 -600q-30 -64 -69.5 -95.5t-108.5 -31.5q-28 0 -61.5 5.5t-62.5 15.5q-14 5 -16 9t2 16l21 76q4 13 9 13.5t17 -2.5q20 -6 40 -9.5t32 -3.5q16 0 28 3t21.5 10t17.5 19t17 31l25 54h-23q-22 0 -31 8t-14 35l-83 444q-3 11 1.5 15
t12.5 4h108q14 0 19 -3.5t6 -14.5l27 -202l22 -174h6l74 177l84 197q5 11 10 15.5t19 4.5h121z" />
    <glyph glyph-name="z" unicode="z" horiz-adv-x="489" 
d="M492 450q-2 -15 -8.5 -29.5t-19.5 -27.5l-266 -270l2 -5h240q11 0 14 -3.5t1 -14.5l-10 -81q-2 -11 -5.5 -15t-14.5 -4h-381q-24 0 -34 11.5t-8 31.5l5 30q2 15 8 30t23 32l267 270l-2 4h-207q-11 0 -14 4t-1 15l11 78q2 11 6 15t15 4h341q24 0 35 -7.5t8 -32.5z" />
    <glyph glyph-name="braceleft" unicode="{" horiz-adv-x="407" 
d="M318 -82q-1 -14 -14 -14q-107 2 -152 52.5t-32 143.5l13 98q5 41 -5 57t-36 21q-13 4 -12 18l9 58q1 7 4 12t12 8q30 7 43.5 21.5t20.5 51.5l17 98q8 46 19 80.5t34.5 57t62.5 32.5t104 6q16 -1 15 -13l-9 -73q-1 -11 -5 -14.5t-12 -4.5q-45 -2 -60 -25t-21 -63l-15 -95
q-7 -41 -27.5 -68.5t-57.5 -41.5l-1 -3q34 -14 47.5 -41t5.5 -83l-15 -111q-2 -14 -1 -25.5t7.5 -21.5t20.5 -17t40 -11q8 -1 10 -3.5t1 -7.5l-11 -79v0z" />
    <glyph glyph-name="bar" unicode="|" horiz-adv-x="268" 
d="M226 -144q0 -12 -3.5 -16.5t-17.5 -4.5h-77q-20 0 -20 21v914q0 21 20 21h77q14 0 17.5 -4.5t3.5 -16.5v-914v0z" />
    <glyph glyph-name="braceright" unicode="}" horiz-adv-x="407" 
d="M138 709q1 14 14 14q107 -1 152 -52t32 -143l-12 -78q-5 -41 5 -57t36 -21q8 -2 11 -6t1 -13l-8 -57q-1 -7 -4 -12.5t-12 -7.5q-29 -7 -43.5 -22t-20.5 -52l-19 -118q-7 -42 -19 -76t-36 -57t-63.5 -34.5t-101.5 -7.5q-17 0 -15 12l9 76q1 11 5.5 14.5t11.5 3.5
q23 1 37.5 8t23 18t13 27t7.5 36l17 115q7 41 27.5 68.5t57.5 40.5l1 4q-34 13 -47.5 40.5t-5.5 83.5l14 91q1 13 0.5 25t-7 21.5t-21 16.5t-40.5 11q-8 2 -10 4.5t-1 7.5l11 76v0z" />
    <glyph glyph-name="asciitilde" unicode="~" horiz-adv-x="634" 
d="M580 305q-71 -94 -161 -94q-26 0 -50.5 8.5t-47 19t-43.5 19.5t-42 9q-23 0 -40.5 -8.5t-37.5 -28.5q-7 -6 -12 -8t-10 3l-50 44q-9 8 2 20q37 47 75.5 68.5t82.5 21.5q27 0 51.5 -9t47 -20.5t44 -20.5t41.5 -9q23 0 40 12.5t38 33.5q11 12 21 4l51 -43q9 -9 0 -22z" />
    <glyph glyph-name="exclamdown" unicode="&#xa1;" horiz-adv-x="292" 
d="M197 527q33 0 54.5 -21t21.5 -53q0 -21 -8.5 -39t-22.5 -31.5t-32 -21.5t-38 -8q-32 0 -54 21t-22 53q0 21 8.5 39t22.5 31.5t32 21.5t38 8zM173 -160q-1 -9 -5.5 -16t-19.5 -7h-102q-14 0 -18 6.5t-2 16.5l81 429q2 12 8 16.5t20 4.5h58q20 0 19 -19z" />
    <glyph glyph-name="cent" unicode="&#xa2;" horiz-adv-x="633" 
d="M288 -10q-93 5 -140.5 58.5t-47.5 158.5q0 81 18.5 143t53 103.5t83 63t108.5 21.5h1l12 81q2 9 5.5 11.5t10.5 2.5h30q8 0 10.5 -2.5t0.5 -11.5l-12 -85q55 -8 99 -28q9 -5 10.5 -10.5t-2.5 -17.5l-28 -79q-3 -11 -10.5 -11.5t-20.5 3.5q-35 10 -66 14l-40 -285
q25 2 48.5 8.5t41.5 12.5q11 4 16 3t8 -12l27 -77q3 -10 1.5 -16t-13.5 -12q-35 -18 -73.5 -26.5t-73.5 -10.5l-12 -85q-2 -9 -4.5 -11.5t-10.5 -2.5h-30q-7 0 -10.5 2.5t-1.5 11.5zM247 221q0 -38 12.5 -64.5t46.5 -34.5l40 283q-27 -6 -45.5 -22.5t-30.5 -41t-17.5 -55.5
t-5.5 -65z" />
    <glyph glyph-name="sterling" unicode="&#xa3;" horiz-adv-x="634" 
d="M319 289q-2 -18 -4.5 -39.5t-9 -43.5t-17.5 -43.5t-29 -39.5h275q11 0 14.5 -3t1.5 -17l-12 -85q-2 -11 -5.5 -14.5t-14.5 -3.5h-415q-21 0 -34 9.5t-10 29.5l4 29q3 20 10.5 32.5t25.5 29.5q42 35 56 74.5t19 84.5h-65q-11 0 -14 3.5t-1 14.5l8 55q2 11 5.5 15.5
t14.5 4.5h53q-2 17 -3.5 36t-1.5 39q0 116 67 170t181 54q49 0 96.5 -11t80.5 -30q10 -6 10 -11.5t-6 -22.5l-25 -62q-6 -14 -12 -16t-20 3q-57 22 -113 22q-38 0 -59 -12.5t-31.5 -35t-12.5 -54t-1 -69.5h152q11 0 13.5 -3t0.5 -17l-8 -55q-2 -11 -5.5 -14.5t-13.5 -3.5
h-145z" />
    <glyph glyph-name="currency" unicode="&#xa4;" horiz-adv-x="557" 
d="M294 498q30 0 58.5 -7.5t51.5 -21.5q4 5 12 12.5t16 15.5t14.5 14t8.5 8q15 19 35 -1l44 -41q19 -20 3 -37l-54 -53q29 -49 29 -108q0 -61 -29 -110l11 -11t15 -14.5t15 -15t11 -11.5q18 -15 -1 -37l-44 -44q-18 -16 -35 2l-52 51q-24 -14 -52 -22t-57 -8t-55 7.5
t-49 20.5l-11.5 -11.5t-15.5 -16t-15.5 -16.5t-11.5 -11q-8 -8 -17.5 -7.5t-17.5 9.5l-8.5 8.5t-14 13.5t-14 13.5t-7.5 8.5q-11 10 -10 18.5t11 17.5q3 4 10 10.5t14.5 14l14.5 14.5l11 11q-33 49 -33 115q0 65 31 111l-47 47q-9 9 -10.5 17.5t10.5 19.5q4 3 16 15.5
t29 28.5q9 10 17 10t16 -8l49 -50q48 28 108 28zM293 383q-22 0 -41.5 -8.5t-34 -23t-22.5 -34t-8 -41.5t8.5 -41.5t22.5 -34t33.5 -23t41.5 -8.5t41.5 8.5t34 23t23 34t8.5 41.5t-8.5 41.5t-23 34t-34 23t-41.5 8.5z" />
    <glyph glyph-name="yen" unicode="&#xa5;" horiz-adv-x="634" 
d="M104 318q-11 0 -12.5 4t0.5 14l6 44q1 9 3.5 13.5t13.5 4.5h85l-91 256q-2 5 1.5 11.5t14.5 6.5h115q14 0 18.5 -4t7.5 -15l40 -138l35 -134h5l72 135l78 139q5 9 11.5 13t17.5 4h123q14 0 13 -6t-5 -12l-160 -256h91q10 0 11.5 -4.5t-0.5 -13.5l-6 -44q-2 -10 -4 -14
t-13 -4h-471zM568 270q11 0 12.5 -4.5t-0.5 -13.5l-7 -44q-2 -10 -3.5 -14t-12.5 -4h-164l-24 -173q-2 -11 -6 -14t-18 -3h-103q-20 0 -17 17l25 173h-164q-11 0 -13 4t0 14l7 44q2 9 4 13.5t13 4.5h471z" />
    <glyph glyph-name="brokenbar" unicode="&#xa6;" horiz-adv-x="268" 
d="M226 -144q0 -12 -3.5 -16.5t-17.5 -4.5h-77q-20 0 -20 21v409q0 19 20 19h77q14 0 17.5 -4t3.5 -15v-409zM226 356q0 -11 -3.5 -15.5t-17.5 -4.5h-77q-20 0 -20 20v411q0 20 20 20h77q14 0 17.5 -4.5t3.5 -15.5v-411z" />
    <glyph glyph-name="section" unicode="&#xa7;" horiz-adv-x="604" 
d="M264 423q-12 -9 -21 -24.5t-9 -32.5q0 -21 23.5 -51.5t72.5 -79.5q11 -11 24.5 -24t24.5 -23q15 13 20.5 28t5.5 28q0 28 -25 57t-64 70q-32 30 -52 52zM395 627q-36 0 -56.5 -12t-20.5 -38q0 -13 7 -25.5t18 -25.5t25 -26.5t29 -27.5q32 -31 58.5 -58t45.5 -52
t29.5 -49.5t10.5 -50.5q0 -39 -26.5 -79t-71.5 -68q11 -20 16 -39t5 -40q-1 -29 -14 -58t-40 -51.5t-68.5 -36.5t-98.5 -14q-43 0 -87.5 9t-79.5 29q-7 5 -7 10t5 15l28 65q5 10 9 11.5t14 -3.5q21 -9 50 -17t56 -8q49 0 67 18t18 38q0 21 -20.5 45.5t-47.5 47.5
q-30 26 -57 51.5t-47.5 51.5t-32.5 53t-12 55q0 41 25 83.5t75 69.5q-11 19 -16 39t-5 38q0 72 52.5 115t155.5 43q32 0 75.5 -5.5t80.5 -24.5q9 -5 9.5 -10t-4.5 -17l-24 -62q-5 -11 -9.5 -13t-15.5 3q-26 10 -51.5 15.5t-51.5 5.5z" />
    <glyph glyph-name="dieresis" unicode="&#xa8;" horiz-adv-x="548" 
d="M467 740q26 0 44 -18.5t18 -45.5q0 -16 -7.5 -31t-19 -26.5t-26.5 -18.5t-30 -7q-27 0 -45 18.5t-18 44.5q0 17 7 32t19 26.5t27 18.5t31 7zM267 740q26 0 44.5 -18.5t18.5 -46.5q0 -16 -7.5 -30.5t-19.5 -26t-27 -18.5t-30 -7q-26 0 -44 18.5t-18 44.5q0 17 7 32
t19 26.5t27 18.5t30 7z" />
    <glyph glyph-name="copyright" unicode="&#xa9;" horiz-adv-x="836" 
d="M453 121q-45 0 -80.5 16.5t-61 46.5t-39 70.5t-13.5 88.5q0 50 14 91t39.5 70.5t61 45.5t78.5 16q45 0 83.5 -18t59.5 -44q5 -8 4 -10.5t-7 -8.5l-30 -32q-5 -5 -9.5 -7t-12.5 6q-18 16 -40.5 26t-46.5 10q-52 0 -77 -39.5t-25 -105.5q0 -63 25 -103t76 -40q25 0 46.5 10
t37.5 25q10 10 13.5 8.5t11.5 -8.5l35 -32q9 -8 0 -19q-20 -24 -58.5 -43.5t-84.5 -19.5zM812 350q0 -77 -28 -143t-76.5 -114.5t-115 -76t-144.5 -27.5t-144 27.5t-115 76t-76.5 114.5t-27.5 143t27.5 143t76.5 114.5t115 76t144 27.5t144.5 -27.5t115 -76t76.5 -114.5
t28 -143zM740 350q0 63 -22 116.5t-61 92.5t-92.5 61t-116.5 22t-116.5 -22t-92.5 -61t-61 -92.5t-22 -116.5q0 -64 22 -118t61 -93t92.5 -60.5t116.5 -21.5t116.5 21.5t92.5 60.5t61 93t22 118z" />
    <glyph glyph-name="ordfeminine" unicode="&#xaa;" horiz-adv-x="401" 
d="M258 530q-33 0 -58 -26.5t-25 -91.5q0 -32 14 -46t43 -14q8 0 20.5 2t23.5 4q5 42 11 84.5t13 82.5q-12 3 -23 4t-19 1zM209 258q-84 0 -117 37.5t-33 101.5q0 225 207 225q22 0 56.5 -2.5t73.5 -12.5q16 -5 18 -12t1 -16q-2 -15 -8 -54.5t-12 -84t-11.5 -84t-7.5 -54.5
q-2 -8 -4.5 -11.5t-11.5 -7.5q-19 -8 -40 -12.5t-41.5 -7.5t-39 -4t-30.5 -1z" />
    <glyph glyph-name="guillemotleft" unicode="&#xab;" horiz-adv-x="559" 
d="M66 254q2 12 8 23t14 22l107 149q10 13 18.5 18t28.5 5h89q9 0 11.5 -6.5t-4.5 -15.5l-140 -196l92 -203q5 -11 -0.5 -16.5t-16.5 -5.5h-88q-21 0 -27.5 5t-11.5 16l-70 162q-5 11 -8.5 22.5t-1.5 20.5zM271 254q2 12 8.5 23t14.5 22l107 149q9 13 17.5 18t29.5 5h88
q10 0 12 -6.5t-5 -15.5l-140 -196l92 -203q5 -11 0 -16.5t-16 -5.5h-90q-20 0 -26.5 5t-11.5 16l-70 162q-5 11 -8.5 22.5t-1.5 20.5z" />
    <glyph glyph-name="logicalnot" unicode="&#xac;" horiz-adv-x="634" 
d="M553 110q-2 -11 -6 -15.5t-18 -4.5h-80q-20 0 -17 20l24 174h-351q-11 0 -15 4.5t-2 16.5l11 77q2 14 7 18t16 4h452q11 0 15 -4t2 -18z" />
    <glyph glyph-name="sfthyphen" unicode="&#xad;" horiz-adv-x="385" 
d="M339 251q-3 -21 -20 -21h-247q-18 0 -15 21l13 90q2 13 5.5 17t14.5 4h247q11 0 14 -4t1 -17l-13 -90v0z" />
    <glyph glyph-name="registered" unicode="&#xae;" horiz-adv-x="582" 
d="M559 478q0 -50 -19 -92.5t-51 -74t-75.5 -49t-92.5 -17.5q-51 0 -94.5 17.5t-75.5 49t-50 74t-18 92.5q0 51 18.5 94t51 75t76.5 50t94 18q51 0 94 -18t74.5 -50t49.5 -75.5t18 -93.5zM504 479q0 39 -14 73.5t-38.5 59.5t-58 39.5t-72.5 14.5t-72.5 -14.5t-58.5 -39.5
t-39 -59.5t-14 -73.5t14 -73t38.5 -59t58.5 -39.5t73 -14.5t72.5 14t58 38.5t38.5 58.5t14 75zM435 361q1 -4 0.5 -7t-6.5 -3h-43q-5 0 -8.5 1t-5.5 8q-1 4 -3.5 13t-5 18.5t-5 18.5t-3.5 14q-8 32 -39 32h-33v-96q0 -6 -2 -7.5t-8 -1.5h-41q-9 0 -9 9v229q0 25 26 25h88
q42 0 64 -21.5t22 -56.5q0 -20 -10 -38t-29 -26v-1q16 -5 22.5 -15t9.5 -23zM363 532q0 11 -6.5 20t-24.5 9h-49v-57h48q16 0 24 8t8 20z" />
    <glyph glyph-name="macron" unicode="&#xaf;" horiz-adv-x="385" 
d="M404 604q-3 -21 -22 -21h-262q-20 0 -17 21l9 60q2 14 7 17.5t16 3.5h262q11 0 14.5 -3.5t1.5 -17.5l-9 -60v0z" />
    <glyph glyph-name="degree" unicode="&#xb0;" horiz-adv-x="461" 
d="M431 539q0 -36 -13 -66t-35.5 -52t-53 -34t-66.5 -12q-35 0 -65.5 12t-53 34t-35 52t-12.5 66q0 35 12.5 65t35 51.5t53 34t66.5 12.5q35 0 65.5 -12.5t53 -34t35.5 -51.5t13 -65zM346 539q0 36 -23 59t-59 23q-35 0 -58 -23t-23 -59q0 -38 23 -61.5t58 -23.5
q36 0 59 23.5t23 61.5z" />
    <glyph glyph-name="plusminus" unicode="&#xb1;" horiz-adv-x="634" 
d="M537 19q-3 -20 -23 -20h-449q-11 0 -14.5 4.5t-2.5 15.5l12 81q2 13 6.5 16.5t15.5 3.5h450q11 0 15 -3.5t2 -16.5zM590 368q-3 -21 -24 -21h-160l-24 -173q-2 -12 -6 -16.5t-18 -4.5h-89q-21 0 -18 21l24 173h-161q-19 0 -16 21l11 78q2 14 7 18t16 4h161l24 173
q3 21 22 21h90q14 0 17 -4.5t1 -16.5l-24 -173h161q11 0 15 -4t2 -18z" />
    <glyph glyph-name="twosuperior" unicode="&#xb2;" horiz-adv-x="453" 
d="M266 676q-24 0 -52.5 -8.5t-53.5 -22.5q-9 -5 -15 -5t-11 9l-26 47q-4 8 -3 13.5t12 12.5q35 24 78.5 36.5t81.5 12.5q30 0 56 -6t45.5 -18t30.5 -31.5t11 -46.5t-9 -47t-25 -36.5t-36.5 -30t-42.5 -26.5q-29 -18 -59 -37t-53 -46h177q14 0 15.5 -3t-0.5 -14l-7 -53
q-2 -11 -5 -15t-14 -4h-250q-25 0 -39 10.5t-14 35.5q0 27 18.5 54t46.5 52t60 46.5t58 35.5q37 20 49.5 32.5t12.5 27.5q0 10 -8 17.5t-29 7.5z" />
    <glyph glyph-name="threesuperior" unicode="&#xb3;" horiz-adv-x="453" 
d="M210 352q-38 0 -77 10t-66 29q-10 7 -10.5 12.5t6.5 15.5l29 51q5 7 10 6.5t15 -5.5q21 -12 46 -19.5t49 -7.5q38 0 54.5 16t16.5 36q0 15 -13 25.5t-39 10.5h-20q-15 0 -20 5t-3 17l5 34q2 11 7 16.5t17 5.5h21q25 0 39.5 10t14.5 28q0 16 -14 21.5t-31 5.5
q-20 0 -43.5 -6t-45.5 -17q-11 -5 -18.5 -7t-12.5 7l-25 48q-4 8 -2.5 14t12.5 12q35 23 79 33t80 10q24 0 48 -5.5t43.5 -17t31.5 -30t12 -44.5t-15.5 -53t-50.5 -44l-1 -3q32 -11 43.5 -35.5t11.5 -49.5q0 -31 -14 -56t-38.5 -42.5t-58 -27t-73.5 -9.5z" />
    <glyph glyph-name="acute" unicode="&#xb4;" horiz-adv-x="510" 
d="M285 572q-13 5 -25.5 9.5t-25.5 9.5q-9 3 -9 8t4 12q23 44 45.5 87t45.5 87q9 17 23 12l98 -26q8 -2 9 -7.5t-3 -10.5q-35 -43 -69.5 -86t-69.5 -86q-7 -9 -11 -10.5t-12 1.5z" />
    <glyph glyph-name="mu" unicode="&#xb5;" horiz-adv-x="582" 
d="M231 526q14 0 17.5 -4t1.5 -15l-44 -312q-3 -24 -1 -41t12.5 -27t32 -14.5t57.5 -4.5q9 0 25 1t37 4l54 394q2 11 6 15t18 4h100q20 0 17 -19l-59 -423q-3 -22 -8.5 -37t-15 -24.5t-23.5 -15.5t-35 -10q-12 -2 -28.5 -4t-33.5 -3t-33 -1.5t-26 -0.5q-15 0 -32.5 1
t-34.5 3t-32.5 4.5t-27.5 6.5l-26 -189q-2 -11 -6.5 -14.5t-16.5 -3.5h-96q-11 0 -16 3.5t-3 14.5l98 693q2 11 6.5 15t15.5 4h100v0z" />
    <glyph glyph-name="mu" unicode="&#x3bc;" horiz-adv-x="582" 
d="M231 526q14 0 17.5 -4t1.5 -15l-44 -312q-3 -24 -1 -41t12.5 -27t32 -14.5t57.5 -4.5q9 0 25 1t37 4l54 394q2 11 6 15t18 4h100q20 0 17 -19l-59 -423q-3 -22 -8.5 -37t-15 -24.5t-23.5 -15.5t-35 -10q-12 -2 -28.5 -4t-33.5 -3t-33 -1.5t-26 -0.5q-15 0 -32.5 1
t-34.5 3t-32.5 4.5t-27.5 6.5l-26 -189q-2 -11 -6.5 -14.5t-16.5 -3.5h-96q-11 0 -16 3.5t-3 14.5l98 693q2 11 6.5 15t15.5 4h100v0z" />
    <glyph glyph-name="paragraph" unicode="&#xb6;" horiz-adv-x="566" 
d="M472 54q-8 -54 -26 -93t-48.5 -64t-74.5 -37.5t-102 -15.5q-7 0 -11 1.5t-5 12.5l1 77q0 6 4 11t12 6q38 4 62.5 13.5t39.5 24t22 34t11 45.5l87 619q3 14 18 14h84q16 0 16 -14zM245 321q-41 0 -71 12.5t-49.5 34.5t-29.5 52t-10 66q0 51 16.5 91t45 67.5t68 42.5
t84.5 15h83q8 0 10 -3.5t2 -11.5l-49 -351q-2 -9 -5.5 -12t-11.5 -3h-83z" />
    <glyph glyph-name="periodcentered" unicode="&#xb7;" horiz-adv-x="287" 
d="M172 383q35 0 57 -22t22 -54q0 -21 -8.5 -39.5t-23 -33t-33 -22.5t-39.5 -8q-34 0 -56 21.5t-22 54.5q0 21 8.5 39.5t22.5 33t33 22.5t39 8z" />
    <glyph glyph-name="cedilla" unicode="&#xb8;" horiz-adv-x="500" 
d="M241 -54q34 -2 56 -10.5t34.5 -21.5t17.5 -28.5t5 -31.5q0 -20 -9.5 -39.5t-28 -34.5t-46 -24t-63.5 -9q-31 0 -63 7t-50 15q-7 3 -7.5 7t3.5 14l14 36q5 11 8 11.5t10 -1.5q18 -7 34.5 -10.5t34.5 -3.5q24 0 39 8t17 27q1 17 -14.5 23.5t-38.5 6.5q-17 0 -22.5 0.5
t-9.5 5.5q-6 5 -3.5 13t7.5 17l54 105q2 2 4.5 5t8.5 3h45q8 0 7 -3.5t-2 -5.5z" />
    <glyph glyph-name="onesuperior" unicode="&#xb9;" horiz-adv-x="453" 
d="M359 376q-2 -11 -5.5 -15t-15.5 -4h-231q-12 0 -14.5 3.5t-0.5 14.5l7 54q2 11 6 14t15 3h57l30 218l-59 -11q-11 -2 -14.5 2t-1.5 12l7 51q2 9 5 14.5t14 8.5l112 28q28 7 44.5 1t12.5 -37l-39 -287h63q12 0 15 -3t1 -14z" />
    <glyph glyph-name="ordmasculine" unicode="&#xba;" horiz-adv-x="398" 
d="M255 622q78 0 116.5 -39t38.5 -111q0 -49 -13.5 -88.5t-39 -67.5t-62 -43t-81.5 -15q-79 0 -117 37t-38 106q0 54 14.5 95t40.5 69t62 42.5t79 14.5zM248 528q-35 0 -55 -32t-20 -85q0 -29 11.5 -44t37.5 -15q18 0 32 9.5t23.5 25t14.5 36.5t5 45q0 27 -11.5 43.5
t-37.5 16.5z" />
    <glyph glyph-name="guillemotright" unicode="&#xbb;" horiz-adv-x="559" 
d="M515 254q-2 -9 -7.5 -20.5t-13.5 -22.5l-117 -162q-8 -11 -16.5 -16t-28.5 -5h-88q-11 0 -14 5.5t5 16.5l148 203l-85 196q-5 9 0 15.5t14 6.5h89q20 0 27 -5t12 -18l67 -149q4 -11 7 -22t1 -23zM310 254q-2 -9 -8 -20.5t-14 -22.5l-116 -162q-8 -11 -16 -16t-28 -5h-90
q-11 0 -14 5.5t6 16.5l147 203l-85 196q-4 9 1 15.5t14 6.5h89q20 0 27 -5t12 -18l66 -149q5 -11 8 -22t1 -23z" />
    <glyph glyph-name="onequarter" unicode="&#xbc;" horiz-adv-x="950" 
d="M394 286q-2 -11 -5.5 -15t-15.5 -4h-231q-12 0 -14.5 3.5t-0.5 14.5l7 54q2 11 6 14t15 3h57l30 218l-59 -11q-11 -2 -14.5 2t-1.5 12l7 51q2 9 5 14.5t14 8.5l112 28q28 7 44.5 1t12.5 -37l-39 -287h63q12 0 15 -3t1 -14zM324 -14q-7 -9 -14.5 -13.5t-21.5 -4.5h-50
q-11 0 -12 5.5t4 13.5l501 704q5 8 9 11.5t15 3.5h57q9 0 12 -5t-4 -15zM875 94q-1 -8 -4 -12.5t-14 -4.5h-37l-8 -59q-2 -13 -7.5 -15.5t-14.5 -2.5h-73q-8 0 -12 3.5t-2 14.5l8 58h-166q-8 0 -15.5 0.5t-13.5 4.5t-9 11.5t-1 21.5l3 21q2 13 7 23.5t16 21.5l195 201
q12 12 26 22t40 10h34q23 0 30.5 -8.5t4.5 -31.5l-29 -208h36q11 0 13 -4t1 -13zM736 277q-8 -8 -22 -22.5t-29 -31t-29.5 -31.5t-21.5 -23v-4h89l17 112h-4z" />
    <glyph glyph-name="onehalf" unicode="&#xbd;" horiz-adv-x="950" 
d="M365 286q-2 -11 -5.5 -15t-15.5 -4h-231q-12 0 -14.5 3.5t-0.5 14.5l7 54q2 11 6 14t15 3h57l30 218l-59 -11q-11 -2 -14.5 2t-1.5 12l7 51q2 9 5 14.5t14 8.5l112 28q28 7 44.5 1t12.5 -37l-39 -287h63q12 0 15 -3t1 -14zM299 -14q-7 -9 -14.5 -13.5t-21.5 -4.5h-50
q-11 0 -12 5.5t4 13.5l501 704q5 8 9 11.5t15 3.5h57q9 0 12 -5t-4 -15zM760 319q-24 0 -52.5 -8.5t-54.5 -22.5q-8 -5 -14 -5t-10 9l-27 47q-4 8 -2.5 13.5t11.5 12.5q35 24 78.5 36.5t80.5 12.5q30 0 56.5 -6t45.5 -18t30 -31.5t11 -46.5t-9 -47t-24.5 -36.5t-36 -30
t-42.5 -26.5q-29 -18 -59 -37t-53 -46h177q14 0 15.5 -3t-0.5 -14l-7 -53q-2 -11 -5.5 -15t-14.5 -4h-249q-26 0 -39.5 10.5t-13.5 35.5q0 27 18.5 54t46.5 52t60 46.5t58 35.5q38 20 49.5 32.5t13.5 27.5q0 10 -8.5 17.5t-29.5 7.5z" />
    <glyph glyph-name="threequarters" unicode="&#xbe;" horiz-adv-x="950" 
d="M248 262q-38 0 -77 10t-66 29q-10 7 -10.5 12.5t6.5 15.5l29 51q5 7 10 6.5t15 -5.5q21 -12 46 -19.5t49 -7.5q38 0 54.5 16t16.5 36q0 15 -13 25.5t-39 10.5h-20q-15 0 -20 5t-3 17l5 34q2 11 7 16.5t17 5.5h21q25 0 39.5 10t14.5 28q0 16 -14 21.5t-31 5.5
q-20 0 -43.5 -6t-45.5 -17q-11 -5 -18.5 -7t-12.5 7l-25 48q-4 8 -2.5 14t12.5 12q35 23 79 33t80 10q24 0 48 -5.5t43.5 -17t31.5 -30t12 -44.5t-15.5 -53t-50.5 -44l-1 -3q32 -11 43.5 -35.5t11.5 -49.5q0 -31 -14 -56t-38.5 -42.5t-58 -27t-73.5 -9.5zM334 -14
q-7 -9 -14.5 -13.5t-21.5 -4.5h-50q-11 0 -12 5.5t4 13.5l501 704q5 8 9 11.5t15 3.5h57q9 0 12 -5t-4 -15zM907 94q-1 -8 -4 -12.5t-14 -4.5h-37l-8 -59q-2 -13 -7.5 -15.5t-14.5 -2.5h-73q-8 0 -12 3.5t-2 14.5l8 58h-166q-8 0 -15.5 0.5t-13.5 4.5t-9 11.5t-1 21.5l3 21
q2 13 7 23.5t16 21.5l195 201q12 12 26 22t40 10h34q23 0 30.5 -8.5t4.5 -31.5l-29 -208h36q11 0 13 -4t1 -13zM768 277q-8 -8 -22 -22.5t-29 -31t-29.5 -31.5t-21.5 -23v-4h89l17 112h-4z" />
    <glyph glyph-name="questiondown" unicode="&#xbf;" horiz-adv-x="530" 
d="M334 353q-29 0 -53 19t-24 55q0 21 8 39.5t22.5 32t33 21t39.5 7.5q33 0 55 -20t22 -52q0 -21 -8.5 -39.5t-23 -32.5t-33 -22t-38.5 -8zM227 -196q-41 0 -78.5 8t-66 25t-45 44.5t-16.5 65.5q0 31 10 58t26 50.5t37 44.5t43 39q20 17 39.5 33.5t35.5 33t27 34.5t14 38
l4 23q2 10 4 12t10 2h108q11 0 12.5 -4t0.5 -12l-5 -32q-4 -32 -17 -56.5t-30.5 -44.5t-38 -37t-39.5 -32q-30 -25 -52.5 -51.5t-22.5 -58.5q0 -20 14 -37t55 -17q34 0 70 11.5t80 36.5q9 5 15 5t10 -8l40 -76q3 -8 2 -13.5t-11 -11.5q-27 -19 -57.5 -33t-61 -23t-60.5 -13
t-56 -4z" />
    <glyph glyph-name="Agrave" unicode="&#xc0;" horiz-adv-x="635" 
d="M427 146h-221l-56 -127q-5 -10 -10.5 -14.5t-19.5 -4.5h-118q-10 0 -12 6t1 14l290 627q15 34 32 44t46 11h59q16 0 27 -1.5t19 -7.5t13 -17t8 -29l114 -627q1 -6 -1.5 -13t-13.5 -7h-111q-11 0 -17.5 2.5t-8.5 13.5zM257 270h152l-18 127l-15 143h-7l-57 -143zM474 802
q8 -8 7.5 -12.5t-5.5 -10.5l-35 -40q-5 -6 -10 -6.5t-13 4.5l-184 119q-13 7 -2 20l65 71q8 6 13 5t10 -6z" />
    <glyph glyph-name="Aacute" unicode="&#xc1;" horiz-adv-x="635" 
d="M427 146h-221l-56 -127q-5 -10 -10.5 -14.5t-19.5 -4.5h-118q-10 0 -12 6t1 14l290 627q15 34 32 44t46 11h59q16 0 27 -1.5t19 -7.5t13 -17t8 -29l114 -627q1 -6 -1.5 -13t-13.5 -7h-111q-11 0 -17.5 2.5t-8.5 13.5zM507 934q6 5 11 6t13 -7l56 -78q5 -6 3 -11.5
t-8 -7.5l-196 -98q-8 -4 -13 -3.5t-10 7.5l-29 44q-4 7 -4.5 11t8.5 12zM257 270h152l-18 127l-15 143h-7l-57 -143z" />
    <glyph glyph-name="Acircumflex" unicode="&#xc2;" horiz-adv-x="635" 
d="M427 146h-221l-56 -127q-5 -10 -10.5 -14.5t-19.5 -4.5h-118q-10 0 -12 6t1 14l290 627q15 34 32 44t46 11h59q16 0 27 -1.5t19 -7.5t13 -17t8 -29l114 -627q1 -6 -1.5 -13t-13.5 -7h-111q-11 0 -17.5 2.5t-8.5 13.5zM257 270h152l-18 127l-15 143h-7l-57 -143zM586 795
q8 -7 6 -12.5t-10 -13.5l-28 -29q-5 -7 -11.5 -6t-15.5 7l-127 76l-143 -75q-8 -5 -13 -5.5t-11 7.5l-22 27q-6 7 -5 12t8 12l140 113q17 13 32.5 20.5t29.5 7.5q17 0 30 -6.5t29 -21.5z" />
    <glyph glyph-name="Atilde" unicode="&#xc3;" horiz-adv-x="635" 
d="M427 146h-221l-56 -127q-5 -10 -10.5 -14.5t-19.5 -4.5h-118q-10 0 -12 6t1 14l290 627q15 34 32 44t46 11h59q16 0 27 -1.5t19 -7.5t13 -17t8 -29l114 -627q1 -6 -1.5 -13t-13.5 -7h-111q-11 0 -17.5 2.5t-8.5 13.5zM257 270h152l-18 127l-15 143h-7l-57 -143zM443 748
q-18 0 -34 6t-31.5 13.5t-31 13.5t-31.5 6q-26 0 -51 -30q-7 -8 -11.5 -10.5t-14.5 3.5l-39 23q-11 6 -11 9.5t5 12.5q24 39 56.5 63t74.5 24q18 0 34 -6t30.5 -13.5t28.5 -14t30 -6.5q24 0 51 35q8 10 10 11.5t10 -2.5l45 -20q9 -5 11 -8.5t-3 -14.5q-46 -95 -128 -95z" />
    <glyph glyph-name="Adieresis" unicode="&#xc4;" horiz-adv-x="635" 
d="M427 146h-221l-56 -127q-5 -10 -10.5 -14.5t-19.5 -4.5h-118q-10 0 -12 6t1 14l290 627q15 34 32 44t46 11h59q16 0 27 -1.5t19 -7.5t13 -17t8 -29l114 -627q1 -6 -1.5 -13t-13.5 -7h-111q-11 0 -17.5 2.5t-8.5 13.5zM257 270h152l-18 127l-15 143h-7l-57 -143zM496 886
q26 0 44 -18.5t18 -45.5q0 -16 -7.5 -31t-19 -26.5t-26.5 -18.5t-30 -7q-27 0 -45 18.5t-18 44.5q0 17 7 32t19 26.5t27 18.5t31 7zM296 886q26 0 44.5 -18.5t18.5 -46.5q0 -16 -7.5 -30.5t-19.5 -26t-27 -18.5t-30 -7q-26 0 -44 18.5t-18 44.5q0 17 7 32t19 26.5t27 18.5
t30 7z" />
    <glyph glyph-name="Aring" unicode="&#xc5;" horiz-adv-x="635" 
d="M427 146h-221l-56 -127q-5 -10 -10.5 -14.5t-19.5 -4.5h-118q-10 0 -12 6t1 14l290 627q15 34 32 44t46 11h59q16 0 27 -1.5t19 -7.5t13 -17t8 -29l114 -627q1 -6 -1.5 -13t-13.5 -7h-111q-11 0 -17.5 2.5t-8.5 13.5zM257 270h152l-18 127l-15 143h-7l-57 -143zM412 883
q-23 0 -38.5 -16.5t-15.5 -42.5q0 -18 10.5 -29t28.5 -11q22 0 39 16t17 42q0 18 -11.5 29.5t-29.5 11.5zM421 952q47 0 76 -27.5t29 -72.5q0 -29 -11.5 -54t-30.5 -43t-44 -28.5t-52 -10.5q-47 0 -75.5 27t-28.5 72q0 29 11 54t29.5 43.5t43.5 29t53 10.5z" />
    <glyph glyph-name="AE" unicode="&#xc6;" horiz-adv-x="897" 
d="M857 21q-2 -11 -6 -16t-15 -5h-293q-45 0 -74.5 11t-46 30.5t-23 46.5t-5.5 59h-188l-59 -128q-4 -10 -9.5 -14.5t-18.5 -4.5h-117q-8 0 -11.5 5t2.5 15l254 541q37 77 88.5 108.5t128.5 31.5h436q11 0 13.5 -4t0.5 -18l-12 -89q-2 -11 -5.5 -15.5t-14.5 -4.5h-218
q-39 0 -55 -18.5t-20 -46.5l-10 -74h265q11 0 13 -4t0 -18l-12 -82q-2 -11 -5.5 -16t-14.5 -5h-264l-15 -111q-5 -35 9.5 -49t46.5 -14h252q11 0 14 -4t1 -18zM257 266h152l34 251q2 17 6.5 33.5t10.5 27.5q-36 0 -55.5 -13.5t-30.5 -34.5l-47 -106z" />
    <glyph glyph-name="Ccedilla" unicode="&#xc7;" horiz-adv-x="624" 
d="M421 710q48 0 98.5 -9.5t94.5 -33.5q11 -6 10 -12.5t-7 -22.5l-29 -68q-6 -14 -12.5 -17t-19.5 2q-35 14 -67 19.5t-65 5.5q-49 0 -86 -21t-61.5 -59.5t-36.5 -91.5t-12 -117q0 -36 6.5 -65.5t22.5 -50.5t42.5 -32t66.5 -11q47 0 85.5 12t71.5 24q15 6 19 3t9 -15l33 -73
q6 -14 2.5 -20.5t-13.5 -11.5q-55 -30 -111 -42t-110 -14l-22 -43q34 -2 56 -10.5t34.5 -21.5t17.5 -28.5t5 -31.5q0 -20 -9.5 -39.5t-28 -34.5t-46 -24t-63.5 -9q-31 0 -63 7t-50 15q-7 3 -7.5 7t3.5 14l14 36q5 11 8 11.5t10 -1.5q18 -7 34.5 -10.5t34.5 -3.5q24 0 39 8
t17 27q1 17 -14.5 23.5t-38.5 6.5q-17 0 -22.5 0.5t-9.5 5.5q-6 5 -3.5 13t7.5 17l35 69q-116 12 -167.5 86t-51.5 196q0 103 26 184t72.5 137t110.5 85.5t141 29.5z" />
    <glyph glyph-name="Egrave" unicode="&#xc8;" horiz-adv-x="594" 
d="M543 23q-2 -12 -7 -17.5t-16 -5.5h-293q-55 0 -87.5 16t-49 42t-19.5 59t2 67l47 332q5 36 16 69t33 59t56.5 41.5t86.5 15.5h283q13 0 16 -5t1 -19l-12 -85q-2 -13 -6.5 -17.5t-16.5 -4.5h-239q-38 0 -53 -18t-18 -44l-11 -77h278q12 0 14.5 -5t0.5 -19l-11 -78
q-2 -12 -6.5 -17.5t-15.5 -5.5h-278l-16 -114q-5 -35 9.5 -47.5t44.5 -12.5h262q13 0 15.5 -4.5t0.5 -19.5zM501 802q8 -8 7.5 -12.5t-5.5 -10.5l-35 -40q-5 -6 -10 -6.5t-13 4.5l-184 119q-13 7 -2 20l65 71q8 6 13 5t10 -6z" />
    <glyph glyph-name="Eacute" unicode="&#xc9;" horiz-adv-x="594" 
d="M543 23q-2 -12 -7 -17.5t-16 -5.5h-293q-55 0 -87.5 16t-49 42t-19.5 59t2 67l47 332q5 36 16 69t33 59t56.5 41.5t86.5 15.5h283q13 0 16 -5t1 -19l-12 -85q-2 -13 -6.5 -17.5t-16.5 -4.5h-239q-38 0 -53 -18t-18 -44l-11 -77h278q12 0 14.5 -5t0.5 -19l-11 -78
q-2 -12 -6.5 -17.5t-15.5 -5.5h-278l-16 -114q-5 -35 9.5 -47.5t44.5 -12.5h262q13 0 15.5 -4.5t0.5 -19.5zM511 934q6 5 11 6t13 -7l56 -78q5 -6 3 -11.5t-8 -7.5l-196 -98q-8 -4 -13 -3.5t-10 7.5l-29 44q-4 7 -4.5 11t8.5 12z" />
    <glyph glyph-name="Ecircumflex" unicode="&#xca;" horiz-adv-x="594" 
d="M543 23q-2 -12 -7 -17.5t-16 -5.5h-293q-55 0 -87.5 16t-49 42t-19.5 59t2 67l47 332q5 36 16 69t33 59t56.5 41.5t86.5 15.5h283q13 0 16 -5t1 -19l-12 -85q-2 -13 -6.5 -17.5t-16.5 -4.5h-239q-38 0 -53 -18t-18 -44l-11 -77h278q12 0 14.5 -5t0.5 -19l-11 -78
q-2 -12 -6.5 -17.5t-15.5 -5.5h-278l-16 -114q-5 -35 9.5 -47.5t44.5 -12.5h262q13 0 15.5 -4.5t0.5 -19.5zM610 795q8 -7 6 -12.5t-10 -13.5l-28 -29q-5 -7 -11.5 -6t-15.5 7l-127 76l-143 -75q-8 -5 -13 -5.5t-11 7.5l-22 27q-6 7 -5 12t8 12l140 113q17 13 32.5 20.5
t29.5 7.5q17 0 30 -6.5t29 -21.5z" />
    <glyph glyph-name="Edieresis" unicode="&#xcb;" horiz-adv-x="594" 
d="M543 23q-2 -12 -7 -17.5t-16 -5.5h-293q-55 0 -87.5 16t-49 42t-19.5 59t2 67l47 332q5 36 16 69t33 59t56.5 41.5t86.5 15.5h283q13 0 16 -5t1 -19l-12 -85q-2 -13 -6.5 -17.5t-16.5 -4.5h-239q-38 0 -53 -18t-18 -44l-11 -77h278q12 0 14.5 -5t0.5 -19l-11 -78
q-2 -12 -6.5 -17.5t-15.5 -5.5h-278l-16 -114q-5 -35 9.5 -47.5t44.5 -12.5h262q13 0 15.5 -4.5t0.5 -19.5zM524 886q26 0 44 -18.5t18 -45.5q0 -16 -7.5 -31t-19 -26.5t-26.5 -18.5t-30 -7q-27 0 -45 18.5t-18 44.5q0 17 7 32t19 26.5t27 18.5t31 7zM324 886
q26 0 44.5 -18.5t18.5 -46.5q0 -16 -7.5 -30.5t-19.5 -26t-27 -18.5t-30 -7q-26 0 -44 18.5t-18 44.5q0 17 7 32t19 26.5t27 18.5t30 7z" />
    <glyph glyph-name="Igrave" unicode="&#xcc;" horiz-adv-x="319" 
d="M211 21q-2 -13 -6.5 -17t-18.5 -4h-103q-12 0 -17.5 4.5t-3.5 16.5l93 658q2 12 8 16.5t18 4.5h103q14 0 18 -4t2 -17zM303 802q8 -8 7.5 -12.5t-5.5 -10.5l-35 -40q-5 -6 -10 -6.5t-13 4.5l-184 119q-13 7 -2 20l65 71q8 6 13 5t10 -6z" />
    <glyph glyph-name="Iacute" unicode="&#xcd;" horiz-adv-x="319" 
d="M211 21q-2 -13 -6.5 -17t-18.5 -4h-103q-12 0 -17.5 4.5t-3.5 16.5l93 658q2 12 8 16.5t18 4.5h103q14 0 18 -4t2 -17zM357 934q6 5 11 6t13 -7l56 -78q5 -6 3 -11.5t-8 -7.5l-196 -98q-8 -4 -13 -3.5t-10 7.5l-29 44q-4 7 -4.5 11t8.5 12z" />
    <glyph glyph-name="Icircumflex" unicode="&#xce;" horiz-adv-x="319" 
d="M211 21q-2 -13 -6.5 -17t-18.5 -4h-103q-12 0 -17.5 4.5t-3.5 16.5l93 658q2 12 8 16.5t18 4.5h103q14 0 18 -4t2 -17zM431 795q8 -7 6 -12.5t-10 -13.5l-28 -29q-5 -7 -11.5 -6t-15.5 7l-127 76l-143 -75q-8 -5 -13 -5.5t-11 7.5l-22 27q-6 7 -5 12t8 12l140 113
q17 13 32.5 20.5t29.5 7.5q17 0 30 -6.5t29 -21.5z" />
    <glyph glyph-name="Idieresis" unicode="&#xcf;" horiz-adv-x="319" 
d="M211 21q-2 -13 -6.5 -17t-18.5 -4h-103q-12 0 -17.5 4.5t-3.5 16.5l93 658q2 12 8 16.5t18 4.5h103q14 0 18 -4t2 -17zM360 889q26 0 44 -18.5t18 -45.5q0 -16 -7.5 -31t-19 -26.5t-26.5 -18.5t-30 -7q-27 0 -45 18.5t-18 44.5q0 17 7 32t19 26.5t27 18.5t31 7zM160 889
q26 0 44.5 -18.5t18.5 -46.5q0 -16 -7.5 -30.5t-19.5 -26t-27 -18.5t-30 -7q-26 0 -44 18.5t-18 44.5q0 17 7 32t19 26.5t27 18.5t30 7z" />
    <glyph glyph-name="Eth" unicode="&#xd0;" horiz-adv-x="676" 
d="M106 0q-36 0 -45.5 15t-4.5 46l34 246h-39q-20 0 -17 21l7 54q2 13 7 17t16 4h40l33 236q5 32 18.5 46.5t48.5 14.5h37t52 0.5t52 0.5h37q74 0 125 -21.5t82.5 -59.5t45.5 -90t14 -112q0 -77 -18 -151.5t-59.5 -134t-108.5 -96t-165 -36.5h-192zM275 568l-23 -165h111
q12 0 15.5 -4t1.5 -17l-7 -54q-3 -21 -23 -21h-112q-2 -14 -5 -37.5t-6.5 -49t-7 -49t-5.5 -37.5h65q58 0 99.5 20.5t68 56.5t38.5 85.5t12 107.5q0 36 -6.5 66.5t-23.5 52t-45.5 33.5t-71.5 12h-75z" />
    <glyph glyph-name="Ntilde" unicode="&#xd1;" horiz-adv-x="722" 
d="M260 471l-63 -450q-2 -13 -6.5 -17t-18.5 -4h-102q-11 0 -16.5 4.5t-3.5 16.5l86 610q5 39 21 54.5t52 15.5h41q15 0 24.5 -1.5t16.5 -6.5t12.5 -14t12.5 -23l127 -287l61 -139h5l63 450q2 12 7 16.5t19 4.5h102q22 0 19 -21l-86 -611q-5 -32 -19.5 -50.5t-52.5 -18.5
h-41q-15 0 -24.5 1.5t-17 6.5t-13 13.5t-11.5 22.5l-129 288l-60 139h-5zM516 755q-18 0 -34 6t-31.5 13.5t-31 13.5t-31.5 6q-26 0 -51 -30q-7 -8 -11.5 -10.5t-14.5 3.5l-39 23q-11 6 -11 9.5t5 12.5q24 39 56.5 63t74.5 24q18 0 34 -6t30.5 -13.5t28.5 -14t30 -6.5
q24 0 51 35q8 10 10 11.5t10 -2.5l45 -20q9 -5 11 -8.5t-3 -14.5q-46 -95 -128 -95z" />
    <glyph glyph-name="Ograve" unicode="&#xd2;" horiz-adv-x="708" 
d="M422 711q66 0 115 -19.5t81.5 -56t49 -88t16.5 -115.5q0 -95 -23 -176t-67.5 -140.5t-110.5 -93t-152 -33.5q-132 0 -195.5 71.5t-63.5 203.5q0 103 25.5 186t72 141t111 89t141.5 31zM409 575q-47 0 -81.5 -26t-57 -68.5t-34 -96.5t-11.5 -110q0 -70 27.5 -109t94.5 -39
q48 0 83 26t57.5 68t33.5 95.5t11 108.5q0 33 -6 60.5t-20.5 47.5t-38 31.5t-58.5 11.5zM517 805q8 -8 7.5 -12.5t-5.5 -10.5l-35 -40q-5 -6 -10 -6.5t-13 4.5l-184 119q-13 7 -2 20l65 71q8 6 13 5t10 -6z" />
    <glyph glyph-name="Oacute" unicode="&#xd3;" horiz-adv-x="708" 
d="M422 711q66 0 115 -19.5t81.5 -56t49 -88t16.5 -115.5q0 -95 -23 -176t-67.5 -140.5t-110.5 -93t-152 -33.5q-132 0 -195.5 71.5t-63.5 203.5q0 103 25.5 186t72 141t111 89t141.5 31zM409 575q-47 0 -81.5 -26t-57 -68.5t-34 -96.5t-11.5 -110q0 -70 27.5 -109t94.5 -39
q48 0 83 26t57.5 68t33.5 95.5t11 108.5q0 33 -6 60.5t-20.5 47.5t-38 31.5t-58.5 11.5zM558 940q6 5 11 6t13 -7l56 -78q5 -6 3 -11.5t-8 -7.5l-196 -98q-8 -4 -13 -3.5t-10 7.5l-29 44q-4 7 -4.5 11t8.5 12z" />
    <glyph glyph-name="Ocircumflex" unicode="&#xd4;" horiz-adv-x="708" 
d="M422 711q66 0 115 -19.5t81.5 -56t49 -88t16.5 -115.5q0 -95 -23 -176t-67.5 -140.5t-110.5 -93t-152 -33.5q-132 0 -195.5 71.5t-63.5 203.5q0 103 25.5 186t72 141t111 89t141.5 31zM409 575q-47 0 -81.5 -26t-57 -68.5t-34 -96.5t-11.5 -110q0 -70 27.5 -109t94.5 -39
q48 0 83 26t57.5 68t33.5 95.5t11 108.5q0 33 -6 60.5t-20.5 47.5t-38 31.5t-58.5 11.5zM626 795q8 -7 6 -12.5t-10 -13.5l-28 -29q-5 -7 -11.5 -6t-15.5 7l-127 76l-143 -75q-8 -5 -13 -5.5t-11 7.5l-22 27q-6 7 -5 12t8 12l140 113q17 13 32.5 20.5t29.5 7.5q17 0 30 -6.5
t29 -21.5z" />
    <glyph glyph-name="Otilde" unicode="&#xd5;" horiz-adv-x="708" 
d="M422 711q66 0 115 -19.5t81.5 -56t49 -88t16.5 -115.5q0 -95 -23 -176t-67.5 -140.5t-110.5 -93t-152 -33.5q-132 0 -195.5 71.5t-63.5 203.5q0 103 25.5 186t72 141t111 89t141.5 31zM409 575q-47 0 -81.5 -26t-57 -68.5t-34 -96.5t-11.5 -110q0 -70 27.5 -109t94.5 -39
q48 0 83 26t57.5 68t33.5 95.5t11 108.5q0 33 -6 60.5t-20.5 47.5t-38 31.5t-58.5 11.5zM508 756q-18 0 -34 6t-31.5 13.5t-31 13.5t-31.5 6q-26 0 -51 -30q-7 -8 -11.5 -10.5t-14.5 3.5l-39 23q-11 6 -11 9.5t5 12.5q24 39 56.5 63t74.5 24q18 0 34 -6t30.5 -13.5t28.5 -14
t30 -6.5q24 0 51 35q8 10 10 11.5t10 -2.5l45 -20q9 -5 11 -8.5t-3 -14.5q-46 -95 -128 -95z" />
    <glyph glyph-name="Odieresis" unicode="&#xd6;" horiz-adv-x="708" 
d="M422 711q66 0 115 -19.5t81.5 -56t49 -88t16.5 -115.5q0 -95 -23 -176t-67.5 -140.5t-110.5 -93t-152 -33.5q-132 0 -195.5 71.5t-63.5 203.5q0 103 25.5 186t72 141t111 89t141.5 31zM409 575q-47 0 -81.5 -26t-57 -68.5t-34 -96.5t-11.5 -110q0 -70 27.5 -109t94.5 -39
q48 0 83 26t57.5 68t33.5 95.5t11 108.5q0 33 -6 60.5t-20.5 47.5t-38 31.5t-58.5 11.5zM570 891q26 0 44 -18.5t18 -45.5q0 -16 -7.5 -31t-19 -26.5t-26.5 -18.5t-30 -7q-27 0 -45 18.5t-18 44.5q0 17 7 32t19 26.5t27 18.5t31 7zM370 891q26 0 44.5 -18.5t18.5 -46.5
q0 -16 -7.5 -30.5t-19.5 -26t-27 -18.5t-30 -7q-26 0 -44 18.5t-18 44.5q0 17 7 32t19 26.5t27 18.5t30 7z" />
    <glyph glyph-name="multiply" unicode="&#xd7;" horiz-adv-x="634" 
d="M102 179q-13 15 4 29l151 136l-112 134q-6 8 -5.5 14.5t10.5 14.5l61 55q11 10 16 9.5t13 -8.5l111 -135l150 136q16 15 28 0l47 -57q8 -10 7 -16t-11 -14l-148 -135l109 -132q8 -9 6.5 -15t-12.5 -16l-60 -55q-17 -14 -29 0l-109 133l-151 -135q-10 -9 -15.5 -9.5
t-13.5 9.5l-47 57v0z" />
    <glyph glyph-name="Oslash" unicode="&#xd8;" horiz-adv-x="708" 
d="M422 711q62 0 108.5 -17.5t79.5 -49.5l51 55q13 16 22 5l19 -17q5 -5 5 -9.5t-8 -12.5l-57 -61q42 -69 42 -172q0 -95 -23 -176t-67.5 -140.5t-110.5 -93t-152 -33.5q-129 0 -195 71l-52 -56q-8 -8 -11.5 -8.5t-8.5 4.5l-19 18q-6 5 -5.5 9t8.5 13l58 63q-34 64 -34 161
q0 103 25.5 186t72 141t111 89t141.5 31zM532 424q0 28 -5 56l-282 -303q28 -51 102 -51q48 0 83 26t57.5 68t33.5 95.5t11 108.5zM409 575q-47 0 -81.5 -26t-57 -68.5t-34 -96.5t-11.5 -110q0 -11 0.5 -21t1.5 -20l278 299q-14 20 -37.5 31.5t-58.5 11.5z" />
    <glyph glyph-name="Ugrave" unicode="&#xd9;" horiz-adv-x="696" 
d="M610 97q-5 -35 -23 -60t-61 -36q-20 -5 -43.5 -7.5t-47 -3.5t-44 -1.5t-33.5 -0.5q-85 0 -142.5 14.5t-89.5 49.5t-40.5 93t3.5 146l53 388q2 12 8 16.5t17 4.5h104q15 0 18.5 -4t1.5 -17l-56 -397q-6 -41 -3.5 -71.5t16.5 -50.5t42.5 -29.5t75.5 -9.5q7 0 19 0.5t26 1
t29.5 2t28.5 4.5l78 550q2 12 7.5 16.5t17.5 4.5h102q15 0 18 -4t1 -17zM515 802q8 -8 7.5 -12.5t-5.5 -10.5l-35 -40q-5 -6 -10 -6.5t-13 4.5l-184 119q-13 7 -2 20l65 71q8 6 13 5t10 -6z" />
    <glyph glyph-name="Uacute" unicode="&#xda;" horiz-adv-x="696" 
d="M610 97q-5 -35 -23 -60t-61 -36q-20 -5 -43.5 -7.5t-47 -3.5t-44 -1.5t-33.5 -0.5q-85 0 -142.5 14.5t-89.5 49.5t-40.5 93t3.5 146l53 388q2 12 8 16.5t17 4.5h104q15 0 18.5 -4t1.5 -17l-56 -397q-6 -41 -3.5 -71.5t16.5 -50.5t42.5 -29.5t75.5 -9.5q7 0 19 0.5t26 1
t29.5 2t28.5 4.5l78 550q2 12 7.5 16.5t17.5 4.5h102q15 0 18 -4t1 -17zM541 934q6 5 11 6t13 -7l56 -78q5 -6 3 -11.5t-8 -7.5l-196 -98q-8 -4 -13 -3.5t-10 7.5l-29 44q-4 7 -4.5 11t8.5 12z" />
    <glyph glyph-name="Ucircumflex" unicode="&#xdb;" horiz-adv-x="696" 
d="M610 97q-5 -35 -23 -60t-61 -36q-20 -5 -43.5 -7.5t-47 -3.5t-44 -1.5t-33.5 -0.5q-85 0 -142.5 14.5t-89.5 49.5t-40.5 93t3.5 146l53 388q2 12 8 16.5t17 4.5h104q15 0 18.5 -4t1.5 -17l-56 -397q-6 -41 -3.5 -71.5t16.5 -50.5t42.5 -29.5t75.5 -9.5q7 0 19 0.5t26 1
t29.5 2t28.5 4.5l78 550q2 12 7.5 16.5t17.5 4.5h102q15 0 18 -4t1 -17zM628 795q8 -7 6 -12.5t-10 -13.5l-28 -29q-5 -7 -11.5 -6t-15.5 7l-127 76l-143 -75q-8 -5 -13 -5.5t-11 7.5l-22 27q-6 7 -5 12t8 12l140 113q17 13 32.5 20.5t29.5 7.5q17 0 30 -6.5t29 -21.5z" />
    <glyph glyph-name="Udieresis" unicode="&#xdc;" horiz-adv-x="696" 
d="M610 97q-5 -35 -23 -60t-61 -36q-20 -5 -43.5 -7.5t-47 -3.5t-44 -1.5t-33.5 -0.5q-85 0 -142.5 14.5t-89.5 49.5t-40.5 93t3.5 146l53 388q2 12 8 16.5t17 4.5h104q15 0 18.5 -4t1.5 -17l-56 -397q-6 -41 -3.5 -71.5t16.5 -50.5t42.5 -29.5t75.5 -9.5q7 0 19 0.5t26 1
t29.5 2t28.5 4.5l78 550q2 12 7.5 16.5t17.5 4.5h102q15 0 18 -4t1 -17zM542 886q26 0 44 -18.5t18 -45.5q0 -16 -7.5 -31t-19 -26.5t-26.5 -18.5t-30 -7q-27 0 -45 18.5t-18 44.5q0 17 7 32t19 26.5t27 18.5t31 7zM342 886q26 0 44.5 -18.5t18.5 -46.5q0 -16 -7.5 -30.5
t-19.5 -26t-27 -18.5t-30 -7q-26 0 -44 18.5t-18 44.5q0 17 7 32t19 26.5t27 18.5t30 7z" />
    <glyph glyph-name="Yacute" unicode="&#xdd;" horiz-adv-x="606" 
d="M330 397l86 148l83 137q6 10 12 14.5t18 4.5h128q14 0 13.5 -6t-3.5 -12l-278 -425l-33 -238q-2 -11 -5.5 -15.5t-16.5 -4.5h-107q-20 0 -17 20l32 236l-162 426q-2 5 1 12t14 7h117q15 0 19 -5t7 -17l46 -139l41 -143h5zM486 934q6 5 11 6t13 -7l56 -78q5 -6 3 -11.5
t-8 -7.5l-196 -98q-8 -4 -13 -3.5t-10 7.5l-29 44q-4 7 -4.5 11t8.5 12z" />
    <glyph glyph-name="Thorn" unicode="&#xde;" horiz-adv-x="625" 
d="M272 587h151q49 0 86.5 -14.5t63 -41t38 -63t12.5 -80.5q0 -19 -4 -45t-15 -53.5t-30.5 -54t-50.5 -48t-75.5 -34.5t-104.5 -13h-129l-16 -118q-2 -13 -7 -17.5t-19 -4.5h-102q-23 0 -20 22l94 665q3 20 23 20h101q14 0 17 -4.5t1 -15.5zM259 455l-27 -191h126
q27 0 47.5 9t34.5 24t21.5 34.5t7.5 41.5q0 14 -3.5 28.5t-13.5 26.5t-26.5 19.5t-41.5 7.5h-125z" />
    <glyph glyph-name="germandbls" unicode="&#xdf;" horiz-adv-x="586" 
d="M268 -29q-18 0 -21.5 3.5t-1.5 15.5l11 79q2 10 5 14t14 6q41 4 66.5 20.5t39.5 39t18.5 47t4.5 45.5q0 38 -17.5 66t-62.5 33q-20 4 -28.5 9.5t-5.5 25.5l5 37q3 18 10.5 26t30.5 10q35 2 59 28.5t24 68.5q0 26 -15 47.5t-54 21.5q-24 0 -41.5 -9t-29.5 -23.5
t-18.5 -33.5t-9.5 -39l-68 -485q-2 -13 -6.5 -18.5t-20.5 -5.5h-94q-23 0 -20 24l66 468q15 117 79.5 179t166.5 62q54 0 93 -13t65 -36.5t38.5 -55t12.5 -67.5q0 -18 -4.5 -39t-16 -42.5t-30.5 -41t-47 -33.5l-1 -4q45 -21 65 -61t20 -97q0 -69 -20 -120.5t-56.5 -85.5
t-88.5 -50t-116 -16z" />
    <glyph glyph-name="agrave" unicode="&#xe0;" horiz-adv-x="581" 
d="M337 537q35 0 89.5 -6t112.5 -21q17 -5 19 -13t0 -19q-17 -114 -31.5 -220t-27.5 -216q-1 -14 -15 -19q-57 -20 -113 -27t-99 -7q-62 0 -104 15t-68 42t-37.5 64.5t-11.5 82.5q0 80 18.5 143.5t54.5 108t89.5 68.5t123.5 24zM330 415q-26 0 -49 -11.5t-41.5 -36.5
t-30 -64.5t-12.5 -94.5q0 -21 5 -38.5t17 -30.5t31.5 -20.5t48.5 -7.5q15 0 34 3.5t35 8.5q6 48 10.5 81.5t9 63.5t9 62t12.5 77q-9 2 -19.5 3.5t-21.5 2.5t-21 1.5t-17 0.5zM435 631q6 -10 4 -14t-9 -8l-45 -29q-7 -4 -11.5 -3.5t-11.5 7.5l-150 161q-5 5 -4.5 10t7.5 8
l93 51q10 5 14 2t8 -9z" />
    <glyph glyph-name="aacute" unicode="&#xe1;" horiz-adv-x="581" 
d="M337 537q35 0 89.5 -6t112.5 -21q17 -5 19 -13t0 -19q-17 -114 -31.5 -220t-27.5 -216q-1 -14 -15 -19q-57 -20 -113 -27t-99 -7q-62 0 -104 15t-68 42t-37.5 64.5t-11.5 82.5q0 80 18.5 143.5t54.5 108t89.5 68.5t123.5 24zM330 415q-26 0 -49 -11.5t-41.5 -36.5
t-30 -64.5t-12.5 -94.5q0 -21 5 -38.5t17 -30.5t31.5 -20.5t48.5 -7.5q15 0 34 3.5t35 8.5q6 48 10.5 81.5t9 63.5t9 62t12.5 77q-9 2 -19.5 3.5t-21.5 2.5t-21 1.5t-17 0.5zM354 572q-13 5 -25.5 9.5t-25.5 9.5q-9 3 -9 8t4 12q23 44 45.5 87t45.5 87q9 17 23 12l98 -26
q8 -2 9 -7.5t-3 -10.5q-35 -43 -69.5 -86t-69.5 -86q-7 -9 -11 -10.5t-12 1.5z" />
    <glyph glyph-name="acircumflex" unicode="&#xe2;" horiz-adv-x="581" 
d="M337 537q35 0 89.5 -6t112.5 -21q17 -5 19 -13t0 -19q-17 -114 -31.5 -220t-27.5 -216q-1 -14 -15 -19q-57 -20 -113 -27t-99 -7q-62 0 -104 15t-68 42t-37.5 64.5t-11.5 82.5q0 80 18.5 143.5t54.5 108t89.5 68.5t123.5 24zM330 415q-26 0 -49 -11.5t-41.5 -36.5
t-30 -64.5t-12.5 -94.5q0 -21 5 -38.5t17 -30.5t31.5 -20.5t48.5 -7.5q15 0 34 3.5t35 8.5q6 48 10.5 81.5t9 63.5t9 62t12.5 77q-9 2 -19.5 3.5t-21.5 2.5t-21 1.5t-17 0.5zM541 622q7 -8 5.5 -13.5t-9.5 -13.5l-30 -25q-14 -10 -27 2l-117 97l-147 -105q-8 -5 -13 -5
t-12 8l-29 30q-5 7 -4 11.5t7 12.5l145 137q17 14 32.5 22.5t29.5 8.5q22 0 35 -7t25 -24z" />
    <glyph glyph-name="atilde" unicode="&#xe3;" horiz-adv-x="581" 
d="M337 537q35 0 89.5 -6t112.5 -21q17 -5 19 -13t0 -19q-17 -114 -31.5 -220t-27.5 -216q-1 -14 -15 -19q-57 -20 -113 -27t-99 -7q-62 0 -104 15t-68 42t-37.5 64.5t-11.5 82.5q0 80 18.5 143.5t54.5 108t89.5 68.5t123.5 24zM330 415q-26 0 -49 -11.5t-41.5 -36.5
t-30 -64.5t-12.5 -94.5q0 -21 5 -38.5t17 -30.5t31.5 -20.5t48.5 -7.5q15 0 34 3.5t35 8.5q6 48 10.5 81.5t9 63.5t9 62t12.5 77q-9 2 -19.5 3.5t-21.5 2.5t-21 1.5t-17 0.5zM415 606q-18 0 -34 6t-31.5 13.5t-31 13.5t-31.5 6q-26 0 -51 -30q-7 -8 -11.5 -10.5t-14.5 3.5
l-39 23q-11 6 -11 9.5t5 12.5q24 39 56.5 63t74.5 24q18 0 34 -6t30.5 -13.5t28.5 -14t30 -6.5q24 0 51 35q8 10 10 11.5t10 -2.5l45 -20q9 -5 11 -8.5t-3 -14.5q-46 -95 -128 -95z" />
    <glyph glyph-name="adieresis" unicode="&#xe4;" horiz-adv-x="581" 
d="M337 537q35 0 89.5 -6t112.5 -21q17 -5 19 -13t0 -19q-17 -114 -31.5 -220t-27.5 -216q-1 -14 -15 -19q-57 -20 -113 -27t-99 -7q-62 0 -104 15t-68 42t-37.5 64.5t-11.5 82.5q0 80 18.5 143.5t54.5 108t89.5 68.5t123.5 24zM330 415q-26 0 -49 -11.5t-41.5 -36.5
t-30 -64.5t-12.5 -94.5q0 -21 5 -38.5t17 -30.5t31.5 -20.5t48.5 -7.5q15 0 34 3.5t35 8.5q6 48 10.5 81.5t9 63.5t9 62t12.5 77q-9 2 -19.5 3.5t-21.5 2.5t-21 1.5t-17 0.5zM469 745q26 0 44 -18.5t18 -45.5q0 -16 -7.5 -31t-19 -26.5t-26.5 -18.5t-30 -7q-27 0 -45 18.5
t-18 44.5q0 17 7 32t19 26.5t27 18.5t31 7zM269 745q26 0 44.5 -18.5t18.5 -46.5q0 -16 -7.5 -30.5t-19.5 -26t-27 -18.5t-30 -7q-26 0 -44 18.5t-18 44.5q0 17 7 32t19 26.5t27 18.5t30 7z" />
    <glyph glyph-name="aring" unicode="&#xe5;" horiz-adv-x="581" 
d="M337 537q35 0 89.5 -6t112.5 -21q17 -5 19 -13t0 -19q-17 -114 -31.5 -220t-27.5 -216q-1 -14 -15 -19q-57 -20 -113 -27t-99 -7q-62 0 -104 15t-68 42t-37.5 64.5t-11.5 82.5q0 80 18.5 143.5t54.5 108t89.5 68.5t123.5 24zM330 415q-26 0 -49 -11.5t-41.5 -36.5
t-30 -64.5t-12.5 -94.5q0 -21 5 -38.5t17 -30.5t31.5 -20.5t48.5 -7.5q15 0 34 3.5t35 8.5q6 48 10.5 81.5t9 63.5t9 62t12.5 77q-9 2 -19.5 3.5t-21.5 2.5t-21 1.5t-17 0.5zM375 736q-23 0 -38.5 -16.5t-15.5 -42.5q0 -18 10.5 -29t28.5 -11q22 0 39 16t17 42
q0 18 -11.5 29.5t-29.5 11.5zM384 805q47 0 76 -27.5t29 -72.5q0 -29 -11.5 -54t-30.5 -43t-44 -28.5t-52 -10.5q-47 0 -75.5 27t-28.5 72q0 29 11 54t29.5 43.5t43.5 29t53 10.5z" />
    <glyph glyph-name="ae" unicode="&#xe6;" horiz-adv-x="842" 
d="M560 -11q-100 0 -149 43q-22 -12 -47 -20t-49.5 -13.5t-48.5 -7.5t-43 -2q-56 0 -91.5 12t-56 32t-28.5 47t-8 56q0 102 61.5 148.5t176.5 46.5q45 0 93 -6q8 20 8 39q0 31 -20.5 44t-58.5 13q-29 0 -67.5 -5t-70.5 -13q-18 -5 -22 12l-16 71q-2 11 1.5 15t11.5 7
q46 16 95.5 23.5t97.5 7.5q49 0 87.5 -12t59.5 -37q32 24 72 36t85 12q95 -1 146 -40.5t51 -107.5q0 -90 -62.5 -133.5t-184.5 -43.5q-19 0 -38.5 1t-41.5 3q-1 -7 -1.5 -12.5t-0.5 -11.5q0 -46 23 -63.5t74 -17.5q28 0 54.5 7t54.5 17q11 4 14.5 3t7.5 -9l32 -74
q3 -9 0 -14t-12 -10q-20 -12 -44.5 -20t-50 -13t-50 -7.5t-44.5 -2.5zM254 104q5 0 16.5 0.5t26.5 3t31.5 7t30.5 12.5q-3 15 -5 29t-2 30q-1 11 -0.5 22.5t2.5 24.5q-15 2 -30 3t-29 1q-23 0 -42.5 -3.5t-34.5 -12.5t-23.5 -24.5t-8.5 -39.5q0 -26 16 -39.5t52 -13.5z
M626 421q-44 0 -72 -26.5t-37 -84.5q11 -2 22 -2h21q39 0 64 4t39.5 12.5t20.5 20.5t6 28q0 19 -14 33.5t-50 14.5z" />
    <glyph glyph-name="ccedilla" unicode="&#xe7;" horiz-adv-x="497" 
d="M323 406q-33 0 -56.5 -14.5t-38.5 -40t-22 -59t-7 -71.5q0 -23 4.5 -41.5t15 -32t28 -21t43.5 -7.5q32 0 62 7t53 15q11 4 16 3t8 -12l27 -77q3 -10 1.5 -16t-13.5 -12q-40 -20 -84 -28t-81 -10l-22 -43q34 -2 56 -10.5t34.5 -21.5t17.5 -28.5t5 -31.5q0 -20 -9.5 -39.5
t-28 -34.5t-46 -24t-63.5 -9q-31 0 -63 7t-50 15q-7 3 -7.5 7t3.5 14l14 36q5 11 8 11.5t10 -1.5q18 -7 34.5 -10.5t34.5 -3.5q24 0 39 8t17 27q1 17 -14.5 23.5t-38.5 6.5q-17 0 -22.5 0.5t-9.5 5.5q-6 5 -3.5 13t7.5 17l35 69q-81 10 -123 63.5t-42 151.5q0 81 18.5 143
t53 103.5t83 63t108.5 21.5q40 0 82.5 -8t74.5 -24q9 -5 10.5 -10.5t-2.5 -17.5l-28 -78q-3 -11 -10.5 -11.5t-20.5 3.5q-25 7 -51 10.5t-47 3.5z" />
    <glyph glyph-name="egrave" unicode="&#xe8;" horiz-adv-x="540" 
d="M320 417q-36 0 -67.5 -24.5t-41.5 -82.5q11 -1 22 -1.5t21 -0.5q39 0 64 3.5t39.5 11t20.5 19t6 27.5q0 19 -13.5 33.5t-50.5 14.5zM254 -11q-95 0 -149.5 50.5t-54.5 153.5q0 87 21 152t58.5 107.5t88 64t110.5 21.5q100 0 148 -40.5t48 -109.5q0 -94 -59.5 -139.5
t-187.5 -45.5q-19 0 -38.5 1t-41.5 4q-7 -53 12 -71.5t75 -19.5q12 0 27.5 2t32 5.5t32.5 8t29 9.5q12 4 16 2.5t8 -9.5l31 -79q7 -14 -11 -24q-20 -12 -45.5 -20t-52 -13.5t-52 -7.5t-45.5 -2zM413 631q6 -10 4 -14t-9 -8l-45 -29q-7 -4 -11.5 -3.5t-11.5 7.5l-150 161
q-5 5 -4.5 10t7.5 8l93 51q10 5 14 2t8 -9z" />
    <glyph glyph-name="eacute" unicode="&#xe9;" horiz-adv-x="540" 
d="M254 -11q-95 0 -149.5 50.5t-54.5 153.5q0 87 21 152t58.5 107.5t88 64t110.5 21.5q100 0 148 -40.5t48 -109.5q0 -94 -59.5 -139.5t-187.5 -45.5q-19 0 -38.5 1t-41.5 4q-7 -53 12 -71.5t75 -19.5q12 0 27.5 2t32 5.5t32.5 8t29 9.5q12 4 16 2.5t8 -9.5l31 -79
q7 -14 -11 -24q-20 -12 -45.5 -20t-52 -13.5t-52 -7.5t-45.5 -2zM349 572q-13 5 -25.5 9.5t-25.5 9.5q-9 3 -9 8t4 12q23 44 45.5 87t45.5 87q9 17 23 12l98 -26q8 -2 9 -7.5t-3 -10.5q-35 -43 -69.5 -86t-69.5 -86q-7 -9 -11 -10.5t-12 1.5zM320 417q-36 0 -67.5 -24.5
t-41.5 -82.5q11 -1 22 -1.5t21 -0.5q39 0 64 3.5t39.5 11t20.5 19t6 27.5q0 19 -13.5 33.5t-50.5 14.5z" />
    <glyph glyph-name="ecircumflex" unicode="&#xea;" horiz-adv-x="540" 
d="M320 417q-36 0 -67.5 -24.5t-41.5 -82.5q11 -1 22 -1.5t21 -0.5q39 0 64 3.5t39.5 11t20.5 19t6 27.5q0 19 -13.5 33.5t-50.5 14.5zM254 -11q-95 0 -149.5 50.5t-54.5 153.5q0 87 21 152t58.5 107.5t88 64t110.5 21.5q100 0 148 -40.5t48 -109.5q0 -94 -59.5 -139.5
t-187.5 -45.5q-19 0 -38.5 1t-41.5 4q-7 -53 12 -71.5t75 -19.5q12 0 27.5 2t32 5.5t32.5 8t29 9.5q12 4 16 2.5t8 -9.5l31 -79q7 -14 -11 -24q-20 -12 -45.5 -20t-52 -13.5t-52 -7.5t-45.5 -2zM540 622q7 -8 5.5 -13.5t-9.5 -13.5l-30 -25q-14 -10 -27 2l-117 97l-147 -105
q-8 -5 -13 -5t-12 8l-29 30q-5 7 -4 11.5t7 12.5l145 137q17 14 32.5 22.5t29.5 8.5q22 0 35 -7t25 -24z" />
    <glyph glyph-name="edieresis" unicode="&#xeb;" horiz-adv-x="540" 
d="M320 417q-36 0 -67.5 -24.5t-41.5 -82.5q11 -1 22 -1.5t21 -0.5q39 0 64 3.5t39.5 11t20.5 19t6 27.5q0 19 -13.5 33.5t-50.5 14.5zM254 -11q-95 0 -149.5 50.5t-54.5 153.5q0 87 21 152t58.5 107.5t88 64t110.5 21.5q100 0 148 -40.5t48 -109.5q0 -94 -59.5 -139.5
t-187.5 -45.5q-19 0 -38.5 1t-41.5 4q-7 -53 12 -71.5t75 -19.5q12 0 27.5 2t32 5.5t32.5 8t29 9.5q12 4 16 2.5t8 -9.5l31 -79q7 -14 -11 -24q-20 -12 -45.5 -20t-52 -13.5t-52 -7.5t-45.5 -2zM472 745q26 0 44 -18.5t18 -45.5q0 -16 -7.5 -31t-19 -26.5t-26.5 -18.5
t-30 -7q-27 0 -45 18.5t-18 44.5q0 17 7 32t19 26.5t27 18.5t31 7zM272 745q26 0 44.5 -18.5t18.5 -46.5q0 -16 -7.5 -30.5t-19.5 -26t-27 -18.5t-30 -7q-26 0 -44 18.5t-18 44.5q0 17 7 32t19 26.5t27 18.5t30 7z" />
    <glyph glyph-name="igrave" unicode="&#xec;" horiz-adv-x="305" 
d="M200 18q-2 -11 -5.5 -14.5t-17.5 -3.5h-99q-11 0 -15.5 3.5t-2.5 14.5l68 489q2 11 7 14.5t16 3.5h99q14 0 17 -3.5t1 -14.5zM277 631q6 -10 4 -14t-9 -8l-45 -29q-7 -4 -11.5 -3.5t-11.5 7.5l-150 161q-5 5 -4.5 10t7.5 8l93 51q10 5 14 2t8 -9z" />
    <glyph glyph-name="iacute" unicode="&#xed;" horiz-adv-x="305" 
d="M200 18q-2 -11 -5.5 -14.5t-17.5 -3.5h-99q-11 0 -15.5 3.5t-2.5 14.5l68 489q2 11 7 14.5t16 3.5h99q14 0 17 -3.5t1 -14.5zM213 572q-13 5 -25.5 9.5t-25.5 9.5q-9 3 -9 8t4 12q23 44 45.5 87t45.5 87q9 17 23 12l98 -26q8 -2 9 -7.5t-3 -10.5q-35 -43 -69.5 -86
t-69.5 -86q-7 -9 -11 -10.5t-12 1.5z" />
    <glyph glyph-name="icircumflex" unicode="&#xee;" horiz-adv-x="305" 
d="M200 18q-2 -11 -5.5 -14.5t-17.5 -3.5h-99q-11 0 -15.5 3.5t-2.5 14.5l68 489q2 11 7 14.5t16 3.5h99q14 0 17 -3.5t1 -14.5zM403 622q7 -8 5.5 -13.5t-9.5 -13.5l-30 -25q-14 -10 -27 2l-117 97l-147 -105q-8 -5 -13 -5t-12 8l-29 30q-5 7 -4 11.5t7 12.5l145 137
q17 14 32.5 22.5t29.5 8.5q22 0 35 -7t25 -24z" />
    <glyph glyph-name="idieresis" unicode="&#xef;" horiz-adv-x="305" 
d="M200 18q-2 -11 -5.5 -14.5t-17.5 -3.5h-99q-11 0 -15.5 3.5t-2.5 14.5l68 489q2 11 7 14.5t16 3.5h99q14 0 17 -3.5t1 -14.5zM332 740q26 0 44 -18.5t18 -45.5q0 -16 -7.5 -31t-19 -26.5t-26.5 -18.5t-30 -7q-27 0 -45 18.5t-18 44.5q0 17 7 32t19 26.5t27 18.5t31 7z
M132 740q26 0 44.5 -18.5t18.5 -46.5q0 -16 -7.5 -30.5t-19.5 -26t-27 -18.5t-30 -7q-26 0 -44 18.5t-18 44.5q0 17 7 32t19 26.5t27 18.5t30 7z" />
    <glyph glyph-name="eth" unicode="&#xf0;" horiz-adv-x="579" 
d="M463 643q51 -53 71 -124.5t20 -162.5q-1 -30 -5.5 -68.5t-16 -79t-32.5 -79.5t-54.5 -69.5t-80.5 -49t-111 -18.5q-60 0 -100 15.5t-63.5 42t-33 60.5t-10.5 71q-1 67 18 121.5t55.5 93.5t88.5 60t117 21q20 0 40.5 -4t40.5 -13q5 2 6 5q-12 63 -49 111
q-18 -13 -37 -25.5t-38 -25.5q-10 -7 -16 2l-15 25q-2 7 -1.5 9.5t7.5 7.5l65 45q-14 14 -29.5 27t-32.5 25q-9 5 -10 10.5t4 12.5l34 49q6 9 12 10t15 -4q56 -26 102 -65q18 13 36 25.5t36 26.5q6 5 11 6.5t9 -6.5l15 -21q6 -8 4.5 -11t-9.5 -10zM313 360
q-34 0 -56.5 -14.5t-36.5 -38t-20 -52t-6 -55.5q0 -17 3 -33t11.5 -28t23.5 -19.5t39 -7.5q33 0 55.5 14.5t37.5 37.5t22.5 52.5t10.5 58.5q2 15 2.5 30t-0.5 30q-24 15 -46.5 20t-39.5 5z" />
    <glyph glyph-name="ntilde" unicode="&#xf1;" horiz-adv-x="591" 
d="M302 418q-10 0 -27.5 -0.5t-37.5 -4.5l-56 -395q-2 -11 -5.5 -14.5t-17.5 -3.5h-99q-11 0 -16 3.5t-3 14.5l61 429q5 34 20.5 54t50.5 27q10 2 27.5 3.5t38 3t40 2.5t34.5 1q67 0 115.5 -14t77 -44.5t37.5 -80t-1 -120.5l-36 -261q-2 -11 -5.5 -14.5t-17.5 -3.5h-100
q-11 0 -16 3.5t-3 14.5l38 270q4 33 2.5 57t-12.5 40.5t-32.5 24.5t-56.5 8zM395 600q-18 0 -34 6t-31.5 13.5t-31 13.5t-31.5 6q-26 0 -51 -30q-7 -8 -11.5 -10.5t-14.5 3.5l-39 23q-11 6 -11 9.5t5 12.5q24 39 56.5 63t74.5 24q18 0 34 -6t30.5 -13.5t28.5 -14t30 -6.5
q24 0 51 35q8 10 10 11.5t10 -2.5l45 -20q9 -5 11 -8.5t-3 -14.5q-46 -95 -128 -95z" />
    <glyph glyph-name="ograve" unicode="&#xf2;" horiz-adv-x="577" 
d="M334 538q108 0 161.5 -57t53.5 -162q0 -75 -19 -136t-55.5 -104t-89.5 -66.5t-121 -23.5q-109 0 -161.5 53.5t-52.5 153.5q0 82 21 146t58.5 107.5t89.5 66t115 22.5zM321 415q-30 0 -53 -15t-38.5 -42t-23.5 -64t-8 -81q0 -50 19.5 -75.5t62.5 -25.5q31 0 54 16.5
t38 44.5t22.5 64.5t7.5 77.5q0 45 -18 72.5t-63 27.5zM410 631q6 -10 4 -14t-9 -8l-45 -29q-7 -4 -11.5 -3.5t-11.5 7.5l-150 161q-5 5 -4.5 10t7.5 8l93 51q10 5 14 2t8 -9z" />
    <glyph glyph-name="oacute" unicode="&#xf3;" horiz-adv-x="577" 
d="M334 538q108 0 161.5 -57t53.5 -162q0 -75 -19 -136t-55.5 -104t-89.5 -66.5t-121 -23.5q-109 0 -161.5 53.5t-52.5 153.5q0 82 21 146t58.5 107.5t89.5 66t115 22.5zM321 415q-30 0 -53 -15t-38.5 -42t-23.5 -64t-8 -81q0 -50 19.5 -75.5t62.5 -25.5q31 0 54 16.5
t38 44.5t22.5 64.5t7.5 77.5q0 45 -18 72.5t-63 27.5zM350 572q-13 5 -25.5 9.5t-25.5 9.5q-9 3 -9 8t4 12q23 44 45.5 87t45.5 87q9 17 23 12l98 -26q8 -2 9 -7.5t-3 -10.5q-35 -43 -69.5 -86t-69.5 -86q-7 -9 -11 -10.5t-12 1.5z" />
    <glyph glyph-name="ocircumflex" unicode="&#xf4;" horiz-adv-x="577" 
d="M334 538q108 0 161.5 -57t53.5 -162q0 -75 -19 -136t-55.5 -104t-89.5 -66.5t-121 -23.5q-109 0 -161.5 53.5t-52.5 153.5q0 82 21 146t58.5 107.5t89.5 66t115 22.5zM321 415q-30 0 -53 -15t-38.5 -42t-23.5 -64t-8 -81q0 -50 19.5 -75.5t62.5 -25.5q31 0 54 16.5
t38 44.5t22.5 64.5t7.5 77.5q0 45 -18 72.5t-63 27.5zM535 622q7 -8 5.5 -13.5t-9.5 -13.5l-30 -25q-14 -10 -27 2l-117 97l-147 -105q-8 -5 -13 -5t-12 8l-29 30q-5 7 -4 11.5t7 12.5l145 137q17 14 32.5 22.5t29.5 8.5q22 0 35 -7t25 -24z" />
    <glyph glyph-name="otilde" unicode="&#xf5;" horiz-adv-x="577" 
d="M334 538q108 0 161.5 -57t53.5 -162q0 -75 -19 -136t-55.5 -104t-89.5 -66.5t-121 -23.5q-109 0 -161.5 53.5t-52.5 153.5q0 82 21 146t58.5 107.5t89.5 66t115 22.5zM321 415q-30 0 -53 -15t-38.5 -42t-23.5 -64t-8 -81q0 -50 19.5 -75.5t62.5 -25.5q31 0 54 16.5
t38 44.5t22.5 64.5t7.5 77.5q0 45 -18 72.5t-63 27.5zM420 606q-18 0 -34 6t-31.5 13.5t-31 13.5t-31.5 6q-26 0 -51 -30q-7 -8 -11.5 -10.5t-14.5 3.5l-39 23q-11 6 -11 9.5t5 12.5q24 39 56.5 63t74.5 24q18 0 34 -6t30.5 -13.5t28.5 -14t30 -6.5q24 0 51 35q8 10 10 11.5
t10 -2.5l45 -20q9 -5 11 -8.5t-3 -14.5q-46 -95 -128 -95z" />
    <glyph glyph-name="odieresis" unicode="&#xf6;" horiz-adv-x="577" 
d="M334 538q108 0 161.5 -57t53.5 -162q0 -75 -19 -136t-55.5 -104t-89.5 -66.5t-121 -23.5q-109 0 -161.5 53.5t-52.5 153.5q0 82 21 146t58.5 107.5t89.5 66t115 22.5zM321 415q-30 0 -53 -15t-38.5 -42t-23.5 -64t-8 -81q0 -50 19.5 -75.5t62.5 -25.5q31 0 54 16.5
t38 44.5t22.5 64.5t7.5 77.5q0 45 -18 72.5t-63 27.5zM467 745q26 0 44 -18.5t18 -45.5q0 -16 -7.5 -31t-19 -26.5t-26.5 -18.5t-30 -7q-27 0 -45 18.5t-18 44.5q0 17 7 32t19 26.5t27 18.5t31 7zM267 745q26 0 44.5 -18.5t18.5 -46.5q0 -16 -7.5 -30.5t-19.5 -26t-27 -18.5
t-30 -7q-26 0 -44 18.5t-18 44.5q0 17 7 32t19 26.5t27 18.5t30 7z" />
    <glyph glyph-name="divide" unicode="&#xf7;" horiz-adv-x="634" 
d="M382 630q35 0 57 -21t22 -54q0 -21 -8.5 -39.5t-23 -33t-33 -22.5t-39.5 -8q-33 0 -55 21.5t-22 54.5q0 21 8.5 39.5t22.5 32.5t32.5 22t38.5 8zM326 229q35 0 56.5 -21.5t21.5 -53.5q0 -21 -8.5 -40t-22.5 -33.5t-33 -22.5t-40 -8q-33 0 -54.5 22t-21.5 54
q0 21 8.5 39.5t22.5 33t32.5 22.5t38.5 8zM580 305q-3 -21 -23 -21h-452q-20 0 -17 20l12 80q2 12 6 16t15 4h454q11 0 14.5 -4.5t1.5 -15.5z" />
    <glyph glyph-name="oslash" unicode="&#xf8;" horiz-adv-x="577" 
d="M334 538q105 0 160 -57l47 47q7 6 9.5 6.5t7.5 -4.5l13 -13q5 -5 5 -8.5t-6 -9.5l-51 -51q30 -51 30 -129q0 -75 -19 -136t-55.5 -104t-89.5 -66.5t-121 -23.5q-105 0 -159 51l-46 -45q-10 -10 -16 -2l-14 13q-5 5 -3 9t7 9l47 47q-30 48 -30 125q0 82 21 146t58.5 107.5
t89.5 66t115 22.5zM321 415q-30 0 -53 -15t-38.5 -42t-23.5 -64t-8 -81v-13t1 -12l190 189q-19 38 -68 38zM402 315v9t-1 9l-189 -187q19 -34 68 -34q31 0 54 16.5t38 44.5t22.5 64.5t7.5 77.5z" />
    <glyph glyph-name="ugrave" unicode="&#xf9;" horiz-adv-x="582" 
d="M301 108q10 0 28.5 1t39.5 4l54 394q2 11 6 15t18 4h100q20 0 17 -19l-60 -427q-5 -34 -20.5 -54t-50.5 -28q-12 -2 -30 -4t-38.5 -3.5t-40 -2t-33.5 -0.5q-71 0 -118 13t-73 42.5t-33 77t3 115.5l39 271q2 11 5.5 15t17.5 4h101q20 0 17 -19l-37 -268q-5 -35 -4.5 -59.5
t9.5 -40.5t28.5 -23.5t54.5 -7.5zM408 631q6 -10 4 -14t-9 -8l-45 -29q-7 -4 -11.5 -3.5t-11.5 7.5l-150 161q-5 5 -4.5 10t7.5 8l93 51q10 5 14 2t8 -9z" />
    <glyph glyph-name="uacute" unicode="&#xfa;" horiz-adv-x="582" 
d="M301 108q10 0 28.5 1t39.5 4l54 394q2 11 6 15t18 4h100q20 0 17 -19l-60 -427q-5 -34 -20.5 -54t-50.5 -28q-12 -2 -30 -4t-38.5 -3.5t-40 -2t-33.5 -0.5q-71 0 -118 13t-73 42.5t-33 77t3 115.5l39 271q2 11 5.5 15t17.5 4h101q20 0 17 -19l-37 -268q-5 -35 -4.5 -59.5
t9.5 -40.5t28.5 -23.5t54.5 -7.5zM353 572q-13 5 -25.5 9.5t-25.5 9.5q-9 3 -9 8t4 12q23 44 45.5 87t45.5 87q9 17 23 12l98 -26q8 -2 9 -7.5t-3 -10.5q-35 -43 -69.5 -86t-69.5 -86q-7 -9 -11 -10.5t-12 1.5z" />
    <glyph glyph-name="ucircumflex" unicode="&#xfb;" horiz-adv-x="582" 
d="M301 108q10 0 28.5 1t39.5 4l54 394q2 11 6 15t18 4h100q20 0 17 -19l-60 -427q-5 -34 -20.5 -54t-50.5 -28q-12 -2 -30 -4t-38.5 -3.5t-40 -2t-33.5 -0.5q-71 0 -118 13t-73 42.5t-33 77t3 115.5l39 271q2 11 5.5 15t17.5 4h101q20 0 17 -19l-37 -268q-5 -35 -4.5 -59.5
t9.5 -40.5t28.5 -23.5t54.5 -7.5zM539 622q7 -8 5.5 -13.5t-9.5 -13.5l-30 -25q-14 -10 -27 2l-117 97l-147 -105q-8 -5 -13 -5t-12 8l-29 30q-5 7 -4 11.5t7 12.5l145 137q17 14 32.5 22.5t29.5 8.5q22 0 35 -7t25 -24z" />
    <glyph glyph-name="udieresis" unicode="&#xfc;" horiz-adv-x="582" 
d="M301 108q10 0 28.5 1t39.5 4l54 394q2 11 6 15t18 4h100q20 0 17 -19l-60 -427q-5 -34 -20.5 -54t-50.5 -28q-12 -2 -30 -4t-38.5 -3.5t-40 -2t-33.5 -0.5q-71 0 -118 13t-73 42.5t-33 77t3 115.5l39 271q2 11 5.5 15t17.5 4h101q20 0 17 -19l-37 -268q-5 -35 -4.5 -59.5
t9.5 -40.5t28.5 -23.5t54.5 -7.5zM474 746q26 0 44 -18.5t18 -45.5q0 -16 -7.5 -31t-19 -26.5t-26.5 -18.5t-30 -7q-27 0 -45 18.5t-18 44.5q0 17 7 32t19 26.5t27 18.5t31 7zM274 746q26 0 44.5 -18.5t18.5 -46.5q0 -16 -7.5 -30.5t-19.5 -26t-27 -18.5t-30 -7
q-26 0 -44 18.5t-18 44.5q0 17 7 32t19 26.5t27 18.5t30 7z" />
    <glyph glyph-name="yacute" unicode="&#xfd;" horiz-adv-x="542" 
d="M571 525q8 0 10.5 -4t-2.5 -12l-279 -600q-30 -64 -69.5 -95.5t-108.5 -31.5q-28 0 -61.5 5.5t-62.5 15.5q-14 5 -16 9t2 16l21 76q4 13 9 13.5t17 -2.5q20 -6 40 -9.5t32 -3.5q16 0 28 3t21.5 10t17.5 19t17 31l25 54h-23q-22 0 -31 8t-14 35l-83 444q-3 11 1.5 15
t12.5 4h108q14 0 19 -3.5t6 -14.5l27 -202l22 -174h6l74 177l84 197q5 11 10 15.5t19 4.5h121zM321 572q-13 5 -25.5 9.5t-25.5 9.5q-9 3 -9 8t4 12q23 44 45.5 87t45.5 87q9 17 23 12l98 -26q8 -2 9 -7.5t-3 -10.5q-35 -43 -69.5 -86t-69.5 -86q-7 -9 -11 -10.5t-12 1.5z
" />
    <glyph glyph-name="thorn" unicode="&#xfe;" horiz-adv-x="586" 
d="M153 -187q-2 -11 -6 -14t-17 -3h-101q-11 0 -15.5 3t-2.5 14l125 887q3 20 23 20h101q13 0 16.5 -5t1.5 -16l-25 -171q23 4 45.5 6t43.5 2q61 0 101.5 -16.5t65.5 -46t35.5 -70t10.5 -88.5q0 -68 -17 -127t-51 -102.5t-84 -69t-116 -25.5q-29 0 -53.5 2.5t-53.5 9.5z
M311 411q-14 0 -36.5 -3t-38.5 -8l-38 -273q23 -7 43 -9t35 -2q27 0 51.5 11t42.5 34t29 58.5t11 84.5q0 60 -25.5 83.5t-73.5 23.5z" />
    <glyph glyph-name="ydieresis" unicode="&#xff;" horiz-adv-x="542" 
d="M571 525q8 0 10.5 -4t-2.5 -12l-279 -600q-30 -64 -69.5 -95.5t-108.5 -31.5q-28 0 -61.5 5.5t-62.5 15.5q-14 5 -16 9t2 16l21 76q4 13 9 13.5t17 -2.5q20 -6 40 -9.5t32 -3.5q16 0 28 3t21.5 10t17.5 19t17 31l25 54h-23q-22 0 -31 8t-14 35l-83 444q-3 11 1.5 15
t12.5 4h108q14 0 19 -3.5t6 -14.5l27 -202l22 -174h6l74 177l84 197q5 11 10 15.5t19 4.5h121zM444 743q26 0 44 -18.5t18 -45.5q0 -16 -7.5 -31t-19 -26.5t-26.5 -18.5t-30 -7q-27 0 -45 18.5t-18 44.5q0 17 7 32t19 26.5t27 18.5t31 7zM244 743q26 0 44.5 -18.5
t18.5 -46.5q0 -16 -7.5 -30.5t-19.5 -26t-27 -18.5t-30 -7q-26 0 -44 18.5t-18 44.5q0 17 7 32t19 26.5t27 18.5t30 7z" />
    <glyph glyph-name="Amacron" unicode="&#x100;" horiz-adv-x="635" 
d="M427 146h-221l-56 -127q-5 -10 -10.5 -14.5t-19.5 -4.5h-118q-10 0 -12 6t1 14l290 627q15 34 32 44t46 11h59q16 0 27 -1.5t19 -7.5t13 -17t8 -29l114 -627q1 -6 -1.5 -13t-13.5 -7h-111q-11 0 -17.5 2.5t-8.5 13.5zM257 270h152l-18 127l-15 143h-7l-57 -143zM529 786
q-3 -21 -22 -21h-262q-20 0 -17 21l9 60q2 14 7 17.5t16 3.5h262q11 0 14.5 -3.5t1.5 -17.5z" />
    <glyph glyph-name="amacron" unicode="&#x101;" horiz-adv-x="581" 
d="M337 537q35 0 89.5 -6t112.5 -21q17 -5 19 -13t0 -19q-17 -114 -31.5 -220t-27.5 -216q-1 -14 -15 -19q-57 -20 -113 -27t-99 -7q-62 0 -104 15t-68 42t-37.5 64.5t-11.5 82.5q0 80 18.5 143.5t54.5 108t89.5 68.5t123.5 24zM330 415q-26 0 -49 -11.5t-41.5 -36.5
t-30 -64.5t-12.5 -94.5q0 -21 5 -38.5t17 -30.5t31.5 -20.5t48.5 -7.5q15 0 34 3.5t35 8.5q6 48 10.5 81.5t9 63.5t9 62t12.5 77q-9 2 -19.5 3.5t-21.5 2.5t-21 1.5t-17 0.5zM495 635q-3 -21 -22 -21h-262q-20 0 -17 21l9 60q2 14 7 17.5t16 3.5h262q11 0 14.5 -3.5
t1.5 -17.5z" />
    <glyph glyph-name="Abreve" unicode="&#x102;" horiz-adv-x="635" 
d="M427 146h-221l-56 -127q-5 -10 -10.5 -14.5t-19.5 -4.5h-118q-10 0 -12 6t1 14l290 627q15 34 32 44t46 11h59q16 0 27 -1.5t19 -7.5t13 -17t8 -29l114 -627q1 -6 -1.5 -13t-13.5 -7h-111q-11 0 -17.5 2.5t-8.5 13.5zM257 270h152l-18 127l-15 143h-7l-57 -143zM381 739
q-29 0 -53.5 9.5t-45 26t-37 37t-28.5 43.5q-2 3 -3 8.5t8 13.5l45 38q10 7 13 5t9 -8q27 -32 55 -50t57 -18q12 0 24.5 2t28 9.5t35 21t45.5 37.5q10 8 13.5 7.5t8.5 -5.5l32 -33q9 -9 7 -14t-6 -9q-105 -121 -208 -121z" />
    <glyph glyph-name="abreve" unicode="&#x103;" horiz-adv-x="581" 
d="M337 537q35 0 89.5 -6t112.5 -21q17 -5 19 -13t0 -19q-17 -114 -31.5 -220t-27.5 -216q-1 -14 -15 -19q-57 -20 -113 -27t-99 -7q-62 0 -104 15t-68 42t-37.5 64.5t-11.5 82.5q0 80 18.5 143.5t54.5 108t89.5 68.5t123.5 24zM330 415q-26 0 -49 -11.5t-41.5 -36.5
t-30 -64.5t-12.5 -94.5q0 -21 5 -38.5t17 -30.5t31.5 -20.5t48.5 -7.5q15 0 34 3.5t35 8.5q6 48 10.5 81.5t9 63.5t9 62t12.5 77q-9 2 -19.5 3.5t-21.5 2.5t-21 1.5t-17 0.5zM335 579q-29 0 -53.5 9.5t-45 26t-37 37t-28.5 43.5q-2 3 -3 8.5t8 13.5l45 38q10 7 13 5t9 -8
q27 -32 55 -50t57 -18q12 0 24.5 2t28 9.5t35 21t45.5 37.5q10 8 13.5 7.5t8.5 -5.5l32 -33q9 -9 7 -14t-6 -9q-105 -121 -208 -121z" />
    <glyph glyph-name="Aogonek" unicode="&#x104;" horiz-adv-x="635" 
d="M437 -232q-53 0 -76.5 22t-23.5 54q0 18 8.5 40.5t23 45.5t35 44t44.5 36q-1 1 -1 6l-20 130h-221l-56 -127q-5 -10 -10.5 -14.5t-19.5 -4.5h-118q-10 0 -12 6t1 14l290 627q15 34 32 44t46 11h59q16 0 27 -1.5t19 -7.5t13 -17t8 -29l114 -627q1 -6 -1.5 -13t-13.5 -7
h-65q-42 -36 -58.5 -65.5t-16.5 -52.5q0 -32 45 -32q11 0 27.5 2t30.5 5q8 2 12.5 1t5.5 -10l8 -37q3 -15 -12 -20q-30 -13 -62.5 -18t-61.5 -5zM257 270h152l-18 127l-15 143h-7l-57 -143z" />
    <glyph glyph-name="aogonek" unicode="&#x105;" horiz-adv-x="581" 
d="M393 -201q-53 0 -76.5 22t-23.5 54q0 25 15.5 57.5t41.5 61.5q-22 -2 -41.5 -3.5t-36.5 -1.5q-62 0 -104 15t-68 42t-37.5 64.5t-11.5 82.5q0 80 18.5 143.5t54.5 108t89.5 68.5t123.5 24q35 0 89.5 -6t112.5 -21q17 -5 19 -13t0 -19q-17 -114 -31.5 -220t-27.5 -216
q-1 -14 -15 -19l-27 -9q-31 -30 -44 -55.5t-13 -45.5q0 -32 45 -32q11 0 27.5 2t30.5 5q8 2 12.5 1t5.5 -10l8 -37q3 -15 -12 -20q-30 -13 -62.5 -18t-61.5 -5zM330 415q-26 0 -49 -11.5t-41.5 -36.5t-30 -64.5t-12.5 -94.5q0 -21 5 -38.5t17 -30.5t31.5 -20.5t48.5 -7.5
q15 0 34 3.5t35 8.5q6 48 10.5 81.5t9 63.5t9 62t12.5 77q-9 2 -19.5 3.5t-21.5 2.5t-21 1.5t-17 0.5z" />
    <glyph glyph-name="Cacute" unicode="&#x106;" horiz-adv-x="624" 
d="M421 710q48 0 98.5 -9.5t94.5 -33.5q11 -6 10 -12.5t-7 -22.5l-29 -68q-6 -14 -12.5 -17t-19.5 2q-35 14 -67 19.5t-65 5.5q-49 0 -86 -21t-61.5 -59.5t-36.5 -91.5t-12 -117q0 -36 6.5 -65.5t22.5 -50.5t42.5 -32t66.5 -11q47 0 85.5 12t71.5 24q15 6 19 3t9 -15l33 -73
q6 -14 2.5 -20.5t-13.5 -11.5q-59 -32 -119 -44t-117 -12q-71 0 -121 19.5t-82.5 56t-47.5 89.5t-15 120q0 103 26 184t72.5 137t110.5 85.5t141 29.5zM505 939q6 5 11 6t13 -7l56 -78q5 -6 3 -11.5t-8 -7.5l-196 -98q-8 -4 -13 -3.5t-10 7.5l-29 44q-4 7 -4.5 11t8.5 12z
" />
    <glyph glyph-name="cacute" unicode="&#x107;" horiz-adv-x="497" 
d="M323 406q-33 0 -56.5 -14.5t-38.5 -40t-22 -59t-7 -71.5q0 -23 4.5 -41.5t15 -32t28 -21t43.5 -7.5q32 0 62 7t53 15q11 4 16 3t8 -12l27 -77q3 -10 1.5 -16t-13.5 -12q-45 -23 -95.5 -30.5t-88.5 -7.5q-102 0 -155 54t-53 164q0 81 18.5 143t53 103.5t83 63t108.5 21.5
q40 0 82.5 -8t74.5 -24q9 -5 10.5 -10.5t-2.5 -17.5l-28 -78q-3 -11 -10.5 -11.5t-20.5 3.5q-25 7 -51 10.5t-47 3.5zM317 575q-13 5 -25.5 9.5t-25.5 9.5q-9 3 -9 8t4 12q23 44 45.5 87t45.5 87q9 17 23 12l98 -26q8 -2 9 -7.5t-3 -10.5q-35 -43 -69.5 -86t-69.5 -86
q-7 -9 -11 -10.5t-12 1.5z" />
    <glyph glyph-name="Ccircumflex" unicode="&#x108;" horiz-adv-x="624" 
d="M421 710q48 0 98.5 -9.5t94.5 -33.5q11 -6 10 -12.5t-7 -22.5l-29 -68q-6 -14 -12.5 -17t-19.5 2q-35 14 -67 19.5t-65 5.5q-49 0 -86 -21t-61.5 -59.5t-36.5 -91.5t-12 -117q0 -36 6.5 -65.5t22.5 -50.5t42.5 -32t66.5 -11q47 0 85.5 12t71.5 24q15 6 19 3t9 -15l33 -73
q6 -14 2.5 -20.5t-13.5 -11.5q-59 -32 -119 -44t-117 -12q-71 0 -121 19.5t-82.5 56t-47.5 89.5t-15 120q0 103 26 184t72.5 137t110.5 85.5t141 29.5zM613 795q8 -7 6 -12.5t-10 -13.5l-28 -29q-5 -7 -11.5 -6t-15.5 7l-127 76l-143 -75q-8 -5 -13 -5.5t-11 7.5l-22 27
q-6 7 -5 12t8 12l140 113q17 13 32.5 20.5t29.5 7.5q17 0 30 -6.5t29 -21.5z" />
    <glyph glyph-name="ccircumflex" unicode="&#x109;" horiz-adv-x="497" 
d="M323 406q-33 0 -56.5 -14.5t-38.5 -40t-22 -59t-7 -71.5q0 -23 4.5 -41.5t15 -32t28 -21t43.5 -7.5q32 0 62 7t53 15q11 4 16 3t8 -12l27 -77q3 -10 1.5 -16t-13.5 -12q-45 -23 -95.5 -30.5t-88.5 -7.5q-102 0 -155 54t-53 164q0 81 18.5 143t53 103.5t83 63t108.5 21.5
q40 0 82.5 -8t74.5 -24q9 -5 10.5 -10.5t-2.5 -17.5l-28 -78q-3 -11 -10.5 -11.5t-20.5 3.5q-25 7 -51 10.5t-47 3.5zM507 623q7 -8 5.5 -13.5t-9.5 -13.5l-30 -25q-14 -10 -27 2l-117 97l-147 -105q-8 -5 -13 -5t-12 8l-29 30q-5 7 -4 11.5t7 12.5l145 137q17 14 32.5 22.5
t29.5 8.5q22 0 35 -7t25 -24z" />
    <glyph glyph-name="Cdotaccent" unicode="&#x10a;" horiz-adv-x="624" 
d="M421 710q48 0 98.5 -9.5t94.5 -33.5q11 -6 10 -12.5t-7 -22.5l-29 -68q-6 -14 -12.5 -17t-19.5 2q-35 14 -67 19.5t-65 5.5q-49 0 -86 -21t-61.5 -59.5t-36.5 -91.5t-12 -117q0 -36 6.5 -65.5t22.5 -50.5t42.5 -32t66.5 -11q47 0 85.5 12t71.5 24q15 6 19 3t9 -15l33 -73
q6 -14 2.5 -20.5t-13.5 -11.5q-59 -32 -119 -44t-117 -12q-71 0 -121 19.5t-82.5 56t-47.5 89.5t-15 120q0 103 26 184t72.5 137t110.5 85.5t141 29.5zM424 907q31 0 51 -20.5t20 -50.5q0 -19 -8 -36t-21 -29.5t-30 -19.5t-34 -7q-29 0 -49 19.5t-20 49.5q0 19 7.5 36
t20.5 30t29 20.5t34 7.5z" />
    <glyph glyph-name="cdotaccent" unicode="&#x10b;" horiz-adv-x="497" 
d="M323 406q-33 0 -56.5 -14.5t-38.5 -40t-22 -59t-7 -71.5q0 -23 4.5 -41.5t15 -32t28 -21t43.5 -7.5q32 0 62 7t53 15q11 4 16 3t8 -12l27 -77q3 -10 1.5 -16t-13.5 -12q-45 -23 -95.5 -30.5t-88.5 -7.5q-102 0 -155 54t-53 164q0 81 18.5 143t53 103.5t83 63t108.5 21.5
q40 0 82.5 -8t74.5 -24q9 -5 10.5 -10.5t-2.5 -17.5l-28 -78q-3 -11 -10.5 -11.5t-20.5 3.5q-25 7 -51 10.5t-47 3.5zM342 755q31 0 51 -20.5t20 -50.5q0 -19 -8 -36t-21 -29.5t-30 -19.5t-34 -7q-29 0 -49 19.5t-20 49.5q0 19 7.5 36t20.5 30t29 20.5t34 7.5z" />
    <glyph glyph-name="Ccaron" unicode="&#x10c;" horiz-adv-x="624" 
d="M421 710q48 0 98.5 -9.5t94.5 -33.5q11 -6 10 -12.5t-7 -22.5l-29 -68q-6 -14 -12.5 -17t-19.5 2q-35 14 -67 19.5t-65 5.5q-49 0 -86 -21t-61.5 -59.5t-36.5 -91.5t-12 -117q0 -36 6.5 -65.5t22.5 -50.5t42.5 -32t66.5 -11q47 0 85.5 12t71.5 24q15 6 19 3t9 -15l33 -73
q6 -14 2.5 -20.5t-13.5 -11.5q-59 -32 -119 -44t-117 -12q-71 0 -121 19.5t-82.5 56t-47.5 89.5t-15 120q0 103 26 184t72.5 137t110.5 85.5t141 29.5zM626 901q6 -8 3.5 -13t-10.5 -12l-156 -119q-15 -11 -28 -15.5t-26 -4.5q-11 0 -22 3.5t-21 13.5l-123 124q-6 6 -4.5 11
t8.5 12l29 28q8 8 13 7.5t13 -5.5l123 -76l152 79q9 5 13.5 6t10.5 -7z" />
    <glyph glyph-name="ccaron" unicode="&#x10d;" horiz-adv-x="497" 
d="M323 406q-33 0 -56.5 -14.5t-38.5 -40t-22 -59t-7 -71.5q0 -23 4.5 -41.5t15 -32t28 -21t43.5 -7.5q32 0 62 7t53 15q11 4 16 3t8 -12l27 -77q3 -10 1.5 -16t-13.5 -12q-45 -23 -95.5 -30.5t-88.5 -7.5q-102 0 -155 54t-53 164q0 81 18.5 143t53 103.5t83 63t108.5 21.5
q40 0 82.5 -8t74.5 -24q9 -5 10.5 -10.5t-2.5 -17.5l-28 -78q-3 -11 -10.5 -11.5t-20.5 3.5q-25 7 -51 10.5t-47 3.5zM521 764q8 -8 6 -14t-10 -14l-158 -146q-13 -12 -26 -16.5t-30 -4.5q-11 0 -23 4t-20 15l-119 150q-9 13 4 23l34 28q8 6 13 6.5t12 -5.5l116 -99l149 99
q9 6 14.5 6.5t12.5 -6.5z" />
    <glyph glyph-name="Dcaron" unicode="&#x10e;" horiz-adv-x="676" 
d="M274 567q-15 -109 -30 -217t-31 -217h79q57 0 96.5 22.5t63.5 60.5t34.5 86.5t10.5 101.5q0 36 -7 66t-23.5 51.5t-45 33.5t-71.5 12h-76zM382 700q74 0 124.5 -21.5t82 -59.5t45.5 -89.5t14 -111.5q0 -77 -18 -152t-59.5 -134t-108.5 -95.5t-165 -36.5h-191q-19 0 -30 4
t-16 11.5t-6 19t1 25.5l82 579q5 31 18.5 46t48.5 15h178zM585 901q6 -8 3.5 -13t-10.5 -12l-156 -119q-15 -11 -28 -15.5t-26 -4.5q-11 0 -22 3.5t-21 13.5l-123 124q-6 6 -4.5 11t8.5 12l29 28q8 8 13 7.5t13 -5.5l123 -76l152 79q9 5 13.5 6t10.5 -7z" />
    <glyph glyph-name="dcaron" unicode="&#x10f;" horiz-adv-x="745" 
d="M335 414q-23 0 -47 -9.5t-43.5 -32.5t-32 -61t-12.5 -95q0 -54 24.5 -78.5t72.5 -24.5q14 0 36.5 3t39.5 8l39 279q-23 7 -42.5 9t-34.5 2zM456 711q2 12 6.5 16t17.5 4h99q11 0 15.5 -3.5t2.5 -16.5l-90 -652q-2 -11 -5.5 -17.5t-16.5 -12.5q-51 -23 -109 -31.5
t-108 -8.5q-61 0 -102.5 16t-67 45t-36.5 68t-11 86q0 73 18 135t52.5 106t86 69t119.5 25q27 0 50.5 -2.5t51.5 -8.5zM728 492q-5 -11 -9 -15.5t-14 -4.5h-44q-24 0 -19 18l42 199q2 8 6.5 14t16.5 6h98q14 0 15.5 -6t-0.5 -14z" />
    <glyph glyph-name="Dcroat" unicode="&#x110;" horiz-adv-x="676" 
d="M106 0q-36 0 -45.5 15t-4.5 46l34 246h-39q-20 0 -17 21l7 54q2 13 7 17t16 4h40l33 236q5 32 18.5 46.5t48.5 14.5h37t52 0.5t52 0.5h37q74 0 125 -21.5t82.5 -59.5t45.5 -90t14 -112q0 -77 -18 -151.5t-59.5 -134t-108.5 -96t-165 -36.5h-192zM275 568l-23 -165h111
q12 0 15.5 -4t1.5 -17l-7 -54q-3 -21 -23 -21h-112q-2 -14 -5 -37.5t-6.5 -49t-7 -49t-5.5 -37.5h65q58 0 99.5 20.5t68 56.5t38.5 85.5t12 107.5q0 36 -6.5 66.5t-23.5 52t-45.5 33.5t-71.5 12h-75z" />
    <glyph glyph-name="dcroat" unicode="&#x111;" horiz-adv-x="586" 
d="M263 -11q-61 0 -101.5 15.5t-65 43.5t-35 66.5t-10.5 83.5q0 70 17 129.5t51 102.5t85.5 67t119.5 24q27 0 51 -2t52 -9l10 73h-142q-10 0 -11.5 4.5t0.5 15.5l4 28q2 13 4 17t12 4h143l8 59q2 12 7 16t17 4h100q11 0 15.5 -3.5t2.5 -16.5l-8 -59h37q10 0 12 -4t0 -17
l-4 -28q-2 -11 -5 -15.5t-13 -4.5h-37l-74 -524q-2 -11 -5.5 -17.5t-15.5 -12.5q-51 -23 -111 -31.5t-110 -8.5zM333 397q-26 0 -50.5 -10.5t-43.5 -33t-30 -58t-11 -86.5q0 -54 25.5 -75t73.5 -21q14 0 36.5 3t39.5 8l36 262q-23 7 -42.5 9t-33.5 2z" />
    <glyph glyph-name="Emacron" unicode="&#x112;" horiz-adv-x="594" 
d="M543 23q-2 -12 -7 -17.5t-16 -5.5h-293q-55 0 -87.5 16t-49 42t-19.5 59t2 67l47 332q5 36 16 69t33 59t56.5 41.5t86.5 15.5h283q13 0 16 -5t1 -19l-12 -85q-2 -13 -6.5 -17.5t-16.5 -4.5h-239q-38 0 -53 -18t-18 -44l-11 -77h278q12 0 14.5 -5t0.5 -19l-11 -78
q-2 -12 -6.5 -17.5t-15.5 -5.5h-278l-16 -114q-5 -35 9.5 -47.5t44.5 -12.5h262q13 0 15.5 -4.5t0.5 -19.5zM556 789q-3 -21 -22 -21h-262q-20 0 -17 21l9 60q2 14 7 17.5t16 3.5h262q11 0 14.5 -3.5t1.5 -17.5z" />
    <glyph glyph-name="emacron" unicode="&#x113;" horiz-adv-x="540" 
d="M320 417q-36 0 -67.5 -24.5t-41.5 -82.5q11 -1 22 -1.5t21 -0.5q39 0 64 3.5t39.5 11t20.5 19t6 27.5q0 19 -13.5 33.5t-50.5 14.5zM254 -11q-95 0 -149.5 50.5t-54.5 153.5q0 87 21 152t58.5 107.5t88 64t110.5 21.5q100 0 148 -40.5t48 -109.5q0 -94 -59.5 -139.5
t-187.5 -45.5q-19 0 -38.5 1t-41.5 4q-7 -53 12 -71.5t75 -19.5q12 0 27.5 2t32 5.5t32.5 8t29 9.5q12 4 16 2.5t8 -9.5l31 -79q7 -14 -11 -24q-20 -12 -45.5 -20t-52 -13.5t-52 -7.5t-45.5 -2zM498 633q-3 -21 -22 -21h-262q-20 0 -17 21l9 60q2 14 7 17.5t16 3.5h262
q11 0 14.5 -3.5t1.5 -17.5z" />
    <glyph glyph-name="Ebreve" unicode="&#x114;" horiz-adv-x="594" 
d="M543 23q-2 -12 -7 -17.5t-16 -5.5h-293q-55 0 -87.5 16t-49 42t-19.5 59t2 67l47 332q5 36 16 69t33 59t56.5 41.5t86.5 15.5h283q13 0 16 -5t1 -19l-12 -85q-2 -13 -6.5 -17.5t-16.5 -4.5h-239q-38 0 -53 -18t-18 -44l-11 -77h278q12 0 14.5 -5t0.5 -19l-11 -78
q-2 -12 -6.5 -17.5t-15.5 -5.5h-278l-16 -114q-5 -35 9.5 -47.5t44.5 -12.5h262q13 0 15.5 -4.5t0.5 -19.5zM387 735q-29 0 -53.5 9.5t-45 26t-37 37t-28.5 43.5q-2 3 -3 8.5t8 13.5l45 38q10 7 13 5t9 -8q27 -32 55 -50t57 -18q12 0 24.5 2t28 9.5t35 21t45.5 37.5
q10 8 13.5 7.5t8.5 -5.5l32 -33q9 -9 7 -14t-6 -9q-105 -121 -208 -121z" />
    <glyph glyph-name="ebreve" unicode="&#x115;" horiz-adv-x="540" 
d="M320 417q-36 0 -67.5 -24.5t-41.5 -82.5q11 -1 22 -1.5t21 -0.5q39 0 64 3.5t39.5 11t20.5 19t6 27.5q0 19 -13.5 33.5t-50.5 14.5zM254 -11q-95 0 -149.5 50.5t-54.5 153.5q0 87 21 152t58.5 107.5t88 64t110.5 21.5q100 0 148 -40.5t48 -109.5q0 -94 -59.5 -139.5
t-187.5 -45.5q-19 0 -38.5 1t-41.5 4q-7 -53 12 -71.5t75 -19.5q12 0 27.5 2t32 5.5t32.5 8t29 9.5q12 4 16 2.5t8 -9.5l31 -79q7 -14 -11 -24q-20 -12 -45.5 -20t-52 -13.5t-52 -7.5t-45.5 -2zM330 577q-29 0 -53.5 9.5t-45 26t-37 37t-28.5 43.5q-2 3 -3 8.5t8 13.5l45 38
q10 7 13 5t9 -8q27 -32 55 -50t57 -18q12 0 24.5 2t28 9.5t35 21t45.5 37.5q10 8 13.5 7.5t8.5 -5.5l32 -33q9 -9 7 -14t-6 -9q-105 -121 -208 -121z" />
    <glyph glyph-name="Edotaccent" unicode="&#x116;" horiz-adv-x="594" 
d="M543 23q-2 -12 -7 -17.5t-16 -5.5h-293q-55 0 -87.5 16t-49 42t-19.5 59t2 67l47 332q5 36 16 69t33 59t56.5 41.5t86.5 15.5h283q13 0 16 -5t1 -19l-12 -85q-2 -13 -6.5 -17.5t-16.5 -4.5h-239q-38 0 -53 -18t-18 -44l-11 -77h278q12 0 14.5 -5t0.5 -19l-11 -78
q-2 -12 -6.5 -17.5t-15.5 -5.5h-278l-16 -114q-5 -35 9.5 -47.5t44.5 -12.5h262q13 0 15.5 -4.5t0.5 -19.5zM413 903q31 0 51 -20.5t20 -50.5q0 -19 -8 -36t-21 -29.5t-30 -19.5t-34 -7q-29 0 -49 19.5t-20 49.5q0 19 7.5 36t20.5 30t29 20.5t34 7.5z" />
    <glyph glyph-name="edotaccent" unicode="&#x117;" horiz-adv-x="540" 
d="M320 417q-36 0 -67.5 -24.5t-41.5 -82.5q11 -1 22 -1.5t21 -0.5q39 0 64 3.5t39.5 11t20.5 19t6 27.5q0 19 -13.5 33.5t-50.5 14.5zM254 -11q-95 0 -149.5 50.5t-54.5 153.5q0 87 21 152t58.5 107.5t88 64t110.5 21.5q100 0 148 -40.5t48 -109.5q0 -94 -59.5 -139.5
t-187.5 -45.5q-19 0 -38.5 1t-41.5 4q-7 -53 12 -71.5t75 -19.5q12 0 27.5 2t32 5.5t32.5 8t29 9.5q12 4 16 2.5t8 -9.5l31 -79q7 -14 -11 -24q-20 -12 -45.5 -20t-52 -13.5t-52 -7.5t-45.5 -2zM366 755q31 0 51 -20.5t20 -50.5q0 -19 -8 -36t-21 -29.5t-30 -19.5t-34 -7
q-29 0 -49 19.5t-20 49.5q0 19 7.5 36t20.5 30t29 20.5t34 7.5z" />
    <glyph glyph-name="Eogonek" unicode="&#x118;" horiz-adv-x="594" 
d="M440 -229q-53 0 -76.5 22t-23.5 54q0 16 7 36t19.5 41t29.5 40.5t37 35.5h-206q-55 0 -87.5 16t-49 42t-19.5 59t2 67l47 332q5 36 16 69t33 59t56.5 41.5t86.5 15.5h283q13 0 16 -5t1 -19l-12 -85q-2 -13 -6.5 -17.5t-16.5 -4.5h-239q-38 0 -53 -18t-18 -44l-11 -77h278
q12 0 14.5 -5t0.5 -19l-11 -78q-2 -12 -6.5 -17.5t-15.5 -5.5h-278l-16 -114q-5 -35 9.5 -47.5t44.5 -12.5h262q13 0 15.5 -4.5t0.5 -19.5l-11 -85q-2 -12 -7 -17.5t-16 -5.5h-1q-40 -35 -56 -63.5t-16 -51.5q0 -32 45 -32q11 0 27.5 2t30.5 5q8 2 12.5 1t5.5 -10l8 -37
q3 -15 -12 -20q-30 -13 -62.5 -18t-61.5 -5z" />
    <glyph glyph-name="eogonek" unicode="&#x119;" horiz-adv-x="540" 
d="M346 -204q-53 0 -76.5 22t-23.5 54q0 25 15.5 57.5t41.5 62.5q-27 -3 -49 -3q-95 0 -149.5 50.5t-54.5 153.5q0 87 21 152t58.5 107.5t88 64t110.5 21.5q100 0 148 -40.5t48 -109.5q0 -94 -59.5 -139.5t-187.5 -45.5q-19 0 -38.5 1t-41.5 4q-7 -53 12 -71.5t75 -19.5
q12 0 27.5 2t32 5.5t32.5 8t29 9.5q12 4 16 2.5t8 -9.5l31 -79q7 -14 -11 -24q-8 -5 -16.5 -9t-18.5 -8q-33 -32 -47 -58t-14 -47q0 -32 45 -32q11 0 27.5 2t30.5 5q8 2 12.5 1t5.5 -10l8 -37q3 -15 -12 -20q-30 -13 -62.5 -18t-61.5 -5zM320 417q-36 0 -67.5 -24.5
t-41.5 -82.5q11 -1 22 -1.5t21 -0.5q39 0 64 3.5t39.5 11t20.5 19t6 27.5q0 19 -13.5 33.5t-50.5 14.5z" />
    <glyph glyph-name="Ecaron" unicode="&#x11a;" horiz-adv-x="594" 
d="M543 23q-2 -12 -7 -17.5t-16 -5.5h-293q-55 0 -87.5 16t-49 42t-19.5 59t2 67l47 332q5 36 16 69t33 59t56.5 41.5t86.5 15.5h283q13 0 16 -5t1 -19l-12 -85q-2 -13 -6.5 -17.5t-16.5 -4.5h-239q-38 0 -53 -18t-18 -44l-11 -77h278q12 0 14.5 -5t0.5 -19l-11 -78
q-2 -12 -6.5 -17.5t-15.5 -5.5h-278l-16 -114q-5 -35 9.5 -47.5t44.5 -12.5h262q13 0 15.5 -4.5t0.5 -19.5zM617 901q6 -8 3.5 -13t-10.5 -12l-156 -119q-15 -11 -28 -15.5t-26 -4.5q-11 0 -22 3.5t-21 13.5l-123 124q-6 6 -4.5 11t8.5 12l29 28q8 8 13 7.5t13 -5.5l123 -76
l152 79q9 5 13.5 6t10.5 -7z" />
    <glyph glyph-name="ecaron" unicode="&#x11b;" horiz-adv-x="540" 
d="M320 417q-36 0 -67.5 -24.5t-41.5 -82.5q11 -1 22 -1.5t21 -0.5q39 0 64 3.5t39.5 11t20.5 19t6 27.5q0 19 -13.5 33.5t-50.5 14.5zM254 -11q-95 0 -149.5 50.5t-54.5 153.5q0 87 21 152t58.5 107.5t88 64t110.5 21.5q100 0 148 -40.5t48 -109.5q0 -94 -59.5 -139.5
t-187.5 -45.5q-19 0 -38.5 1t-41.5 4q-7 -53 12 -71.5t75 -19.5q12 0 27.5 2t32 5.5t32.5 8t29 9.5q12 4 16 2.5t8 -9.5l31 -79q7 -14 -11 -24q-20 -12 -45.5 -20t-52 -13.5t-52 -7.5t-45.5 -2zM548 764q8 -8 6 -14t-10 -14l-158 -146q-13 -12 -26 -16.5t-30 -4.5
q-11 0 -23 4t-20 15l-119 150q-9 13 4 23l34 28q8 6 13 6.5t12 -5.5l116 -99l149 99q9 6 14.5 6.5t12.5 -6.5z" />
    <glyph glyph-name="Gcircumflex" unicode="&#x11c;" horiz-adv-x="671" 
d="M495 354q3 21 26 21h96q14 0 18 -4.5t2 -16.5l-34 -267q-2 -14 -7 -26t-22 -21q-30 -17 -64 -27.5t-66 -15.5t-59 -6.5t-43 -1.5q-72 0 -123.5 19.5t-84.5 56t-48.5 89.5t-15.5 120q0 103 27 184t75 137t113.5 85.5t142.5 29.5q48 0 99 -9.5t94 -33.5q11 -6 10.5 -12.5
t-7.5 -22.5l-29 -68q-5 -14 -11.5 -17t-19.5 2q-35 14 -67 19.5t-66 5.5q-49 0 -87 -21t-64 -59.5t-39.5 -91.5t-13.5 -117q0 -36 6.5 -65.5t22.5 -50.5t42.5 -32t66.5 -11q17 0 45.5 2.5t56.5 12.5zM627 795q8 -7 6 -12.5t-10 -13.5l-28 -29q-5 -7 -11.5 -6t-15.5 7
l-127 76l-143 -75q-8 -5 -13 -5.5t-11 7.5l-22 27q-6 7 -5 12t8 12l140 113q17 13 32.5 20.5t29.5 7.5q17 0 30 -6.5t29 -21.5z" />
    <glyph glyph-name="gcircumflex" unicode="&#x11d;" horiz-adv-x="586" 
d="M339 413q-27 0 -52.5 -9.5t-45 -31.5t-31.5 -57.5t-12 -89.5t24.5 -77t66.5 -23q14 0 37.5 2.5t48.5 10.5l36 264q-17 6 -38 8.5t-34 2.5zM497 0q-7 -49 -22.5 -89.5t-43.5 -70t-71 -45.5t-106 -16q-47 0 -98.5 9.5t-86.5 22.5q-14 7 -15 12.5t2 13.5l25 79q5 11 10 13
t19 -2q26 -8 62.5 -16t66.5 -8q31 0 52 5.5t34 18t20 34.5t12 55q-26 -8 -56 -11.5t-59 -3.5q-51 0 -87 15t-59 42.5t-33.5 66.5t-10.5 86q0 73 18 133t55 103t91.5 66t128.5 23q52 0 106.5 -8.5t96.5 -29.5q11 -7 14.5 -13.5t1.5 -17.5zM558 622q7 -8 5.5 -13.5t-9.5 -13.5
l-30 -25q-14 -10 -27 2l-117 97l-147 -105q-8 -5 -13 -5t-12 8l-29 30q-5 7 -4 11.5t7 12.5l145 137q17 14 32.5 22.5t29.5 8.5q22 0 35 -7t25 -24z" />
    <glyph glyph-name="Gbreve" unicode="&#x11e;" horiz-adv-x="671" 
d="M495 354q3 21 26 21h96q14 0 18 -4.5t2 -16.5l-34 -267q-2 -14 -7 -26t-22 -21q-30 -17 -64 -27.5t-66 -15.5t-59 -6.5t-43 -1.5q-72 0 -123.5 19.5t-84.5 56t-48.5 89.5t-15.5 120q0 103 27 184t75 137t113.5 85.5t142.5 29.5q48 0 99 -9.5t94 -33.5q11 -6 10.5 -12.5
t-7.5 -22.5l-29 -68q-5 -14 -11.5 -17t-19.5 2q-35 14 -67 19.5t-66 5.5q-49 0 -87 -21t-64 -59.5t-39.5 -91.5t-13.5 -117q0 -36 6.5 -65.5t22.5 -50.5t42.5 -32t66.5 -11q17 0 45.5 2.5t56.5 12.5zM404 738q-29 0 -53.5 9.5t-45 26t-37 37t-28.5 43.5q-2 3 -3 8.5t8 13.5
l45 38q10 7 13 5t9 -8q27 -32 55 -50t57 -18q12 0 24.5 2t28 9.5t35 21t45.5 37.5q10 8 13.5 7.5t8.5 -5.5l32 -33q9 -9 7 -14t-6 -9q-105 -121 -208 -121z" />
    <glyph glyph-name="gbreve" unicode="&#x11f;" horiz-adv-x="586" 
d="M339 413q-27 0 -52.5 -9.5t-45 -31.5t-31.5 -57.5t-12 -89.5t24.5 -77t66.5 -23q14 0 37.5 2.5t48.5 10.5l36 264q-17 6 -38 8.5t-34 2.5zM497 0q-7 -49 -22.5 -89.5t-43.5 -70t-71 -45.5t-106 -16q-47 0 -98.5 9.5t-86.5 22.5q-14 7 -15 12.5t2 13.5l25 79q5 11 10 13
t19 -2q26 -8 62.5 -16t66.5 -8q31 0 52 5.5t34 18t20 34.5t12 55q-26 -8 -56 -11.5t-59 -3.5q-51 0 -87 15t-59 42.5t-33.5 66.5t-10.5 86q0 73 18 133t55 103t91.5 66t128.5 23q52 0 106.5 -8.5t96.5 -29.5q11 -7 14.5 -13.5t1.5 -17.5zM353 580q-29 0 -53.5 9.5t-45 26
t-37 37t-28.5 43.5q-2 3 -3 8.5t8 13.5l45 38q10 7 13 5t9 -8q27 -32 55 -50t57 -18q12 0 24.5 2t28 9.5t35 21t45.5 37.5q10 8 13.5 7.5t8.5 -5.5l32 -33q9 -9 7 -14t-6 -9q-105 -121 -208 -121z" />
    <glyph glyph-name="Gdotaccent" unicode="&#x120;" horiz-adv-x="671" 
d="M495 354q3 21 26 21h96q14 0 18 -4.5t2 -16.5l-34 -267q-2 -14 -7 -26t-22 -21q-30 -17 -64 -27.5t-66 -15.5t-59 -6.5t-43 -1.5q-72 0 -123.5 19.5t-84.5 56t-48.5 89.5t-15.5 120q0 103 27 184t75 137t113.5 85.5t142.5 29.5q48 0 99 -9.5t94 -33.5q11 -6 10.5 -12.5
t-7.5 -22.5l-29 -68q-5 -14 -11.5 -17t-19.5 2q-35 14 -67 19.5t-66 5.5q-49 0 -87 -21t-64 -59.5t-39.5 -91.5t-13.5 -117q0 -36 6.5 -65.5t22.5 -50.5t42.5 -32t66.5 -11q17 0 45.5 2.5t56.5 12.5zM439 904q31 0 51 -20.5t20 -50.5q0 -19 -8 -36t-21 -29.5t-30 -19.5
t-34 -7q-29 0 -49 19.5t-20 49.5q0 19 7.5 36t20.5 30t29 20.5t34 7.5z" />
    <glyph glyph-name="gdotaccent" unicode="&#x121;" horiz-adv-x="586" 
d="M339 413q-27 0 -52.5 -9.5t-45 -31.5t-31.5 -57.5t-12 -89.5t24.5 -77t66.5 -23q14 0 37.5 2.5t48.5 10.5l36 264q-17 6 -38 8.5t-34 2.5zM497 0q-7 -49 -22.5 -89.5t-43.5 -70t-71 -45.5t-106 -16q-47 0 -98.5 9.5t-86.5 22.5q-14 7 -15 12.5t2 13.5l25 79q5 11 10 13
t19 -2q26 -8 62.5 -16t66.5 -8q31 0 52 5.5t34 18t20 34.5t12 55q-26 -8 -56 -11.5t-59 -3.5q-51 0 -87 15t-59 42.5t-33.5 66.5t-10.5 86q0 73 18 133t55 103t91.5 66t128.5 23q52 0 106.5 -8.5t96.5 -29.5q11 -7 14.5 -13.5t1.5 -17.5zM388 757q31 0 51 -20.5t20 -50.5
q0 -19 -8 -36t-21 -29.5t-30 -19.5t-34 -7q-29 0 -49 19.5t-20 49.5q0 19 7.5 36t20.5 30t29 20.5t34 7.5z" />
    <glyph glyph-name="Gcommaaccent" unicode="&#x122;" horiz-adv-x="671" 
d="M495 354q3 21 26 21h96q14 0 18 -4.5t2 -16.5l-34 -267q-2 -14 -7 -26t-22 -21q-30 -17 -64 -27.5t-66 -15.5t-59 -6.5t-43 -1.5q-72 0 -123.5 19.5t-84.5 56t-48.5 89.5t-15.5 120q0 103 27 184t75 137t113.5 85.5t142.5 29.5q48 0 99 -9.5t94 -33.5q11 -6 10.5 -12.5
t-7.5 -22.5l-29 -68q-5 -14 -11.5 -17t-19.5 2q-35 14 -67 19.5t-66 5.5q-49 0 -87 -21t-64 -59.5t-39.5 -91.5t-13.5 -117q0 -36 6.5 -65.5t22.5 -50.5t42.5 -32t66.5 -11q17 0 45.5 2.5t56.5 12.5zM314 -294q-5 -11 -9 -15.5t-14 -4.5h-44q-24 0 -19 18l42 199q2 8 6.5 14
t16.5 6h98q14 0 15.5 -6t-0.5 -14z" />
    <glyph glyph-name="gcommaaccent" unicode="&#x123;" horiz-adv-x="586" 
d="M385 788q5 11 9 15t15 4h44q24 0 19 -17l-35 -191q-1 -8 -5.5 -14.5t-16.5 -6.5h-96q-14 0 -16 6.5t0 14.5zM339 413q-27 0 -52.5 -9.5t-45 -31.5t-31.5 -57.5t-12 -89.5t24.5 -77t66.5 -23q14 0 37.5 2.5t48.5 10.5l36 264q-17 6 -38 8.5t-34 2.5zM497 0
q-7 -49 -22.5 -89.5t-43.5 -70t-71 -45.5t-106 -16q-47 0 -98.5 9.5t-86.5 22.5q-14 7 -15 12.5t2 13.5l25 79q5 11 10 13t19 -2q26 -8 62.5 -16t66.5 -8q31 0 52 5.5t34 18t20 34.5t12 55q-26 -8 -56 -11.5t-59 -3.5q-51 0 -87 15t-59 42.5t-33.5 66.5t-10.5 86
q0 73 18 133t55 103t91.5 66t128.5 23q52 0 106.5 -8.5t96.5 -29.5q11 -7 14.5 -13.5t1.5 -17.5z" />
    <glyph glyph-name="Hcircumflex" unicode="&#x124;" horiz-adv-x="704" 
d="M608 21q-2 -13 -6 -17t-19 -4h-102q-12 0 -17 4.5t-3 16.5l40 280h-263l-40 -280q-2 -13 -6.5 -17t-18.5 -4h-103q-11 0 -16.5 4.5t-3.5 16.5l93 658q2 12 8 16.5t17 4.5h103q14 0 18 -4t2 -17l-35 -249h262l36 249q2 12 7.5 16.5t17.5 4.5h102q15 0 18.5 -4t1.5 -17z
M624 796q8 -7 6 -12.5t-10 -13.5l-28 -29q-5 -7 -11.5 -6t-15.5 7l-127 76l-143 -75q-8 -5 -13 -5.5t-11 7.5l-22 27q-6 7 -5 12t8 12l140 113q17 13 32.5 20.5t29.5 7.5q17 0 30 -6.5t29 -21.5z" />
    <glyph glyph-name="hcircumflex" unicode="&#x125;" horiz-adv-x="591" 
d="M505 18q-2 -12 -5.5 -15t-17.5 -3h-100q-11 0 -16 3.5t-3 14.5l40 280q4 26 4 47.5t-7.5 36.5t-24 23.5t-45.5 8.5q-9 0 -21.5 -1t-26 -2.5t-26 -4t-22.5 -5.5l-53 -383q-2 -12 -6 -15t-17 -3h-100q-11 0 -15.5 3.5t-2.5 14.5l98 694q3 19 22 19h100q13 0 16.5 -4
t1.5 -15l-26 -189q13 4 29.5 7t33.5 5t32.5 3t27.5 1q105 0 146 -58t26 -164zM408 795q8 -7 6 -12.5t-10 -13.5l-28 -29q-5 -7 -11.5 -6t-15.5 7l-127 76l-143 -75q-8 -5 -13 -5.5t-11 7.5l-22 27q-6 7 -5 12t8 12l140 113q17 13 32.5 20.5t29.5 7.5q17 0 30 -6.5t29 -21.5z
" />
    <glyph glyph-name="Hbar" unicode="&#x126;" horiz-adv-x="704" 
d="M75 524q-8 0 -10 3t0 14l5 42q3 16 16 16h46l12 82q3 19 22 19h108q13 0 16.5 -4t1.5 -15l-11 -82h262l11 82q3 19 23 19h107q14 0 17 -4t1 -15l-12 -82h38q13 0 10 -16l-6 -42q-2 -11 -4.5 -14t-10.5 -3h-38l-71 -505q-2 -11 -5 -15t-17 -4h-107q-21 0 -18 19l40 285
h-262l-40 -285q-2 -11 -6 -15t-17 -4h-108q-21 0 -18 19l71 505h-46zM519 432l13 92h-262l-13 -92h262z" />
    <glyph glyph-name="hbar" unicode="&#x127;" horiz-adv-x="591" 
d="M78 584q-6 0 -8 2.5t0 10.5l5 39q1 13 13 13h41l9 63q3 19 22 19h100q13 0 16.5 -4t1.5 -15l-8 -63h170q11 0 10 -15l-5 -35q-2 -10 -5 -12.5t-10 -2.5h-170l-13 -96q13 4 30 7t34 5.5t32.5 3.5t26.5 1q105 0 146.5 -58.5t26.5 -164.5l-38 -264q-2 -12 -5.5 -15t-17.5 -3
h-100q-11 0 -16 3.5t-3 14.5l34 246q4 26 4.5 47.5t-7 36.5t-23.5 23.5t-45 8.5q-19 0 -47.5 -3t-48.5 -11l-49 -348q-2 -12 -6 -15t-17 -3h-100q-11 0 -15.5 3.5t-2.5 14.5l80 566h-42v0z" />
    <glyph glyph-name="Itilde" unicode="&#x128;" horiz-adv-x="319" 
d="M211 21q-2 -13 -6.5 -17t-18.5 -4h-103q-12 0 -17.5 4.5t-3.5 16.5l93 658q2 12 8 16.5t18 4.5h103q14 0 18 -4t2 -17zM310 762q-18 0 -34 6t-31.5 13.5t-31 13.5t-31.5 6q-26 0 -51 -30q-7 -8 -11.5 -10.5t-14.5 3.5l-39 23q-11 6 -11 9.5t5 12.5q24 39 56.5 63t74.5 24
q18 0 34 -6t30.5 -13.5t28.5 -14t30 -6.5q24 0 51 35q8 10 10 11.5t10 -2.5l45 -20q9 -5 11 -8.5t-3 -14.5q-46 -95 -128 -95z" />
    <glyph glyph-name="itilde" unicode="&#x129;" horiz-adv-x="305" 
d="M200 18q-2 -11 -5.5 -14.5t-17.5 -3.5h-99q-11 0 -15.5 3.5t-2.5 14.5l68 489q2 11 7 14.5t16 3.5h99q14 0 17 -3.5t1 -14.5zM283 599q-18 0 -34 6t-31.5 13.5t-31 13.5t-31.5 6q-26 0 -51 -30q-7 -8 -11.5 -10.5t-14.5 3.5l-39 23q-11 6 -11 9.5t5 12.5q24 39 56.5 63
t74.5 24q18 0 34 -6t30.5 -13.5t28.5 -14t30 -6.5q24 0 51 35q8 10 10 11.5t10 -2.5l45 -20q9 -5 11 -8.5t-3 -14.5q-46 -95 -128 -95z" />
    <glyph glyph-name="Imacron" unicode="&#x12a;" horiz-adv-x="319" 
d="M211 21q-2 -13 -6.5 -17t-18.5 -4h-103q-12 0 -17.5 4.5t-3.5 16.5l93 658q2 12 8 16.5t18 4.5h103q14 0 18 -4t2 -17zM393 797q-3 -21 -22 -21h-262q-20 0 -17 21l9 60q2 14 7 17.5t16 3.5h262q11 0 14.5 -3.5t1.5 -17.5z" />
    <glyph glyph-name="imacron" unicode="&#x12b;" horiz-adv-x="305" 
d="M200 18q-2 -11 -5.5 -14.5t-17.5 -3.5h-99q-11 0 -15.5 3.5t-2.5 14.5l68 489q2 11 7 14.5t16 3.5h99q14 0 17 -3.5t1 -14.5zM363 614q-3 -21 -22 -21h-262q-20 0 -17 21l9 60q2 14 7 17.5t16 3.5h262q11 0 14.5 -3.5t1.5 -17.5z" />
    <glyph glyph-name="Ibreve" unicode="&#x12c;" horiz-adv-x="319" 
d="M211 21q-2 -13 -6.5 -17t-18.5 -4h-103q-12 0 -17.5 4.5t-3.5 16.5l93 658q2 12 8 16.5t18 4.5h103q14 0 18 -4t2 -17zM236 733q-29 0 -53.5 9.5t-45 26t-37 37t-28.5 43.5q-2 3 -3 8.5t8 13.5l45 38q10 7 13 5t9 -8q27 -32 55 -50t57 -18q12 0 24.5 2t28 9.5t35 21
t45.5 37.5q10 8 13.5 7.5t8.5 -5.5l32 -33q9 -9 7 -14t-6 -9q-105 -121 -208 -121z" />
    <glyph glyph-name="ibreve" unicode="&#x12d;" horiz-adv-x="305" 
d="M200 18q-2 -11 -5.5 -14.5t-17.5 -3.5h-99q-11 0 -15.5 3.5t-2.5 14.5l68 489q2 11 7 14.5t16 3.5h99q14 0 17 -3.5t1 -14.5zM202 576q-29 0 -53.5 9.5t-45 26t-37 37t-28.5 43.5q-2 3 -3 8.5t8 13.5l45 38q10 7 13 5t9 -8q27 -32 55 -50t57 -18q12 0 24.5 2t28 9.5
t35 21t45.5 37.5q10 8 13.5 7.5t8.5 -5.5l32 -33q9 -9 7 -14t-6 -9q-105 -121 -208 -121z" />
    <glyph glyph-name="Iogonek" unicode="&#x12e;" horiz-adv-x="319" 
d="M109 -229q-53 0 -76.5 22t-23.5 54q0 16 7 36t19.5 41t29.5 40.5t37 35.5h-19q-12 0 -17.5 4.5t-3.5 16.5l93 658q2 12 8 16.5t18 4.5h103q14 0 18 -4t2 -17l-93 -658q-2 -13 -6 -17t-17 -4q-40 -35 -56 -63.5t-16 -51.5q0 -32 45 -32q11 0 27.5 2t30.5 5q8 2 12.5 1
t5.5 -10l8 -37q3 -15 -12 -20q-30 -13 -62.5 -18t-61.5 -5z" />
    <glyph glyph-name="iogonek" unicode="&#x12f;" horiz-adv-x="309" 
d="M98 -227q-53 0 -76.5 22t-23.5 54q0 16 7 36t19 40t28.5 39.5t36.5 35.5h-12q-11 0 -15.5 3.5t-2.5 14.5l68 489q2 11 7 14.5t16 3.5h99q14 0 17.5 -3.5t1.5 -14.5l-69 -489q-2 -11 -5.5 -14.5t-17.5 -3.5h-1q-38 -35 -54 -62.5t-16 -50.5q0 -32 45 -32q11 0 27.5 2
t30.5 5q8 2 12.5 1t5.5 -10l8 -37q3 -15 -12 -20q-30 -13 -62.5 -18t-61.5 -5zM233 745q31 0 51 -20t20 -51q0 -20 -8 -37t-21.5 -30t-30.5 -20t-34 -7q-31 0 -50.5 19.5t-19.5 49.5q0 20 7.5 37.5t20.5 30.5t30 20.5t35 7.5z" />
    <glyph glyph-name="Idotaccent" unicode="&#x130;" horiz-adv-x="319" 
d="M211 21q-2 -13 -6.5 -17t-18.5 -4h-103q-12 0 -17.5 4.5t-3.5 16.5l93 658q2 12 8 16.5t18 4.5h103q14 0 18 -4t2 -17zM265 923q31 0 51 -20.5t20 -50.5q0 -19 -8 -36t-21 -29.5t-30 -19.5t-34 -7q-29 0 -49 19.5t-20 49.5q0 19 7.5 36t20.5 30t29 20.5t34 7.5z" />
    <glyph glyph-name="dotlessi" unicode="&#x131;" horiz-adv-x="305" 
d="M200 18q-2 -11 -5.5 -14.5t-17.5 -3.5h-99q-11 0 -15.5 3.5t-2.5 14.5l68 489q2 11 7 14.5t16 3.5h99q14 0 17 -3.5t1 -14.5l-68 -489v0z" />
    <glyph glyph-name="IJ" unicode="&#x132;" horiz-adv-x="832" 
d="M493 -11q-42 0 -99.5 10t-114.5 41q-8 4 -9.5 9t5.5 19l37 82q5 11 10.5 11t13.5 -4q32 -15 68 -23.5t74 -8.5q42 0 68.5 11.5t43 33.5t24.5 53.5t14 71.5l54 385q2 14 8.5 17t17.5 3h102q12 0 16.5 -3t2.5 -17l-59 -418q-8 -58 -24 -108t-47 -86.5t-81 -57.5t-125 -21z
M211 21q-2 -13 -6.5 -17t-18.5 -4h-103q-12 0 -17.5 4.5t-3.5 16.5l93 658q2 12 8 16.5t18 4.5h103q14 0 18 -4t2 -17z" />
    <glyph glyph-name="ij" unicode="&#x133;" horiz-adv-x="589" 
d="M233 745q31 0 51 -20t20 -51q0 -20 -8 -37t-21.5 -30t-30.5 -20t-34 -7q-31 0 -50.5 19.5t-19.5 49.5q0 20 7.5 37.5t20.5 30.5t30 20.5t35 7.5zM199 18q-2 -11 -5.5 -14.5t-17.5 -3.5h-99q-11 0 -15.5 3.5t-2.5 14.5l68 489q2 11 7 14.5t16 3.5h99q14 0 17.5 -3.5
t1.5 -14.5zM518 745q30 0 50 -20t20 -51q0 -20 -8 -37t-21.5 -30t-30 -20t-34.5 -7q-30 0 -50 19.5t-20 49.5q0 20 7.5 37.5t20.5 30.5t30 20.5t36 7.5zM491 76q-10 -72 -29 -122t-47.5 -84t-68.5 -55t-92 -35q-14 -4 -19.5 -2.5t-8.5 10.5l-29 83q-3 13 0.5 18t14.5 10
q37 15 61.5 31.5t40 37t23.5 47t13 60.5l60 432q2 11 7 14.5t16 3.5h102q13 0 16 -3.5t1 -14.5z" />
    <glyph glyph-name="Jcircumflex" unicode="&#x134;" horiz-adv-x="573" 
d="M231 -11q-42 0 -99.5 10t-114.5 41q-8 4 -9.5 9t5.5 19l37 82q5 11 10.5 11t13.5 -4q32 -15 68 -23.5t74 -8.5q42 0 68.5 11.5t43 33.5t24.5 53.5t14 71.5l54 385q2 14 8.5 17t17.5 3h102q12 0 16.5 -3t2.5 -17l-59 -418q-8 -58 -24 -108t-47 -86.5t-81 -57.5t-125 -21z
M698 795q8 -7 6 -12.5t-10 -13.5l-28 -29q-5 -7 -11.5 -6t-15.5 7l-127 76l-143 -75q-8 -5 -13 -5.5t-11 7.5l-22 27q-6 7 -5 12t8 12l140 113q17 13 32.5 20.5t29.5 7.5q17 0 30 -6.5t29 -21.5z" />
    <glyph glyph-name="jcircumflex" unicode="&#x135;" horiz-adv-x="315" 
d="M212 76q-10 -72 -29 -122t-47.5 -84t-68.5 -55t-92 -35q-14 -4 -19.5 -2.5t-8.5 10.5l-29 83q-3 13 0.5 18t14.5 10q37 15 61.5 31.5t40 37t23.5 47t13 60.5l60 432q2 11 7 14.5t16 3.5h102q13 0 16 -3.5t1 -14.5zM405 622q7 -8 5.5 -13.5t-10.5 -13.5l-30 -25
q-13 -10 -26 2l-118 97l-146 -105q-8 -5 -13 -5t-12 8l-29 30q-6 7 -5 11.5t8 12.5l145 137q16 14 32 22.5t30 8.5q22 0 34.5 -7t25.5 -24z" />
    <glyph glyph-name="Kcommaaccent" unicode="&#x136;" horiz-adv-x="662" 
d="M461 446l166 -421q10 -25 -13 -25h-103q-21 0 -30.5 2.5t-15.5 20.5l-115 306l-129 -134l-25 -174q-2 -14 -6 -17.5t-19 -3.5h-101q-11 0 -16.5 4.5t-3.5 16.5l93 658q2 12 8 16.5t17 4.5h101q14 0 18 -3.5t2 -15.5l-38 -270l4 -2l107 119l142 153q11 11 20.5 15t29.5 4
h125q10 0 12 -5.5t-5 -13.5zM294 -264q-5 -11 -9 -15.5t-14 -4.5h-44q-24 0 -19 18l42 199q2 8 6.5 14t16.5 6h98q14 0 15.5 -6t-0.5 -14z" />
    <glyph glyph-name="kcommaaccent" unicode="&#x137;" horiz-adv-x="535" 
d="M399 348l108 -328q6 -20 -16 -20h-105q-12 0 -18.5 3.5t-8.5 15.5l-68 222l-92 -94q-2 -9 -4 -25.5t-4.5 -35t-5.5 -36.5t-5 -31q-2 -11 -5.5 -15t-17.5 -4h-99q-22 0 -19 19l98 694q2 11 7 14.5t16 3.5h101q13 0 16 -3t1 -15l-52 -371l3 -2l159 171q9 8 15 11t20 3h121
q14 0 14.5 -6.5t-7.5 -14.5zM221 -294q-5 -11 -9 -15.5t-14 -4.5h-44q-24 0 -19 18l42 199q2 8 6.5 14t16.5 6h98q14 0 15.5 -6t-0.5 -14z" />
    <glyph glyph-name="kgreenlandic" unicode="&#x138;" horiz-adv-x="533" 
d="M180 19q-2 -11 -5.5 -15t-17.5 -4h-99q-22 0 -19 19l69 488q2 11 7 14.5t16 3.5h101q13 0 16 -3.5t1 -14.5l-24 -168l4 -2l159 174q8 8 14 11t20 3h122q14 0 14.5 -6.5t-7.5 -14.5l-171 -175l125 -309q5 -20 -17 -20h-108q-12 0 -18 3.5t-9 15.5l-76 203l-79 -81
q-1 -9 -3 -24.5t-4.5 -33t-5.5 -34.5t-5 -30z" />
    <glyph glyph-name="Lacute" unicode="&#x139;" horiz-adv-x="560" 
d="M227 0q-54 0 -86.5 15.5t-49 41t-20 58t1.5 66.5l70 500q4 21 25 21h103q14 0 18 -4.5t2 -16.5l-68 -485q-5 -38 10 -51t46 -13h247q11 0 14 -4t1 -18l-12 -89q-2 -11 -6.5 -16t-15.5 -5h-280zM346 935q6 5 11 6t13 -7l56 -78q5 -6 3 -11.5t-8 -7.5l-196 -98
q-8 -4 -13 -3.5t-10 7.5l-29 44q-4 7 -4.5 11t8.5 12z" />
    <glyph glyph-name="lacute" unicode="&#x13a;" horiz-adv-x="320" 
d="M298 24q1 -9 -3 -13.5t-15 -7.5q-26 -8 -55.5 -11t-53.5 -3q-33 0 -56.5 7t-37 24t-17 44.5t2.5 69.5l83 578q2 14 7.5 16.5t16.5 2.5h97q11 0 16 -3.5t3 -14.5l-78 -555q-3 -25 2 -34t27 -9q8 0 17.5 0.5t17.5 1.5q9 1 11.5 -1t3.5 -11zM346 960q6 5 11 6t13 -7l56 -78
q5 -6 3 -11.5t-8 -7.5l-196 -98q-8 -4 -13 -3.5t-10 7.5l-29 44q-4 7 -4.5 11t8.5 12z" />
    <glyph glyph-name="Lcommaaccent" unicode="&#x13b;" horiz-adv-x="560" 
d="M227 0q-54 0 -86.5 15.5t-49 41t-20 58t1.5 66.5l70 500q4 21 25 21h103q14 0 18 -4.5t2 -16.5l-68 -485q-5 -38 10 -51t46 -13h247q11 0 14 -4t1 -18l-12 -89q-2 -11 -6.5 -16t-15.5 -5h-280zM243 -294q-5 -11 -9 -15.5t-14 -4.5h-44q-24 0 -19 18l42 199q2 8 6.5 14
t16.5 6h98q14 0 15.5 -6t-0.5 -14z" />
    <glyph glyph-name="lcommaaccent" unicode="&#x13c;" horiz-adv-x="320" 
d="M298 24q1 -9 -3 -13.5t-15 -7.5q-26 -8 -55.5 -11t-53.5 -3q-33 0 -56.5 7t-37 24t-17 44.5t2.5 69.5l83 578q2 14 7.5 16.5t16.5 2.5h97q11 0 16 -3.5t3 -14.5l-78 -555q-3 -25 2 -34t27 -9q8 0 17.5 0.5t17.5 1.5q9 1 11.5 -1t3.5 -11zM102 -294q-5 -11 -9 -15.5
t-14 -4.5h-44q-24 0 -19 18l42 199q2 8 6.5 14t16.5 6h98q14 0 15.5 -6t-0.5 -14z" />
    <glyph glyph-name="Lcaron" unicode="&#x13d;" horiz-adv-x="560" 
d="M227 0q-54 0 -86.5 15.5t-49 41t-20 58t1.5 66.5l70 500q4 21 25 21h103q14 0 18 -4.5t2 -16.5l-68 -485q-5 -38 10 -51t46 -13h247q11 0 14 -4t1 -18l-12 -89q-2 -11 -6.5 -16t-15.5 -5h-280zM481 482q-5 -11 -9 -15.5t-14 -4.5h-44q-24 0 -19 18l42 199q2 8 6.5 14
t16.5 6h98q14 0 15.5 -6t-0.5 -14z" />
    <glyph glyph-name="lcaron" unicode="&#x13e;" horiz-adv-x="424" 
d="M298 24q1 -9 -3 -13.5t-15 -7.5q-26 -8 -55.5 -11t-53.5 -3q-33 0 -56.5 7t-37 24t-17 44.5t2.5 69.5l83 578q2 14 7.5 16.5t16.5 2.5h97q11 0 16 -3.5t3 -14.5l-78 -555q-3 -25 2 -34t27 -9q8 0 17.5 0.5t17.5 1.5q9 1 11.5 -1t3.5 -11zM409 492q-5 -11 -9 -15.5
t-14 -4.5h-44q-24 0 -19 18l42 199q2 8 6.5 14t16.5 6h98q14 0 15.5 -6t-0.5 -14z" />
    <glyph glyph-name="Ldot" unicode="&#x13f;" horiz-adv-x="560" 
d="M227 0q-54 0 -86.5 15.5t-49 41t-20 58t1.5 66.5l70 500q4 21 25 21h103q14 0 18 -4.5t2 -16.5l-68 -485q-5 -38 10 -51t46 -13h247q11 0 14 -4t1 -18l-12 -89q-2 -11 -6.5 -16t-15.5 -5h-280zM463 467q31 0 51 -20.5t20 -50.5q0 -19 -8 -36t-21 -29.5t-30 -19.5t-34 -7
q-29 0 -49 19.5t-20 49.5q0 19 7.5 36t20.5 30t29 20.5t34 7.5z" />
    <glyph glyph-name="ldot" unicode="&#x140;" horiz-adv-x="427" 
d="M298 24q1 -9 -3 -13.5t-15 -7.5q-26 -8 -55.5 -11t-53.5 -3q-33 0 -56.5 7t-37 24t-17 44.5t2.5 69.5l83 578q2 14 7.5 16.5t16.5 2.5h97q11 0 16 -3.5t3 -14.5l-78 -555q-3 -25 2 -34t27 -9q8 0 17.5 0.5t17.5 1.5q9 1 11.5 -1t3.5 -11zM400 468q31 0 51 -20.5t20 -50.5
q0 -19 -8 -36t-21 -29.5t-30 -19.5t-34 -7q-29 0 -49 19.5t-20 49.5q0 19 7.5 36t20.5 30t29 20.5t34 7.5z" />
    <glyph glyph-name="Lslash" unicode="&#x141;" horiz-adv-x="560" 
d="M227 1q-55 0 -87.5 16t-48.5 42t-19 59t2 67l10 67l-48 -25q-15 -8 -23 8l-14 34q-5 11 -3 16t13 11l87 48l48 339q3 19 22 19h107q14 0 17 -4t1 -15l-35 -251l104 57q10 5 15 4.5t10 -11.5l14 -33q5 -10 4.5 -15t-12.5 -12l-147 -81l-20 -145q-5 -38 9.5 -50.5
t45.5 -12.5h247q11 0 14 -4t1 -18l-12 -89q-3 -21 -22 -21h-280v0z" />
    <glyph glyph-name="lslash" unicode="&#x142;" horiz-adv-x="320" 
d="M298 24q1 -9 -3 -13.5t-15 -7.5q-26 -8 -55.5 -11t-53.5 -3q-33 0 -56.5 7t-37 24t-17 44.5t2.5 69.5l15 110l-51 -28q-15 -11 -24 8l-11 33q-5 11 -3.5 16t12.5 10l90 50l55 379q2 14 7.5 16.5t16.5 2.5h97q11 0 16 -3.5t3 -14.5l-41 -296l65 36q9 5 15 5t11 -11l13 -31
q5 -11 4 -17t-13 -12l-108 -59l-24 -170q-3 -25 2 -34t27 -9q8 0 17.5 0.5t17.5 1.5q9 1 11.5 -1t3.5 -11z" />
    <glyph glyph-name="Nacute" unicode="&#x143;" horiz-adv-x="722" 
d="M260 471l-63 -450q-2 -13 -6.5 -17t-18.5 -4h-102q-11 0 -16.5 4.5t-3.5 16.5l86 610q5 39 21 54.5t52 15.5h41q15 0 24.5 -1.5t16.5 -6.5t12.5 -14t12.5 -23l127 -287l61 -139h5l63 450q2 12 7 16.5t19 4.5h102q22 0 19 -21l-86 -611q-5 -32 -19.5 -50.5t-52.5 -18.5
h-41q-15 0 -24.5 1.5t-17 6.5t-13 13.5t-11.5 22.5l-129 288l-60 139h-5zM532 934q6 5 11 6t13 -7l56 -78q5 -6 3 -11.5t-8 -7.5l-196 -98q-8 -4 -13 -3.5t-10 7.5l-29 44q-4 7 -4.5 11t8.5 12z" />
    <glyph glyph-name="nacute" unicode="&#x144;" horiz-adv-x="591" 
d="M302 418q-10 0 -27.5 -0.5t-37.5 -4.5l-56 -395q-2 -11 -5.5 -14.5t-17.5 -3.5h-99q-11 0 -16 3.5t-3 14.5l61 429q5 34 20.5 54t50.5 27q10 2 27.5 3.5t38 3t40 2.5t34.5 1q67 0 115.5 -14t77 -44.5t37.5 -80t-1 -120.5l-36 -261q-2 -11 -5.5 -14.5t-17.5 -3.5h-100
q-11 0 -16 3.5t-3 14.5l38 270q4 33 2.5 57t-12.5 40.5t-32.5 24.5t-56.5 8zM321 572q-13 5 -25.5 9.5t-25.5 9.5q-9 3 -9 8t4 12q23 44 45.5 87t45.5 87q9 17 23 12l98 -26q8 -2 9 -7.5t-3 -10.5q-35 -43 -69.5 -86t-69.5 -86q-7 -9 -11 -10.5t-12 1.5z" />
    <glyph glyph-name="Ncommaaccent" unicode="&#x145;" horiz-adv-x="722" 
d="M260 471l-63 -450q-2 -13 -6.5 -17t-18.5 -4h-102q-11 0 -16.5 4.5t-3.5 16.5l86 610q5 39 21 54.5t52 15.5h41q15 0 24.5 -1.5t16.5 -6.5t12.5 -14t12.5 -23l127 -287l61 -139h5l63 450q2 12 7 16.5t19 4.5h102q22 0 19 -21l-86 -611q-5 -32 -19.5 -50.5t-52.5 -18.5
h-41q-15 0 -24.5 1.5t-17 6.5t-13 13.5t-11.5 22.5l-129 288l-60 139h-5zM285 -264q-5 -11 -9 -15.5t-14 -4.5h-44q-24 0 -19 18l42 199q2 8 6.5 14t16.5 6h98q14 0 15.5 -6t-0.5 -14z" />
    <glyph glyph-name="ncommaaccent" unicode="&#x146;" horiz-adv-x="591" 
d="M302 418q-10 0 -27.5 -0.5t-37.5 -4.5l-56 -395q-2 -11 -5.5 -14.5t-17.5 -3.5h-99q-11 0 -16 3.5t-3 14.5l61 429q5 34 20.5 54t50.5 27q10 2 27.5 3.5t38 3t40 2.5t34.5 1q67 0 115.5 -14t77 -44.5t37.5 -80t-1 -120.5l-36 -261q-2 -11 -5.5 -14.5t-17.5 -3.5h-100
q-11 0 -16 3.5t-3 14.5l38 270q4 33 2.5 57t-12.5 40.5t-32.5 24.5t-56.5 8zM242 -294q-5 -11 -9 -15.5t-14 -4.5h-44q-24 0 -19 18l42 199q2 8 6.5 14t16.5 6h98q14 0 15.5 -6t-0.5 -14z" />
    <glyph glyph-name="Ncaron" unicode="&#x147;" horiz-adv-x="722" 
d="M260 471l-63 -450q-2 -13 -6.5 -17t-18.5 -4h-102q-11 0 -16.5 4.5t-3.5 16.5l86 610q5 39 21 54.5t52 15.5h41q15 0 24.5 -1.5t16.5 -6.5t12.5 -14t12.5 -23l127 -287l61 -139h5l63 450q2 12 7 16.5t19 4.5h102q22 0 19 -21l-86 -611q-5 -32 -19.5 -50.5t-52.5 -18.5
h-41q-15 0 -24.5 1.5t-17 6.5t-13 13.5t-11.5 22.5l-129 288l-60 139h-5zM659 901q6 -8 3.5 -13t-10.5 -12l-156 -119q-15 -11 -28 -15.5t-26 -4.5q-11 0 -22 3.5t-21 13.5l-123 124q-6 6 -4.5 11t8.5 12l29 28q8 8 13 7.5t13 -5.5l123 -76l152 79q9 5 13.5 6t10.5 -7z" />
    <glyph glyph-name="ncaron" unicode="&#x148;" horiz-adv-x="591" 
d="M302 418q-10 0 -27.5 -0.5t-37.5 -4.5l-56 -395q-2 -11 -5.5 -14.5t-17.5 -3.5h-99q-11 0 -16 3.5t-3 14.5l61 429q5 34 20.5 54t50.5 27q10 2 27.5 3.5t38 3t40 2.5t34.5 1q67 0 115.5 -14t77 -44.5t37.5 -80t-1 -120.5l-36 -261q-2 -11 -5.5 -14.5t-17.5 -3.5h-100
q-11 0 -16 3.5t-3 14.5l38 270q4 33 2.5 57t-12.5 40.5t-32.5 24.5t-56.5 8zM548 763q8 -8 6 -14t-10 -14l-158 -146q-13 -12 -26 -16.5t-30 -4.5q-11 0 -23 4t-20 15l-119 150q-9 13 4 23l34 28q8 6 13 6.5t12 -5.5l116 -99l149 99q9 6 14.5 6.5t12.5 -6.5z" />
    <glyph glyph-name="napostrophe" unicode="&#x149;" horiz-adv-x="694" 
d="M405 418q-10 0 -27.5 -0.5t-37.5 -4.5l-56 -395q-2 -11 -5.5 -14.5t-17.5 -3.5h-99q-11 0 -16 3.5t-3 14.5l61 429q5 34 20.5 54t50.5 27q10 2 27.5 3.5t38 3t40 2.5t34.5 1q67 0 115.5 -14t77 -44.5t37.5 -80t-1 -120.5l-36 -261q-2 -11 -5.5 -14.5t-17.5 -3.5h-100
q-11 0 -16 3.5t-3 14.5l38 270q4 33 2.5 57t-12.5 40.5t-32.5 24.5t-56.5 8zM132 507q-5 -11 -9 -15.5t-14 -4.5h-44q-24 0 -19 18l42 199q2 8 6.5 14t16.5 6h98q14 0 15.5 -6t-0.5 -14z" />
    <glyph glyph-name="Eng" unicode="&#x14a;" horiz-adv-x="722" 
d="M261 475l-64 -456q-2 -11 -6 -15t-17 -4h-106q-21 0 -18 19l87 617q5 38 20.5 53t50.5 15h43q16 0 27 -2t18.5 -7.5t14 -15.5t13.5 -26l120 -265l61 -141h7l61 434q2 11 6 15t17 4h106q20 0 17 -19q-18 -130 -35.5 -253t-31.5 -224.5t-25 -174.5t-15 -103q-4 -27 -12 -52
t-24.5 -45t-43 -32t-66.5 -12q-29 0 -57.5 5t-45.5 11q-14 5 -15 9.5t3 18.5l15 58q5 17 10.5 17t19.5 -2q6 -1 17 -2t19 -1q26 0 37.5 11t16.5 38l5 40l-160 341l-64 146h-6z" />
    <glyph glyph-name="eng" unicode="&#x14b;" horiz-adv-x="591" 
d="M303 418q-10 0 -28 -0.5t-38 -4.5l-56 -395q-2 -11 -5.5 -14.5t-17.5 -3.5h-99q-11 0 -16 3.5t-3 14.5l61 429q5 34 20.5 54t50.5 27q10 2 28 3.5t38.5 3t40.5 2.5t35 1q67 0 115 -14t76.5 -44.5t37 -80t-1.5 -120.5l-48 -343q-4 -27 -12.5 -52.5t-25 -45t-43 -31.5
t-66.5 -12q-29 0 -58 4.5t-46 11.5q-14 5 -15 9.5t3 18.5l17 64q3 12 9 12.5t17 -1.5q9 -1 16.5 -1.5t14.5 -0.5q24 0 35.5 11.5t16.5 40.5l45 324q9 65 -10.5 97.5t-87.5 32.5z" />
    <glyph glyph-name="Omacron" unicode="&#x14c;" horiz-adv-x="708" 
d="M422 711q66 0 115 -19.5t81.5 -56t49 -88t16.5 -115.5q0 -95 -23 -176t-67.5 -140.5t-110.5 -93t-152 -33.5q-132 0 -195.5 71.5t-63.5 203.5q0 103 25.5 186t72 141t111 89t141.5 31zM409 575q-47 0 -81.5 -26t-57 -68.5t-34 -96.5t-11.5 -110q0 -70 27.5 -109t94.5 -39
q48 0 83 26t57.5 68t33.5 95.5t11 108.5q0 33 -6 60.5t-20.5 47.5t-38 31.5t-58.5 11.5zM609 794q-3 -21 -22 -21h-262q-20 0 -17 21l9 60q2 14 7 17.5t16 3.5h262q11 0 14.5 -3.5t1.5 -17.5z" />
    <glyph glyph-name="omacron" unicode="&#x14d;" horiz-adv-x="577" 
d="M334 538q108 0 161.5 -57t53.5 -162q0 -75 -19 -136t-55.5 -104t-89.5 -66.5t-121 -23.5q-109 0 -161.5 53.5t-52.5 153.5q0 82 21 146t58.5 107.5t89.5 66t115 22.5zM321 415q-30 0 -53 -15t-38.5 -42t-23.5 -64t-8 -81q0 -50 19.5 -75.5t62.5 -25.5q31 0 54 16.5
t38 44.5t22.5 64.5t7.5 77.5q0 45 -18 72.5t-63 27.5zM503 608q-3 -21 -22 -21h-262q-20 0 -17 21l9 60q2 14 7 17.5t16 3.5h262q11 0 14.5 -3.5t1.5 -17.5z" />
    <glyph glyph-name="Obreve" unicode="&#x14e;" horiz-adv-x="708" 
d="M422 711q66 0 115 -19.5t81.5 -56t49 -88t16.5 -115.5q0 -95 -23 -176t-67.5 -140.5t-110.5 -93t-152 -33.5q-132 0 -195.5 71.5t-63.5 203.5q0 103 25.5 186t72 141t111 89t141.5 31zM409 575q-47 0 -81.5 -26t-57 -68.5t-34 -96.5t-11.5 -110q0 -70 27.5 -109t94.5 -39
q48 0 83 26t57.5 68t33.5 95.5t11 108.5q0 33 -6 60.5t-20.5 47.5t-38 31.5t-58.5 11.5zM443 740q-29 0 -53.5 9.5t-45 26t-37 37t-28.5 43.5q-2 3 -3 8.5t8 13.5l45 38q10 7 13 5t9 -8q27 -32 55 -50t57 -18q12 0 24.5 2t28 9.5t35 21t45.5 37.5q10 8 13.5 7.5t8.5 -5.5
l32 -33q9 -9 7 -14t-6 -9q-105 -121 -208 -121z" />
    <glyph glyph-name="obreve" unicode="&#x14f;" horiz-adv-x="577" 
d="M334 538q108 0 161.5 -57t53.5 -162q0 -75 -19 -136t-55.5 -104t-89.5 -66.5t-121 -23.5q-109 0 -161.5 53.5t-52.5 153.5q0 82 21 146t58.5 107.5t89.5 66t115 22.5zM321 415q-30 0 -53 -15t-38.5 -42t-23.5 -64t-8 -81q0 -50 19.5 -75.5t62.5 -25.5q31 0 54 16.5
t38 44.5t22.5 64.5t7.5 77.5q0 45 -18 72.5t-63 27.5zM343 576q-29 0 -53.5 9.5t-45 26t-37 37t-28.5 43.5q-2 3 -3 8.5t8 13.5l45 38q10 7 13 5t9 -8q27 -32 55 -50t57 -18q12 0 24.5 2t28 9.5t35 21t45.5 37.5q10 8 13.5 7.5t8.5 -5.5l32 -33q9 -9 7 -14t-6 -9
q-105 -121 -208 -121z" />
    <glyph glyph-name="Ohungarumlaut" unicode="&#x150;" horiz-adv-x="708" 
d="M422 711q66 0 115 -19.5t81.5 -56t49 -88t16.5 -115.5q0 -95 -23 -176t-67.5 -140.5t-110.5 -93t-152 -33.5q-132 0 -195.5 71.5t-63.5 203.5q0 103 25.5 186t72 141t111 89t141.5 31zM409 575q-47 0 -81.5 -26t-57 -68.5t-34 -96.5t-11.5 -110q0 -70 27.5 -109t94.5 -39
q48 0 83 26t57.5 68t33.5 95.5t11 108.5q0 33 -6 60.5t-20.5 47.5t-38 31.5t-58.5 11.5zM281 788q-5 7 -4.5 11.5t8.5 10.5l165 123q7 6 12 6.5t11 -7.5l51 -68q9 -12 -4 -19l-189 -96q-8 -4 -14 -4t-11 8zM494 788q-5 7 -4.5 11.5t8.5 10.5l165 123q13 12 23 -1l51 -68
q9 -12 -4 -19l-189 -96q-8 -4 -14 -4t-11 8z" />
    <glyph glyph-name="ohungarumlaut" unicode="&#x151;" horiz-adv-x="577" 
d="M334 538q108 0 161.5 -57t53.5 -162q0 -75 -19 -136t-55.5 -104t-89.5 -66.5t-121 -23.5q-109 0 -161.5 53.5t-52.5 153.5q0 82 21 146t58.5 107.5t89.5 66t115 22.5zM321 415q-30 0 -53 -15t-38.5 -42t-23.5 -64t-8 -81q0 -50 19.5 -75.5t62.5 -25.5q31 0 54 16.5
t38 44.5t22.5 64.5t7.5 77.5q0 45 -18 72.5t-63 27.5zM222 591q-9 4 -9.5 8t4.5 12l91 174q9 17 23 12l95 -26q17 -6 6 -18l-139 -172q-6 -8 -10.5 -10t-12.5 1zM384 591q-9 4 -9.5 8t4.5 12l91 174q9 17 23 12l95 -26q17 -6 6 -18l-139 -172q-6 -8 -10.5 -10t-12.5 1z" />
    <glyph glyph-name="OE" unicode="&#x152;" horiz-adv-x="927" 
d="M881 23q-2 -13 -6.5 -18t-16.5 -5h-282q-62 0 -99 20q-67 -31 -152 -31q-65 0 -112.5 19t-79 55t-47 87t-15.5 115q0 104 24 186.5t69 140.5t109 88.5t144 30.5q42 0 81.5 -8.5t68.5 -23.5q20 10 44 15.5t55 5.5h259q13 0 15.5 -6.5t0.5 -17.5l-12 -85q-2 -13 -6.5 -17.5
t-15.5 -4.5h-221q-33 0 -50.5 -17.5t-21.5 -44.5q-3 -20 -5.5 -38.5t-4.5 -38.5h265q17 0 17 -14q0 -6 -1 -10l-11 -78q-3 -23 -23 -23h-266l-16 -114q-9 -60 55 -60h252q14 0 16.5 -6.5t0.5 -17.5zM347 125q39 0 73 20q-2 14 0 29l4 30l38 274q6 40 15 77q-25 19 -70 19
q-47 0 -81.5 -24t-57 -65t-33 -95.5t-10.5 -115.5q0 -70 28 -109.5t94 -39.5z" />
    <glyph glyph-name="oe" unicode="&#x153;" horiz-adv-x="890" 
d="M334 538q111 0 165 -66q69 66 178 66q93 0 145 -39t52 -108q0 -91 -62.5 -134.5t-185.5 -43.5q-19 0 -38.5 1t-40.5 4q-1 -7 -1.5 -12.5t-0.5 -12.5q0 -48 24.5 -64.5t72.5 -16.5q28 0 54.5 7t53.5 18q12 4 16 2.5t8 -9.5l31 -74q4 -8 0 -13.5t-12 -10.5
q-20 -12 -44.5 -20t-50 -13.5t-50.5 -7.5t-45 -2q-114 0 -162 61q-34 -29 -78.5 -45t-98.5 -16q-109 0 -161.5 53.5t-52.5 153.5q0 82 21 146t58.5 107.5t89.5 66t115 22.5zM321 415q-30 0 -53 -15t-38.5 -42t-23.5 -64t-8 -81q0 -50 19.5 -75.5t62.5 -25.5q31 0 54 16.5
t38 44.5t22.5 64.5t7.5 77.5q0 45 -18 72.5t-63 27.5zM670 421q-44 0 -72 -26.5t-37 -84.5q11 -1 21.5 -1.5t21.5 -0.5q39 0 64 4t39.5 12.5t20.5 20.5t6 28q0 19 -13.5 33.5t-50.5 14.5z" />
    <glyph glyph-name="Racute" unicode="&#x154;" horiz-adv-x="648" 
d="M199 21q-2 -14 -6.5 -17.5t-18.5 -3.5h-104q-11 0 -16.5 4.5t-3.5 16.5l88 619q4 30 17.5 45.5t48.5 15.5h235q98 0 147.5 -47.5t49.5 -128.5q0 -73 -35.5 -123t-97.5 -76l-1 -3q41 -12 56 -37.5t20 -62.5l24 -200q2 -10 0 -16.5t-14 -6.5h-105q-11 0 -23 2.5t-14 17.5
l-18 177q-5 49 -29 68t-72 19h-91zM254 407h129q47 0 73.5 26.5t26.5 68.5q0 12 -3.5 23.5t-12 21t-22.5 15t-36 5.5h-133zM482 934q6 5 11 6t13 -7l56 -78q5 -6 3 -11.5t-8 -7.5l-196 -98q-8 -4 -13 -3.5t-10 7.5l-29 44q-4 7 -4.5 11t8.5 12z" />
    <glyph glyph-name="racute" unicode="&#x155;" horiz-adv-x="397" 
d="M106 419q4 27 8.5 46.5t14 33t26 21t44.5 11.5q56 6 108.5 7.5t102.5 -0.5q16 0 21 -4.5t2 -20.5l-16 -89q-2 -15 -9 -17t-20 0q-42 6 -74 8t-67 4l-57 -398q-2 -14 -7.5 -17.5t-18.5 -3.5h-93q-11 0 -16.5 3.5t-3.5 17.5zM277 572q-13 5 -25.5 9.5t-25.5 9.5q-9 3 -9 8
t4 12q23 44 45.5 87t45.5 87q9 17 23 12l98 -26q8 -2 9 -7.5t-3 -10.5q-35 -43 -69.5 -86t-69.5 -86q-7 -9 -11 -10.5t-12 1.5z" />
    <glyph glyph-name="Rcommaaccent" unicode="&#x156;" horiz-adv-x="648" 
d="M199 21q-2 -14 -6.5 -17.5t-18.5 -3.5h-104q-11 0 -16.5 4.5t-3.5 16.5l88 619q4 30 17.5 45.5t48.5 15.5h235q98 0 147.5 -47.5t49.5 -128.5q0 -73 -35.5 -123t-97.5 -76l-1 -3q41 -12 56 -37.5t20 -62.5l24 -200q2 -10 0 -16.5t-14 -6.5h-105q-11 0 -23 2.5t-14 17.5
l-18 177q-5 49 -29 68t-72 19h-91zM254 407h129q47 0 73.5 26.5t26.5 68.5q0 12 -3.5 23.5t-12 21t-22.5 15t-36 5.5h-133zM280 -264q-5 -11 -9 -15.5t-14 -4.5h-44q-24 0 -19 18l42 199q2 8 6.5 14t16.5 6h98q14 0 15.5 -6t-0.5 -14z" />
    <glyph glyph-name="rcommaaccent" unicode="&#x157;" horiz-adv-x="397" 
d="M106 419q4 27 8.5 46.5t14 33t26 21t44.5 11.5q56 6 108.5 7.5t102.5 -0.5q16 0 21 -4.5t2 -20.5l-16 -89q-2 -15 -9 -17t-20 0q-42 6 -74 8t-67 4l-57 -398q-2 -14 -7.5 -17.5t-18.5 -3.5h-93q-11 0 -16.5 3.5t-3.5 17.5zM81 -294q-5 -11 -9 -15.5t-14 -4.5h-44
q-24 0 -19 18l42 199q2 8 6.5 14t16.5 6h98q14 0 15.5 -6t-0.5 -14z" />
    <glyph glyph-name="Rcaron" unicode="&#x158;" horiz-adv-x="648" 
d="M199 21q-2 -14 -6.5 -17.5t-18.5 -3.5h-104q-11 0 -16.5 4.5t-3.5 16.5l88 619q4 30 17.5 45.5t48.5 15.5h235q98 0 147.5 -47.5t49.5 -128.5q0 -73 -35.5 -123t-97.5 -76l-1 -3q41 -12 56 -37.5t20 -62.5l24 -200q2 -10 0 -16.5t-14 -6.5h-105q-11 0 -23 2.5t-14 17.5
l-18 177q-5 49 -29 68t-72 19h-91zM254 407h129q47 0 73.5 26.5t26.5 68.5q0 12 -3.5 23.5t-12 21t-22.5 15t-36 5.5h-133zM592 902q6 -8 3.5 -13t-10.5 -12l-156 -119q-15 -11 -28 -15.5t-26 -4.5q-11 0 -22 3.5t-21 13.5l-123 124q-6 6 -4.5 11t8.5 12l29 28q8 8 13 7.5
t13 -5.5l123 -76l152 79q9 5 13.5 6t10.5 -7z" />
    <glyph glyph-name="rcaron" unicode="&#x159;" horiz-adv-x="397" 
d="M106 419q4 27 8.5 46.5t14 33t26 21t44.5 11.5q56 6 108.5 7.5t102.5 -0.5q16 0 21 -4.5t2 -20.5l-16 -89q-2 -15 -9 -17t-20 0q-42 6 -74 8t-67 4l-57 -398q-2 -14 -7.5 -17.5t-18.5 -3.5h-93q-11 0 -16.5 3.5t-3.5 17.5zM484 763q8 -8 6 -14t-10 -14l-158 -146
q-13 -12 -26 -16.5t-30 -4.5q-11 0 -23 4t-20 15l-119 150q-9 13 4 23l34 28q8 6 13 6.5t12 -5.5l116 -99l149 99q9 6 14.5 6.5t12.5 -6.5z" />
    <glyph glyph-name="Sacute" unicode="&#x15a;" horiz-adv-x="582" 
d="M286 -11q-32 0 -66 3.5t-67 11t-64 19.5t-56 29q-7 5 -8 11t6 19l38 80q6 12 12 14t17 -3q18 -8 40.5 -16.5t47 -15t50 -11t50.5 -4.5q34 0 55.5 7t34.5 18t18 25t5 28q0 27 -22 44.5t-74 42.5q-48 23 -85.5 46t-63.5 48.5t-40 55.5t-14 66q0 93 65.5 149t187.5 56
q55 0 111 -11t96 -33q11 -5 13 -11.5t-3 -22.5l-24 -75q-6 -15 -13 -16.5t-18 1.5q-43 14 -86.5 23t-82.5 9q-47 0 -66.5 -19t-19.5 -44q0 -20 23.5 -39t79.5 -44q43 -19 80 -39.5t64 -46.5t42 -59t15 -76q0 -57 -21 -98.5t-58.5 -68.5t-88.5 -40t-110 -13zM460 941
q6 5 11 6t13 -7l56 -78q5 -6 3 -11.5t-8 -7.5l-196 -98q-8 -4 -13 -3.5t-10 7.5l-29 44q-4 7 -4.5 11t8.5 12z" />
    <glyph glyph-name="sacute" unicode="&#x15b;" horiz-adv-x="483" 
d="M229 108q37 0 53.5 14t16.5 35q0 18 -18.5 31.5t-60.5 30.5q-66 28 -102.5 65t-36.5 91q0 75 52.5 119t150.5 44q45 0 88.5 -8.5t76.5 -25.5q10 -5 10.5 -10.5t-4.5 -17.5l-24 -64q-5 -11 -10.5 -12.5t-14.5 2.5q-35 11 -64 17t-61 6q-16 0 -26.5 -4.5t-17 -11t-9.5 -14
t-3 -13.5q0 -18 17 -29.5t56 -28.5q31 -13 58 -27.5t47 -34t31.5 -45t11.5 -59.5q0 -44 -17 -76t-46.5 -52.5t-69.5 -30.5t-86 -10q-50 0 -104.5 11.5t-92.5 37.5q-7 5 -7.5 10t4.5 16l30 68q5 11 11 13t16 -3q38 -17 76 -25.5t69 -8.5zM277 572q-13 5 -25.5 9.5t-25.5 9.5
q-9 3 -9 8t4 12q23 44 45.5 87t45.5 87q9 17 23 12l98 -26q8 -2 9 -7.5t-3 -10.5q-35 -43 -69.5 -86t-69.5 -86q-7 -9 -11 -10.5t-12 1.5z" />
    <glyph glyph-name="Scircumflex" unicode="&#x15c;" horiz-adv-x="582" 
d="M286 -11q-32 0 -66 3.5t-67 11t-64 19.5t-56 29q-7 5 -8 11t6 19l38 80q6 12 12 14t17 -3q18 -8 40.5 -16.5t47 -15t50 -11t50.5 -4.5q34 0 55.5 7t34.5 18t18 25t5 28q0 27 -22 44.5t-74 42.5q-48 23 -85.5 46t-63.5 48.5t-40 55.5t-14 66q0 93 65.5 149t187.5 56
q55 0 111 -11t96 -33q11 -5 13 -11.5t-3 -22.5l-24 -75q-6 -15 -13 -16.5t-18 1.5q-43 14 -86.5 23t-82.5 9q-47 0 -66.5 -19t-19.5 -44q0 -20 23.5 -39t79.5 -44q43 -19 80 -39.5t64 -46.5t42 -59t15 -76q0 -57 -21 -98.5t-58.5 -68.5t-88.5 -40t-110 -13zM572 798
q8 -7 6 -12.5t-10 -13.5l-28 -29q-5 -7 -11.5 -6t-15.5 7l-127 76l-143 -75q-8 -5 -13 -5.5t-11 7.5l-22 27q-6 7 -5 12t8 12l140 113q17 13 32.5 20.5t29.5 7.5q17 0 30 -6.5t29 -21.5z" />
    <glyph glyph-name="scircumflex" unicode="&#x15d;" horiz-adv-x="483" 
d="M229 108q37 0 53.5 14t16.5 35q0 18 -18.5 31.5t-60.5 30.5q-66 28 -102.5 65t-36.5 91q0 75 52.5 119t150.5 44q45 0 88.5 -8.5t76.5 -25.5q10 -5 10.5 -10.5t-4.5 -17.5l-24 -64q-5 -11 -10.5 -12.5t-14.5 2.5q-35 11 -64 17t-61 6q-16 0 -26.5 -4.5t-17 -11t-9.5 -14
t-3 -13.5q0 -18 17 -29.5t56 -28.5q31 -13 58 -27.5t47 -34t31.5 -45t11.5 -59.5q0 -44 -17 -76t-46.5 -52.5t-69.5 -30.5t-86 -10q-50 0 -104.5 11.5t-92.5 37.5q-7 5 -7.5 10t4.5 16l30 68q5 11 11 13t16 -3q38 -17 76 -25.5t69 -8.5zM487 625q7 -8 5.5 -13.5t-9.5 -13.5
l-30 -25q-14 -10 -27 2l-117 97l-147 -105q-8 -5 -13 -5t-12 8l-29 30q-5 7 -4 11.5t7 12.5l145 137q17 14 32.5 22.5t29.5 8.5q22 0 35 -7t25 -24z" />
    <glyph glyph-name="Scedilla" unicode="&#x15e;" horiz-adv-x="582" 
d="M278 -11l-22 -43q34 -2 56 -10.5t34.5 -21.5t17.5 -28.5t5 -31.5q0 -20 -9.5 -39.5t-28 -34.5t-46 -24t-63.5 -9q-31 0 -63 7t-50 15q-7 3 -7.5 7t3.5 14l14 36q5 11 8 11.5t10 -1.5q18 -7 34.5 -10.5t34.5 -3.5q24 0 39 8t17 27q1 17 -14.5 23.5t-38.5 6.5
q-17 0 -22.5 0.5t-9.5 5.5q-6 5 -3.5 13t7.5 17l36 70q-50 5 -98 19t-86 40q-7 5 -8 11t6 19l38 80q6 12 12 14t17 -3q18 -8 40.5 -16.5t47 -15t50 -11t50.5 -4.5q34 0 55.5 7t34.5 18t18 25t5 28q0 27 -22 44.5t-74 42.5q-48 23 -85.5 46t-63.5 48.5t-40 55.5t-14 66
q0 93 65.5 149t187.5 56q55 0 111 -11t96 -33q11 -5 13 -11.5t-3 -22.5l-24 -75q-6 -15 -13 -16.5t-18 1.5q-43 14 -86.5 23t-82.5 9q-47 0 -66.5 -19t-19.5 -44q0 -20 23.5 -39t79.5 -44q43 -19 80 -39.5t64 -46.5t42 -59t15 -76q0 -57 -21 -98.5t-58.5 -68.5t-88.5 -40
t-110 -13h-8z" />
    <glyph glyph-name="scedilla" unicode="&#x15f;" horiz-adv-x="483" 
d="M229 108q37 0 53.5 14t16.5 35q0 18 -18.5 31.5t-60.5 30.5q-66 28 -102.5 65t-36.5 91q0 75 52.5 119t150.5 44q45 0 88.5 -8.5t76.5 -25.5q10 -5 10.5 -10.5t-4.5 -17.5l-24 -64q-5 -11 -10.5 -12.5t-14.5 2.5q-35 11 -64 17t-61 6q-16 0 -26.5 -4.5t-17 -11t-9.5 -14
t-3 -13.5q0 -18 17 -29.5t56 -28.5q31 -13 58 -27.5t47 -34t31.5 -45t11.5 -59.5q0 -44 -17 -76t-46.5 -52.5t-69.5 -30.5t-86 -10h-5l-22 -43q34 -2 56 -10.5t34.5 -21.5t17.5 -28.5t5 -31.5q0 -20 -9.5 -39.5t-28 -34.5t-46 -24t-63.5 -9q-31 0 -63 7t-50 15q-7 3 -7.5 7
t3.5 14l14 36q5 11 8 11.5t10 -1.5q18 -7 34.5 -10.5t34.5 -3.5q24 0 39 8t17 27q1 17 -14.5 23.5t-38.5 6.5q-17 0 -22.5 0.5t-9.5 5.5q-6 5 -3.5 13t7.5 17l36 70q-37 5 -71 16t-60 29q-7 5 -7.5 10t4.5 16l30 68q5 11 11 13t16 -3q38 -17 76 -25.5t69 -8.5z" />
    <glyph glyph-name="Scaron" unicode="&#x160;" horiz-adv-x="582" 
d="M286 -11q-32 0 -66 3.5t-67 11t-64 19.5t-56 29q-7 5 -8 11t6 19l38 80q6 12 12 14t17 -3q18 -8 40.5 -16.5t47 -15t50 -11t50.5 -4.5q34 0 55.5 7t34.5 18t18 25t5 28q0 27 -22 44.5t-74 42.5q-48 23 -85.5 46t-63.5 48.5t-40 55.5t-14 66q0 93 65.5 149t187.5 56
q55 0 111 -11t96 -33q11 -5 13 -11.5t-3 -22.5l-24 -75q-6 -15 -13 -16.5t-18 1.5q-43 14 -86.5 23t-82.5 9q-47 0 -66.5 -19t-19.5 -44q0 -20 23.5 -39t79.5 -44q43 -19 80 -39.5t64 -46.5t42 -59t15 -76q0 -57 -21 -98.5t-58.5 -68.5t-88.5 -40t-110 -13zM589 901
q6 -8 3.5 -13t-10.5 -12l-156 -119q-15 -11 -28 -15.5t-26 -4.5q-11 0 -22 3.5t-21 13.5l-123 124q-6 6 -4.5 11t8.5 12l29 28q8 8 13 7.5t13 -5.5l123 -76l152 79q9 5 13.5 6t10.5 -7z" />
    <glyph glyph-name="scaron" unicode="&#x161;" horiz-adv-x="483" 
d="M229 108q37 0 53.5 14t16.5 35q0 18 -18.5 31.5t-60.5 30.5q-66 28 -102.5 65t-36.5 91q0 75 52.5 119t150.5 44q45 0 88.5 -8.5t76.5 -25.5q10 -5 10.5 -10.5t-4.5 -17.5l-24 -64q-5 -11 -10.5 -12.5t-14.5 2.5q-35 11 -64 17t-61 6q-16 0 -26.5 -4.5t-17 -11t-9.5 -14
t-3 -13.5q0 -18 17 -29.5t56 -28.5q31 -13 58 -27.5t47 -34t31.5 -45t11.5 -59.5q0 -44 -17 -76t-46.5 -52.5t-69.5 -30.5t-86 -10q-50 0 -104.5 11.5t-92.5 37.5q-7 5 -7.5 10t4.5 16l30 68q5 11 11 13t16 -3q38 -17 76 -25.5t69 -8.5zM505 765q8 -8 6 -14t-10 -14
l-158 -146q-13 -12 -26 -16.5t-30 -4.5q-11 0 -23 4t-20 15l-119 150q-9 13 4 23l34 28q8 6 13 6.5t12 -5.5l116 -99l149 99q9 6 14.5 6.5t12.5 -6.5z" />
    <glyph glyph-name="Tcommaaccent" unicode="&#x162;" horiz-adv-x="557" 
d="M603 590q-2 -11 -6 -15.5t-15 -4.5h-176l-78 -549q-2 -13 -6.5 -17t-18.5 -4h-104q-12 0 -17 4.5t-3 16.5l78 549h-172q-11 0 -14 4.5t-2 15.5l13 89q2 13 6 17t15 4h497q11 0 14.5 -4t1.5 -17zM222 -294q-5 -11 -9 -15.5t-14 -4.5h-44q-24 0 -19 18l42 199q2 8 6.5 14
t16.5 6h98q14 0 15.5 -6t-0.5 -14z" />
    <glyph glyph-name="tcommaaccent" unicode="&#x163;" horiz-adv-x="409" 
d="M383 26q0 -7 -1 -11.5t-12 -8.5q-37 -11 -75.5 -14t-63.5 -3q-84 0 -116 36.5t-22 107.5l40 285h-69q-11 0 -12.5 5.5t-0.5 13.5l8 54q2 10 4.5 13.5t13.5 6.5l74 17l20 93q3 12 9 17.5t16 8.5l94 30q9 2 14 -2t3 -16l-19 -134h111q11 0 13.5 -4.5t0.5 -12.5l-10 -71
q-2 -10 -4.5 -14.5t-14.5 -4.5h-111l-35 -254q-4 -29 7.5 -40t40.5 -11q14 0 34.5 2.5t34.5 4.5q10 2 13 -1.5t4 -10.5zM142 -294q-5 -11 -9 -15.5t-14 -4.5h-44q-24 0 -19 18l42 199q2 8 6.5 14t16.5 6h98q14 0 15.5 -6t-0.5 -14z" />
    <glyph glyph-name="Tcaron" unicode="&#x164;" horiz-adv-x="557" 
d="M603 590q-2 -11 -6 -15.5t-15 -4.5h-176l-78 -549q-2 -13 -6.5 -17t-18.5 -4h-104q-12 0 -17 4.5t-3 16.5l78 549h-172q-11 0 -14 4.5t-2 15.5l13 89q2 13 6 17t15 4h497q11 0 14.5 -4t1.5 -17zM569 901q6 -8 3.5 -13t-10.5 -12l-156 -119q-15 -11 -28 -15.5t-26 -4.5
q-11 0 -22 3.5t-21 13.5l-123 124q-6 6 -4.5 11t8.5 12l29 28q8 8 13 7.5t13 -5.5l123 -76l152 79q9 5 13.5 6t10.5 -7z" />
    <glyph glyph-name="tcaron" unicode="&#x165;" horiz-adv-x="480" 
d="M383 26q0 -7 -1 -11.5t-12 -8.5q-37 -11 -75.5 -14t-63.5 -3q-84 0 -116 36.5t-22 107.5l40 285h-69q-11 0 -12.5 5.5t-0.5 13.5l8 54q2 10 4.5 13.5t13.5 6.5l74 17l20 93q3 12 9 17.5t16 8.5l94 30q9 2 14 -2t3 -16l-19 -134h111q11 0 13.5 -4.5t0.5 -12.5l-10 -71
q-2 -10 -4.5 -14.5t-14.5 -4.5h-111l-35 -254q-4 -29 7.5 -40t40.5 -11q14 0 34.5 2.5t34.5 4.5q10 2 13 -1.5t4 -10.5zM491 594q-5 -11 -9 -15.5t-14 -4.5h-44q-24 0 -19 18l42 199q2 8 6.5 14t16.5 6h98q14 0 15.5 -6t-0.5 -14z" />
    <glyph glyph-name="Tbar" unicode="&#x166;" horiz-adv-x="557" 
d="M603 590q-2 -11 -6 -15.5t-15 -4.5h-177l-23 -160h156q8 0 10 -4t1 -12l-8 -52q-2 -11 -4.5 -14t-10.5 -3h-156l-43 -306q-2 -11 -5.5 -15t-15.5 -4h-109q-21 0 -18 19l43 306h-148q-8 0 -9.5 3t0.5 14l8 52q1 16 14 16h147l23 160h-172q-11 0 -14 4.5t-2 15.5l13 89
q2 13 6 17t15 4h497q11 0 14.5 -4t1.5 -17l-13 -89v0z" />
    <glyph glyph-name="tbar" unicode="&#x167;" horiz-adv-x="409" 
d="M383 26q0 -7 -1 -11t-12 -9q-18 -6 -39 -9.5t-40.5 -5t-36 -2t-25.5 -0.5q-83 0 -114.5 36.5t-21.5 107.5l16 117h-59q-8 0 -10.5 3t-0.5 13l7 49q1 17 15 17h59l13 86h-69q-11 0 -12.5 5.5t-0.5 13.5l8 54q2 10 4.5 13.5t13.5 6.5l74 17l20 94q2 12 8.5 17t16.5 8l94 30
q9 2 14 -2t3 -16l-19 -134h106q11 0 13 -4.5t0 -12.5l-10 -71q-2 -10 -4 -14.5t-14 -4.5h-106l-12 -86h104q11 0 10 -17l-7 -49q-2 -10 -4 -13t-10 -3h-104l-12 -82q-4 -29 7.5 -40t40.5 -11q14 0 35.5 2.5t34.5 4.5q11 2 13.5 -2t3.5 -12l10 -84v0z" />
    <glyph glyph-name="Utilde" unicode="&#x168;" horiz-adv-x="696" 
d="M610 97q-5 -35 -23 -60t-61 -36q-20 -5 -43.5 -7.5t-47 -3.5t-44 -1.5t-33.5 -0.5q-85 0 -142.5 14.5t-89.5 49.5t-40.5 93t3.5 146l53 388q2 12 8 16.5t17 4.5h104q15 0 18.5 -4t1.5 -17l-56 -397q-6 -41 -3.5 -71.5t16.5 -50.5t42.5 -29.5t75.5 -9.5q7 0 19 0.5t26 1
t29.5 2t28.5 4.5l78 550q2 12 7.5 16.5t17.5 4.5h102q15 0 18 -4t1 -17zM491 759q-18 0 -34 6t-31.5 13.5t-31 13.5t-31.5 6q-26 0 -51 -30q-7 -8 -11.5 -10.5t-14.5 3.5l-39 23q-11 6 -11 9.5t5 12.5q24 39 56.5 63t74.5 24q18 0 34 -6t30.5 -13.5t28.5 -14t30 -6.5
q24 0 51 35q8 10 10 11.5t10 -2.5l45 -20q9 -5 11 -8.5t-3 -14.5q-46 -95 -128 -95z" />
    <glyph glyph-name="utilde" unicode="&#x169;" horiz-adv-x="582" 
d="M301 108q10 0 28.5 1t39.5 4l54 394q2 11 6 15t18 4h100q20 0 17 -19l-60 -427q-5 -34 -20.5 -54t-50.5 -28q-12 -2 -30 -4t-38.5 -3.5t-40 -2t-33.5 -0.5q-71 0 -118 13t-73 42.5t-33 77t3 115.5l39 271q2 11 5.5 15t17.5 4h101q20 0 17 -19l-37 -268q-5 -35 -4.5 -59.5
t9.5 -40.5t28.5 -23.5t54.5 -7.5zM421 595q-18 0 -34 6t-31.5 13.5t-31 13.5t-31.5 6q-26 0 -51 -30q-7 -8 -11.5 -10.5t-14.5 3.5l-39 23q-11 6 -11 9.5t5 12.5q24 39 56.5 63t74.5 24q18 0 34 -6t30.5 -13.5t28.5 -14t30 -6.5q24 0 51 35q8 10 10 11.5t10 -2.5l45 -20
q9 -5 11 -8.5t-3 -14.5q-46 -95 -128 -95z" />
    <glyph glyph-name="Umacron" unicode="&#x16a;" horiz-adv-x="696" 
d="M610 97q-5 -35 -23 -60t-61 -36q-20 -5 -43.5 -7.5t-47 -3.5t-44 -1.5t-33.5 -0.5q-85 0 -142.5 14.5t-89.5 49.5t-40.5 93t3.5 146l53 388q2 12 8 16.5t17 4.5h104q15 0 18.5 -4t1.5 -17l-56 -397q-6 -41 -3.5 -71.5t16.5 -50.5t42.5 -29.5t75.5 -9.5q7 0 19 0.5t26 1
t29.5 2t28.5 4.5l78 550q2 12 7.5 16.5t17.5 4.5h102q15 0 18 -4t1 -17zM564 792q-3 -21 -22 -21h-262q-20 0 -17 21l9 60q2 14 7 17.5t16 3.5h262q11 0 14.5 -3.5t1.5 -17.5z" />
    <glyph glyph-name="umacron" unicode="&#x16b;" horiz-adv-x="582" 
d="M301 108q10 0 28.5 1t39.5 4l54 394q2 11 6 15t18 4h100q20 0 17 -19l-60 -427q-5 -34 -20.5 -54t-50.5 -28q-12 -2 -30 -4t-38.5 -3.5t-40 -2t-33.5 -0.5q-71 0 -118 13t-73 42.5t-33 77t3 115.5l39 271q2 11 5.5 15t17.5 4h101q20 0 17 -19l-37 -268q-5 -35 -4.5 -59.5
t9.5 -40.5t28.5 -23.5t54.5 -7.5zM502 619q-3 -21 -22 -21h-262q-20 0 -17 21l9 60q2 14 7 17.5t16 3.5h262q11 0 14.5 -3.5t1.5 -17.5z" />
    <glyph glyph-name="Ubreve" unicode="&#x16c;" horiz-adv-x="696" 
d="M610 97q-5 -35 -23 -60t-61 -36q-20 -5 -43.5 -7.5t-47 -3.5t-44 -1.5t-33.5 -0.5q-85 0 -142.5 14.5t-89.5 49.5t-40.5 93t3.5 146l53 388q2 12 8 16.5t17 4.5h104q15 0 18.5 -4t1.5 -17l-56 -397q-6 -41 -3.5 -71.5t16.5 -50.5t42.5 -29.5t75.5 -9.5q7 0 19 0.5t26 1
t29.5 2t28.5 4.5l78 550q2 12 7.5 16.5t17.5 4.5h102q15 0 18 -4t1 -17zM404 743q-29 0 -53.5 9.5t-45 26t-37 37t-28.5 43.5q-2 3 -3 8.5t8 13.5l45 38q10 7 13 5t9 -8q27 -32 55 -50t57 -18q12 0 24.5 2t28 9.5t35 21t45.5 37.5q10 8 13.5 7.5t8.5 -5.5l32 -33q9 -9 7 -14
t-6 -9q-105 -121 -208 -121z" />
    <glyph glyph-name="ubreve" unicode="&#x16d;" horiz-adv-x="582" 
d="M301 108q10 0 28.5 1t39.5 4l54 394q2 11 6 15t18 4h100q20 0 17 -19l-60 -427q-5 -34 -20.5 -54t-50.5 -28q-12 -2 -30 -4t-38.5 -3.5t-40 -2t-33.5 -0.5q-71 0 -118 13t-73 42.5t-33 77t3 115.5l39 271q2 11 5.5 15t17.5 4h101q20 0 17 -19l-37 -268q-5 -35 -4.5 -59.5
t9.5 -40.5t28.5 -23.5t54.5 -7.5zM339 576q-29 0 -53.5 9.5t-45 26t-37 37t-28.5 43.5q-2 3 -3 8.5t8 13.5l45 38q10 7 13 5t9 -8q27 -32 55 -50t57 -18q12 0 24.5 2t28 9.5t35 21t45.5 37.5q10 8 13.5 7.5t8.5 -5.5l32 -33q9 -9 7 -14t-6 -9q-105 -121 -208 -121z" />
    <glyph glyph-name="Uring" unicode="&#x16e;" horiz-adv-x="696" 
d="M610 97q-5 -35 -23 -60t-61 -36q-20 -5 -43.5 -7.5t-47 -3.5t-44 -1.5t-33.5 -0.5q-85 0 -142.5 14.5t-89.5 49.5t-40.5 93t3.5 146l53 388q2 12 8 16.5t17 4.5h104q15 0 18.5 -4t1.5 -17l-56 -397q-6 -41 -3.5 -71.5t16.5 -50.5t42.5 -29.5t75.5 -9.5q7 0 19 0.5t26 1
t29.5 2t28.5 4.5l78 550q2 12 7.5 16.5t17.5 4.5h102q15 0 18 -4t1 -17zM433 895q-23 0 -38.5 -16.5t-15.5 -42.5q0 -18 10.5 -29t28.5 -11q22 0 39 16t17 42q0 18 -11.5 29.5t-29.5 11.5zM442 964q47 0 76 -27.5t29 -72.5q0 -29 -11.5 -54t-30.5 -43t-44 -28.5t-52 -10.5
q-47 0 -75.5 27t-28.5 72q0 29 11 54t29.5 43.5t43.5 29t53 10.5z" />
    <glyph glyph-name="uring" unicode="&#x16f;" horiz-adv-x="582" 
d="M301 108q10 0 28.5 1t39.5 4l54 394q2 11 6 15t18 4h100q20 0 17 -19l-60 -427q-5 -34 -20.5 -54t-50.5 -28q-12 -2 -30 -4t-38.5 -3.5t-40 -2t-33.5 -0.5q-71 0 -118 13t-73 42.5t-33 77t3 115.5l39 271q2 11 5.5 15t17.5 4h101q20 0 17 -19l-37 -268q-5 -35 -4.5 -59.5
t9.5 -40.5t28.5 -23.5t54.5 -7.5zM374 736q-23 0 -38.5 -16.5t-15.5 -42.5q0 -18 10.5 -29t28.5 -11q22 0 39 16t17 42q0 18 -11.5 29.5t-29.5 11.5zM383 805q47 0 76 -27.5t29 -72.5q0 -29 -11.5 -54t-30.5 -43t-44 -28.5t-52 -10.5q-47 0 -75.5 27t-28.5 72q0 29 11 54
t29.5 43.5t43.5 29t53 10.5z" />
    <glyph glyph-name="Uhungarumlaut" unicode="&#x170;" horiz-adv-x="696" 
d="M610 97q-5 -35 -23 -60t-61 -36q-20 -5 -43.5 -7.5t-47 -3.5t-44 -1.5t-33.5 -0.5q-85 0 -142.5 14.5t-89.5 49.5t-40.5 93t3.5 146l53 388q2 12 8 16.5t17 4.5h104q15 0 18.5 -4t1.5 -17l-56 -397q-6 -41 -3.5 -71.5t16.5 -50.5t42.5 -29.5t75.5 -9.5q7 0 19 0.5t26 1
t29.5 2t28.5 4.5l78 550q2 12 7.5 16.5t17.5 4.5h102q15 0 18 -4t1 -17zM265 788q-5 7 -4.5 11.5t8.5 10.5l165 123q7 6 12 6.5t11 -7.5l51 -68q9 -12 -4 -19l-189 -96q-8 -4 -14 -4t-11 8zM478 788q-5 7 -4.5 11.5t8.5 10.5l165 123q13 12 23 -1l51 -68q9 -12 -4 -19
l-189 -96q-8 -4 -14 -4t-11 8z" />
    <glyph glyph-name="uhungarumlaut" unicode="&#x171;" horiz-adv-x="582" 
d="M301 108q10 0 28.5 1t39.5 4l54 394q2 11 6 15t18 4h100q20 0 17 -19l-60 -427q-5 -34 -20.5 -54t-50.5 -28q-12 -2 -30 -4t-38.5 -3.5t-40 -2t-33.5 -0.5q-71 0 -118 13t-73 42.5t-33 77t3 115.5l39 271q2 11 5.5 15t17.5 4h101q20 0 17 -19l-37 -268q-5 -35 -4.5 -59.5
t9.5 -40.5t28.5 -23.5t54.5 -7.5zM217 591q-9 4 -9.5 8t4.5 12l91 174q9 17 23 12l95 -26q17 -6 6 -18l-139 -172q-6 -8 -10.5 -10t-12.5 1zM379 591q-9 4 -9.5 8t4.5 12l91 174q9 17 23 12l95 -26q17 -6 6 -18l-139 -172q-6 -8 -10.5 -10t-12.5 1z" />
    <glyph glyph-name="Uogonek" unicode="&#x172;" horiz-adv-x="696" 
d="M316 -227q-53 0 -76.5 22t-23.5 54q0 30 22 69.5t57 71.5q-67 5 -111.5 23t-69.5 53.5t-30.5 90.5t5.5 134l53 388q2 12 8 16.5t17 4.5h104q15 0 18.5 -4t1.5 -17l-56 -397q-6 -41 -3.5 -71.5t16.5 -50.5t42.5 -29.5t75.5 -9.5q7 0 19 0.5t26 1t29.5 2t28.5 4.5l78 550
q2 12 7.5 16.5t17.5 4.5h102q15 0 18 -4t1 -17l-83 -582q-5 -35 -23 -60t-61 -36q-16 -4 -35.5 -6t-39 -3.5t-38 -2.5t-33.5 -1q-31 -30 -44 -55.5t-13 -45.5q0 -32 45 -32q11 0 27.5 2t30.5 5q8 2 12.5 1t5.5 -10l8 -37q3 -15 -12 -20q-30 -13 -62.5 -18t-61.5 -5z" />
    <glyph glyph-name="uogonek" unicode="&#x173;" horiz-adv-x="582" 
d="M380 -222q-53 0 -76.5 22t-23.5 54q0 29 20 66.5t53 69.5q-17 -1 -33.5 -1.5t-28.5 -0.5q-71 0 -118 13t-73 42.5t-33 77t3 115.5l39 271q2 11 5.5 15t17.5 4h101q20 0 17 -19l-37 -268q-5 -35 -4.5 -59.5t9.5 -40.5t28.5 -23.5t54.5 -7.5q10 0 28.5 1t39.5 4l54 394
q2 11 6 15t18 4h100q20 0 17 -19l-60 -427q-4 -27 -14 -45.5t-32 -28.5q-39 -35 -55 -63t-16 -51q0 -32 45 -32q11 0 27.5 2t30.5 5q8 2 12.5 1t5.5 -10l8 -37q3 -15 -12 -20q-30 -13 -62.5 -18t-61.5 -5z" />
    <glyph glyph-name="Wcircumflex" unicode="&#x174;" horiz-adv-x="878" 
d="M484 503l-67 -184l-96 -266q-7 -17 -14 -28t-15 -17t-19 -8t-25 -2h-56q-14 0 -24.5 1t-18 6t-12 15t-5.5 29l-47 633q-2 14 2.5 17t14.5 3h114q14 0 20.5 -3.5t7.5 -18.5l8 -290l5 -179h6l62 181l88 252q6 16 12 27t14 17.5t19 9.5t27 3h57q29 0 37.5 -12.5t10.5 -40.5
l18 -263l11 -170h6l51 170l90 293q5 15 10.5 19t18.5 4h128q9 0 12.5 -3.5t-1.5 -16.5l-227 -630q-7 -19 -14 -29.5t-15.5 -16t-19 -6.5t-24.5 -1h-53q-29 0 -42.5 9t-18.5 46l-19 266l-13 184h-4zM717 795q8 -7 6 -12.5t-10 -13.5l-28 -29q-5 -7 -11.5 -6t-15.5 7l-127 76
l-143 -75q-8 -5 -13 -5.5t-11 7.5l-22 27q-6 7 -5 12t8 12l140 113q17 13 32.5 20.5t29.5 7.5q17 0 30 -6.5t29 -21.5z" />
    <glyph glyph-name="wcircumflex" unicode="&#x175;" horiz-adv-x="769" 
d="M405 327l-61 -138l-63 -142q-16 -32 -29.5 -42t-39.5 -10h-54q-23 0 -36 10t-16 44l-46 459q-1 11 3 14.5t13 3.5h108q12 0 17 -2t6 -14l8 -189l4 -151h6l52 126l66 156q11 25 24 36.5t40 11.5h52q25 0 32 -13t12 -35l22 -154l18 -129h6l45 159l57 181q4 11 8.5 13.5
t15.5 2.5l114 1q9 0 12.5 -3.5t-1.5 -14.5l-175 -459q-14 -34 -30 -44t-39 -10h-50q-14 0 -23 1.5t-15 7t-10.5 16t-7.5 27.5l-22 144l-19 136h-4zM638 622q7 -8 5.5 -13.5t-9.5 -13.5l-30 -25q-14 -10 -27 2l-117 97l-147 -105q-8 -5 -13 -5t-12 8l-29 30q-5 7 -4 11.5
t7 12.5l145 137q17 14 32.5 22.5t29.5 8.5q22 0 35 -7t25 -24z" />
    <glyph glyph-name="Ycircumflex" unicode="&#x176;" horiz-adv-x="606" 
d="M330 397l86 148l83 137q6 10 12 14.5t18 4.5h128q14 0 13.5 -6t-3.5 -12l-278 -425l-33 -238q-2 -11 -5.5 -15.5t-16.5 -4.5h-107q-20 0 -17 20l32 236l-162 426q-2 5 1 12t14 7h117q15 0 19 -5t7 -17l46 -139l41 -143h5zM575 795q8 -7 6 -12.5t-10 -13.5l-28 -29
q-5 -7 -11.5 -6t-15.5 7l-127 76l-143 -75q-8 -5 -13 -5.5t-11 7.5l-22 27q-6 7 -5 12t8 12l140 113q17 13 32.5 20.5t29.5 7.5q17 0 30 -6.5t29 -21.5z" />
    <glyph glyph-name="ycircumflex" unicode="&#x177;" horiz-adv-x="542" 
d="M571 525q8 0 10.5 -4t-2.5 -12l-279 -600q-30 -64 -69.5 -95.5t-108.5 -31.5q-28 0 -61.5 5.5t-62.5 15.5q-14 5 -16 9t2 16l21 76q4 13 9 13.5t17 -2.5q20 -6 40 -9.5t32 -3.5q16 0 28 3t21.5 10t17.5 19t17 31l25 54h-23q-22 0 -31 8t-14 35l-83 444q-3 11 1.5 15
t12.5 4h108q14 0 19 -3.5t6 -14.5l27 -202l22 -174h6l74 177l84 197q5 11 10 15.5t19 4.5h121zM524 623q7 -8 5.5 -13.5t-9.5 -13.5l-30 -25q-14 -10 -27 2l-117 97l-147 -105q-8 -5 -13 -5t-12 8l-29 30q-5 7 -4 11.5t7 12.5l145 137q17 14 32.5 22.5t29.5 8.5q22 0 35 -7
t25 -24z" />
    <glyph glyph-name="Ydieresis" unicode="&#x178;" horiz-adv-x="606" 
d="M330 397l86 148l83 137q6 10 12 14.5t18 4.5h128q14 0 13.5 -6t-3.5 -12l-278 -425l-33 -238q-2 -11 -5.5 -15.5t-16.5 -4.5h-107q-20 0 -17 20l32 236l-162 426q-2 5 1 12t14 7h117q15 0 19 -5t7 -17l46 -139l41 -143h5zM497 893q26 0 44 -18.5t18 -45.5q0 -16 -7.5 -31
t-19 -26.5t-26.5 -18.5t-30 -7q-27 0 -45 18.5t-18 44.5q0 17 7 32t19 26.5t27 18.5t31 7zM297 893q26 0 44.5 -18.5t18.5 -46.5q0 -16 -7.5 -30.5t-19.5 -26t-27 -18.5t-30 -7q-26 0 -44 18.5t-18 44.5q0 17 7 32t19 26.5t27 18.5t30 7z" />
    <glyph glyph-name="Zacute" unicode="&#x179;" horiz-adv-x="610" 
d="M634 611q-3 -23 -16.5 -42.5t-28.5 -35.5l-371 -396l1 -7h334q11 0 13.5 -4t0.5 -18l-13 -87q-2 -12 -5.5 -16.5t-13.5 -4.5h-475q-27 0 -40 12.5t-9 41.5l3 24q4 24 14.5 41.5t27.5 35.5l386 410v6h-295q-18 0 -15 21l12 87q2 14 6 18t15 4h424q32 0 43.5 -12t6.5 -45z
M505 934q6 5 11 6t13 -7l56 -78q5 -6 3 -11.5t-8 -7.5l-196 -98q-8 -4 -13 -3.5t-10 7.5l-29 44q-4 7 -4.5 11t8.5 12z" />
    <glyph glyph-name="zacute" unicode="&#x17a;" horiz-adv-x="489" 
d="M492 450q-2 -15 -8.5 -29.5t-19.5 -27.5l-266 -270l2 -5h240q11 0 14 -3.5t1 -14.5l-10 -81q-2 -11 -5.5 -15t-14.5 -4h-381q-24 0 -34 11.5t-8 31.5l5 30q2 15 8 30t23 32l267 270l-2 4h-207q-11 0 -14 4t-1 15l11 78q2 11 6 15t15 4h341q24 0 35 -7.5t8 -32.5zM314 572
q-13 5 -25.5 9.5t-25.5 9.5q-9 3 -9 8t4 12q23 44 45.5 87t45.5 87q9 17 23 12l98 -26q8 -2 9 -7.5t-3 -10.5q-35 -43 -69.5 -86t-69.5 -86q-7 -9 -11 -10.5t-12 1.5z" />
    <glyph glyph-name="Zdotaccent" unicode="&#x17b;" horiz-adv-x="610" 
d="M634 611q-3 -23 -16.5 -42.5t-28.5 -35.5l-371 -396l1 -7h334q11 0 13.5 -4t0.5 -18l-13 -87q-2 -12 -5.5 -16.5t-13.5 -4.5h-475q-27 0 -40 12.5t-9 41.5l3 24q4 24 14.5 41.5t27.5 35.5l386 410v6h-295q-18 0 -15 21l12 87q2 14 6 18t15 4h424q32 0 43.5 -12t6.5 -45z
M416 908q31 0 51 -20.5t20 -50.5q0 -19 -8 -36t-21 -29.5t-30 -19.5t-34 -7q-29 0 -49 19.5t-20 49.5q0 19 7.5 36t20.5 30t29 20.5t34 7.5z" />
    <glyph glyph-name="zdotaccent" unicode="&#x17c;" horiz-adv-x="489" 
d="M492 450q-2 -15 -8.5 -29.5t-19.5 -27.5l-266 -270l2 -5h240q11 0 14 -3.5t1 -14.5l-10 -81q-2 -11 -5.5 -15t-14.5 -4h-381q-24 0 -34 11.5t-8 31.5l5 30q2 15 8 30t23 32l267 270l-2 4h-207q-11 0 -14 4t-1 15l11 78q2 11 6 15t15 4h341q24 0 35 -7.5t8 -32.5zM339 758
q31 0 51 -20.5t20 -50.5q0 -19 -8 -36t-21 -29.5t-30 -19.5t-34 -7q-29 0 -49 19.5t-20 49.5q0 19 7.5 36t20.5 30t29 20.5t34 7.5z" />
    <glyph glyph-name="Zcaron" unicode="&#x17d;" horiz-adv-x="610" 
d="M634 611q-3 -23 -16.5 -42.5t-28.5 -35.5l-371 -396l1 -7h334q11 0 13.5 -4t0.5 -18l-13 -87q-2 -12 -5.5 -16.5t-13.5 -4.5h-475q-27 0 -40 12.5t-9 41.5l3 24q4 24 14.5 41.5t27.5 35.5l386 410v6h-295q-18 0 -15 21l12 87q2 14 6 18t15 4h424q32 0 43.5 -12t6.5 -45z
M624 901q6 -8 3.5 -13t-10.5 -12l-156 -119q-15 -11 -28 -15.5t-26 -4.5q-11 0 -22 3.5t-21 13.5l-123 124q-6 6 -4.5 11t8.5 12l29 28q8 8 13 7.5t13 -5.5l123 -76l152 79q9 5 13.5 6t10.5 -7z" />
    <glyph glyph-name="zcaron" unicode="&#x17e;" horiz-adv-x="489" 
d="M492 450q-2 -15 -8.5 -29.5t-19.5 -27.5l-266 -270l2 -5h240q11 0 14 -3.5t1 -14.5l-10 -81q-2 -11 -5.5 -15t-14.5 -4h-381q-24 0 -34 11.5t-8 31.5l5 30q2 15 8 30t23 32l267 270l-2 4h-207q-11 0 -14 4t-1 15l11 78q2 11 6 15t15 4h341q24 0 35 -7.5t8 -32.5zM523 765
q8 -8 6 -14t-10 -14l-158 -146q-13 -12 -26 -16.5t-30 -4.5q-11 0 -23 4t-20 15l-119 150q-9 13 4 23l34 28q8 6 13 6.5t12 -5.5l116 -99l149 99q9 6 14.5 6.5t12.5 -6.5z" />
    <glyph glyph-name="florin" unicode="&#x192;" horiz-adv-x="634" 
d="M476 703q16 0 45.5 -2t60.5 -11q10 -3 11 -8t-1 -13l-13 -67q-2 -10 -6.5 -11t-17.5 1q-16 3 -29.5 4t-25.5 1q-35 0 -54.5 -21t-31.5 -71q-5 -21 -8 -36t-8 -34h95q10 0 13 -3t3 -14l-1 -65q0 -11 -3 -15.5t-16 -4.5h-112q-6 -27 -12 -58t-12.5 -62.5t-13 -62.5
t-13.5 -58q-12 -46 -25 -84t-33.5 -65.5t-52.5 -42.5t-82 -15q-20 0 -48.5 4t-48.5 15q-6 4 -6.5 8t2.5 13l20 65q2 10 6.5 11.5t12.5 -0.5q25 -6 48 -6q32 1 48.5 23.5t28.5 72.5q18 70 30 129.5t23 112.5h-77q-11 0 -13 6t-2 15v60q1 20 21 20h93q3 15 7 37.5t8 38.5
q8 31 20 65.5t33 62.5t54 46.5t83 18.5z" />
    <glyph glyph-name="Ohorn" unicode="&#x1a0;" horiz-adv-x="769" 
d="M409 575q-47 0 -81.5 -26t-57 -68.5t-34 -96.5t-11.5 -110q0 -70 27.5 -109t94.5 -39q48 0 83 26t57.5 68t33.5 95.5t11 108.5q0 33 -6 60.5t-20.5 47.5t-38 31.5t-58.5 11.5zM684 432q0 -95 -23 -176t-67.5 -140.5t-110.5 -93t-152 -33.5q-132 0 -195.5 71.5
t-63.5 203.5q0 103 25.5 186t72 141t111 89t141.5 31q69 0 119 -21t81 -61q41 4 64 28t32 86l5 40q2 13 8.5 16t14.5 3h70q10 0 13.5 -4t1.5 -15l-7 -57q-11 -72 -48 -124.5t-105 -67.5q5 -20 9 -47.5t4 -54.5z" />
    <glyph glyph-name="ohorn" unicode="&#x1a1;" horiz-adv-x="656" 
d="M334 538q63 0 108 -21t71 -61q32 8 52.5 33t28.5 78l6 41q2 13 7.5 16t14.5 3h70q9 0 13 -4t2 -15l-8 -57q-10 -71 -47 -122.5t-106 -68.5l2 -20t1 -21q0 -75 -19 -136t-55.5 -104t-89.5 -66.5t-121 -23.5q-109 0 -161.5 53.5t-52.5 153.5q0 82 21 146t58.5 107.5
t89.5 66t115 22.5zM321 415q-30 0 -53 -15t-38.5 -42t-23.5 -64t-8 -81q0 -50 19.5 -75.5t62.5 -25.5q31 0 54 16.5t38 44.5t22.5 64.5t7.5 77.5q0 45 -18 72.5t-63 27.5z" />
    <glyph glyph-name="Uhorn" unicode="&#x1af;" horiz-adv-x="794" 
d="M143 680q3 20 18 20h114q14 0 15 -5.5t1 -14.5l-53 -369q-6 -38 -8 -73t9.5 -61t41 -41.5t85.5 -15.5q7 0 18.5 0.5t26 1t29.5 2t29 4.5q19 139 38 276t39 276q3 20 20 20h112q11 0 14 -5.5t1 -14.5l-9 -55h10q22 0 35.5 6t22 19t13 31.5t7.5 44.5q2 14 4 27.5t4 27.5
q2 13 8.5 16t14.5 3h70q12 0 13.5 -4.5t1.5 -14.5q-3 -23 -6 -47t-8 -47q-6 -33 -19 -62.5t-35.5 -52t-55.5 -36t-79 -13.5h-15l-60 -426q-5 -36 -23.5 -61t-61.5 -35q-17 -4 -40.5 -6.5t-47.5 -4t-45 -2t-33 -0.5q-93 0 -151 20.5t-88 60.5t-36 97t5 131z" />
    <glyph glyph-name="uhorn" unicode="&#x1b0;" horiz-adv-x="696" 
d="M302 108q10 0 28 1t39 4l54 394q2 11 6 15t18 4h100q20 0 17 -19l-7 -52h10q21 0 34 6t21.5 18.5t13 31.5t8.5 44l7 56q2 13 8 16t14 3h71q9 0 12.5 -4t1.5 -15l-10 -71q-5 -39 -17.5 -73t-34.5 -59.5t-56 -40t-82 -14.5h-16l-38 -273q-5 -34 -20.5 -54t-50.5 -28
q-12 -2 -30 -4t-38 -3.5t-39.5 -2t-33.5 -0.5q-70 0 -116.5 14t-73 45t-33.5 80.5t3 120.5l37 259q2 11 5.5 15t17.5 4h101q20 0 17 -19l-37 -268q-5 -33 -4 -57.5t10 -41t29 -24.5t54 -8z" />
    <glyph glyph-name="AEacute" unicode="&#x1fc;" horiz-adv-x="897" 
d="M857 21q-2 -11 -6 -16t-15 -5h-293q-45 0 -74.5 11t-46 30.5t-23 46.5t-5.5 59h-188l-59 -128q-4 -10 -9.5 -14.5t-18.5 -4.5h-117q-8 0 -11.5 5t2.5 15l254 541q37 77 88.5 108.5t128.5 31.5h436q11 0 13.5 -4t0.5 -18l-12 -89q-2 -11 -5.5 -15.5t-14.5 -4.5h-218
q-39 0 -55 -18.5t-20 -46.5l-10 -74h265q11 0 13 -4t0 -18l-12 -82q-2 -11 -5.5 -16t-14.5 -5h-264l-15 -111q-5 -35 9.5 -49t46.5 -14h252q11 0 14 -4t1 -18zM257 266h152l34 251q2 17 6.5 33.5t10.5 27.5q-36 0 -55.5 -13.5t-30.5 -34.5l-47 -106zM717 934q6 5 11 6t13 -7
l56 -78q5 -6 3 -11.5t-8 -7.5l-196 -98q-8 -4 -13 -3.5t-10 7.5l-29 44q-4 7 -4.5 11t8.5 12z" />
    <glyph glyph-name="aeacute" unicode="&#x1fd;" horiz-adv-x="842" 
d="M560 -11q-100 0 -149 43q-22 -12 -47 -20t-49.5 -13.5t-48.5 -7.5t-43 -2q-56 0 -91.5 12t-56 32t-28.5 47t-8 56q0 102 61.5 148.5t176.5 46.5q45 0 93 -6q8 20 8 39q0 31 -20.5 44t-58.5 13q-29 0 -67.5 -5t-70.5 -13q-18 -5 -22 12l-16 71q-2 11 1.5 15t11.5 7
q46 16 95.5 23.5t97.5 7.5q49 0 87.5 -12t59.5 -37q32 24 72 36t85 12q95 -1 146 -40.5t51 -107.5q0 -90 -62.5 -133.5t-184.5 -43.5q-19 0 -38.5 1t-41.5 3q-1 -7 -1.5 -12.5t-0.5 -11.5q0 -46 23 -63.5t74 -17.5q28 0 54.5 7t54.5 17q11 4 14.5 3t7.5 -9l32 -74
q3 -9 0 -14t-12 -10q-20 -12 -44.5 -20t-50 -13t-50 -7.5t-44.5 -2.5zM490 572q-13 5 -25.5 9.5t-25.5 9.5q-9 3 -9 8t4 12q23 44 45.5 87t45.5 87q9 17 23 12l98 -26q8 -2 9 -7.5t-3 -10.5q-35 -43 -69.5 -86t-69.5 -86q-7 -9 -11 -10.5t-12 1.5zM254 104q5 0 16.5 0.5
t26.5 3t31.5 7t30.5 12.5q-3 15 -5 29t-2 30q-1 11 -0.5 22.5t2.5 24.5q-15 2 -30 3t-29 1q-23 0 -42.5 -3.5t-34.5 -12.5t-23.5 -24.5t-8.5 -39.5q0 -26 16 -39.5t52 -13.5zM626 421q-44 0 -72 -26.5t-37 -84.5q11 -2 22 -2h21q39 0 64 4t39.5 12.5t20.5 20.5t6 28
q0 19 -14 33.5t-50 14.5z" />
    <glyph glyph-name="Oslashacute" unicode="&#x1fe;" horiz-adv-x="708" 
d="M422 711q62 0 108.5 -17.5t79.5 -49.5l51 55q13 16 22 5l19 -17q5 -5 5 -9.5t-8 -12.5l-57 -61q42 -69 42 -172q0 -95 -23 -176t-67.5 -140.5t-110.5 -93t-152 -33.5q-129 0 -195 71l-52 -56q-8 -8 -11.5 -8.5t-8.5 4.5l-19 18q-6 5 -5.5 9t8.5 13l58 63q-34 64 -34 161
q0 103 25.5 186t72 141t111 89t141.5 31zM532 424q0 28 -5 56l-282 -303q28 -51 102 -51q48 0 83 26t57.5 68t33.5 95.5t11 108.5zM409 575q-47 0 -81.5 -26t-57 -68.5t-34 -96.5t-11.5 -110q0 -11 0.5 -21t1.5 -20l278 299q-14 20 -37.5 31.5t-58.5 11.5zM553 938q6 5 11 6
t13 -7l56 -78q5 -6 3 -11.5t-8 -7.5l-196 -98q-8 -4 -13 -3.5t-10 7.5l-29 44q-4 7 -4.5 11t8.5 12z" />
    <glyph glyph-name="oslashacute" unicode="&#x1ff;" horiz-adv-x="577" 
d="M334 538q105 0 160 -57l47 47q7 6 9.5 6.5t7.5 -4.5l13 -13q5 -5 5 -8.5t-6 -9.5l-51 -51q30 -51 30 -129q0 -75 -19 -136t-55.5 -104t-89.5 -66.5t-121 -23.5q-105 0 -159 51l-46 -45q-10 -10 -16 -2l-14 13q-5 5 -3 9t7 9l47 47q-30 48 -30 125q0 82 21 146t58.5 107.5
t89.5 66t115 22.5zM355 572q-13 5 -25.5 9.5t-25.5 9.5q-9 3 -9 8t4 12q23 44 45.5 87t45.5 87q9 17 23 12l98 -26q8 -2 9 -7.5t-3 -10.5q-35 -43 -69.5 -86t-69.5 -86q-7 -9 -11 -10.5t-12 1.5zM321 415q-30 0 -53 -15t-38.5 -42t-23.5 -64t-8 -81v-13t1 -12l190 189
q-19 38 -68 38zM402 315v9t-1 9l-189 -187q19 -34 68 -34q31 0 54 16.5t38 44.5t22.5 64.5t7.5 77.5z" />
    <glyph glyph-name="Scommaaccent" unicode="&#x218;" horiz-adv-x="582" 
d="M286 -11q-32 0 -66 3.5t-67 11t-64 19.5t-56 29q-7 5 -8 11t6 19l38 80q6 12 12 14t17 -3q18 -8 40.5 -16.5t47 -15t50 -11t50.5 -4.5q34 0 55.5 7t34.5 18t18 25t5 28q0 27 -22 44.5t-74 42.5q-48 23 -85.5 46t-63.5 48.5t-40 55.5t-14 66q0 93 65.5 149t187.5 56
q55 0 111 -11t96 -33q11 -5 13 -11.5t-3 -22.5l-24 -75q-6 -15 -13 -16.5t-18 1.5q-43 14 -86.5 23t-82.5 9q-47 0 -66.5 -19t-19.5 -44q0 -20 23.5 -39t79.5 -44q43 -19 80 -39.5t64 -46.5t42 -59t15 -76q0 -57 -21 -98.5t-58.5 -68.5t-88.5 -40t-110 -13zM256 -294
q-5 -11 -9 -15.5t-14 -4.5h-44q-24 0 -19 18l42 199q2 8 6.5 14t16.5 6h98q14 0 15.5 -6t-0.5 -14z" />
    <glyph glyph-name="scommaaccent" unicode="&#x219;" horiz-adv-x="483" 
d="M229 108q37 0 53.5 14t16.5 35q0 18 -18.5 31.5t-60.5 30.5q-66 28 -102.5 65t-36.5 91q0 75 52.5 119t150.5 44q45 0 88.5 -8.5t76.5 -25.5q10 -5 10.5 -10.5t-4.5 -17.5l-24 -64q-5 -11 -10.5 -12.5t-14.5 2.5q-35 11 -64 17t-61 6q-16 0 -26.5 -4.5t-17 -11t-9.5 -14
t-3 -13.5q0 -18 17 -29.5t56 -28.5q31 -13 58 -27.5t47 -34t31.5 -45t11.5 -59.5q0 -44 -17 -76t-46.5 -52.5t-69.5 -30.5t-86 -10q-50 0 -104.5 11.5t-92.5 37.5q-7 5 -7.5 10t4.5 16l30 68q5 11 11 13t16 -3q38 -17 76 -25.5t69 -8.5zM190 -294q-5 -11 -9 -15.5t-14 -4.5
h-44q-24 0 -19 18l42 199q2 8 6.5 14t16.5 6h98q14 0 15.5 -6t-0.5 -14z" />
    <glyph glyph-name="schwa" unicode="&#x259;" horiz-adv-x="540" 
d="M236 107q44 0 72 27t37 84q-11 2 -22 2h-21q-39 0 -64 -4t-39.5 -12.5t-20.5 -21t-6 -28.5q0 -18 14 -32.5t50 -14.5zM302 539q110 0 157 -50.5t47 -153.5q0 -87 -20 -152t-56.5 -107.5t-87.5 -64t-113 -21.5q-93 0 -145 39.5t-52 108.5q0 90 62.5 133.5t185.5 43.5
q18 0 37.5 -1t41.5 -4q0 7 0.5 13t0.5 12q0 49 -24 65t-72 16q-28 0 -55 -7t-54 -17q-11 -5 -15 -3.5t-7 9.5l-32 74q-3 9 0.5 14t11.5 10q19 12 43.5 20t50 13.5t50.5 7.5t45 2z" />
    <glyph glyph-name="primemod" unicode="&#x2b9;" horiz-adv-x="270" 
d="M118 447q-6 -8 -11.5 -9.5t-12.5 0.5l-40 16q-7 3 -8.5 7.5t3.5 13.5l173 299q3 5 8 9t15 2l98 -22q8 -2 9.5 -7t-3.5 -10z" />
    <glyph glyph-name="circumflex" unicode="&#x2c6;" horiz-adv-x="568" 
d="M534 622q7 -8 5.5 -13.5t-9.5 -13.5l-30 -25q-14 -10 -27 2l-117 97l-147 -105q-8 -5 -13 -5t-12 8l-29 30q-5 7 -4 11.5t7 12.5l145 137q17 14 32.5 22.5t29.5 8.5q22 0 35 -7t25 -24l109 -136v0z" />
    <glyph glyph-name="caron" unicode="&#x2c7;" horiz-adv-x="564" 
d="M553 763q8 -8 6 -14t-10 -14l-158 -146q-13 -12 -26 -16.5t-30 -4.5q-11 0 -23 4t-20 15l-119 150q-9 13 4 23l34 28q8 6 13 6.5t12 -5.5l116 -99l149 99q9 6 14.5 6.5t12.5 -6.5z" />
    <glyph glyph-name="breve" unicode="&#x2d8;" horiz-adv-x="556" 
d="M330 576q-29 0 -53.5 9.5t-45 26t-37 37t-28.5 43.5q-2 3 -3 8.5t8 13.5l45 38q10 7 13 5t9 -8q27 -32 55 -50t57 -18q12 0 24.5 2t28 9.5t35 21t45.5 37.5q10 8 13.5 7.5t8.5 -5.5l32 -33q9 -9 7 -14t-6 -9q-105 -121 -208 -121z" />
    <glyph glyph-name="dotaccent" unicode="&#x2d9;" horiz-adv-x="538" 
d="M350 755q31 0 51 -20.5t20 -50.5q0 -19 -8 -36t-21 -29.5t-30 -19.5t-34 -7q-29 0 -49 19.5t-20 49.5q0 19 7.5 36t20.5 30t29 20.5t34 7.5z" />
    <glyph glyph-name="ring" unicode="&#x2da;" horiz-adv-x="549" 
d="M371 736q-23 0 -38.5 -17t-15.5 -42q0 -18 11 -29t29 -11q21 0 38 16t17 42q0 18 -11 29.5t-30 11.5zM381 805q47 0 76 -28t29 -73q0 -29 -11.5 -53.5t-30.5 -42.5t-44 -28.5t-52 -10.5q-47 0 -75.5 27t-28.5 72q0 29 11 54t29.5 43.5t43.5 29t53 10.5z" />
    <glyph glyph-name="ogonek" unicode="&#x2db;" horiz-adv-x="477" 
d="M190 -227q-53 0 -76.5 22t-23.5 54q0 18 8.5 40.5t23.5 45.5t35.5 44t44.5 36q13 9 25 9l53 1q6 0 6.5 -4t-4.5 -8q-47 -39 -66 -70.5t-19 -55.5q0 -32 45 -32q11 0 27.5 2t30.5 5q8 2 12.5 1t5.5 -10l8 -37q3 -15 -12 -20q-30 -13 -62.5 -18t-61.5 -5z" />
    <glyph glyph-name="tilde" unicode="&#x2dc;" horiz-adv-x="563" 
d="M411 595q-18 0 -34 6t-31.5 13.5t-31 13.5t-31.5 6q-26 0 -51 -30q-7 -8 -11.5 -10.5t-14.5 3.5l-39 23q-11 6 -11 9.5t5 12.5q24 39 56.5 63t74.5 24q18 0 34 -6t30.5 -13.5t28.5 -14t30 -6.5q24 0 51 35q8 10 10 11.5t10 -2.5l45 -20q9 -5 11 -8.5t-3 -14.5
q-46 -95 -128 -95z" />
    <glyph glyph-name="hungarumlaut" unicode="&#x2dd;" horiz-adv-x="553" 
d="M198 591q-9 4 -9.5 8t4.5 12l91 174q9 17 23 12l95 -26q17 -6 6 -18l-139 -172q-6 -8 -10.5 -10t-12.5 1zM360 591q-9 4 -9.5 8t4.5 12l91 174q9 17 23 12l95 -26q17 -6 6 -18l-139 -172q-6 -8 -10.5 -10t-12.5 1z" />
    <glyph glyph-name="tonos" unicode="&#x384;" horiz-adv-x="510" 
d="M236 591q-9 4 -9.5 8t4.5 12l91 174q9 17 23 12l95 -26q17 -6 6 -18l-139 -172q-6 -8 -10.5 -10t-12.5 1z" />
    <glyph glyph-name="dieresistonos" unicode="&#x385;" horiz-adv-x="575" 
d="M522 742q28 0 46 -19t18 -47q0 -17 -7.5 -32t-19.5 -26.5t-27 -18.5t-31 -7q-27 0 -45.5 18.5t-18.5 44.5q0 18 7 33.5t19 27.5t27.5 19t31.5 7zM216 742q27 0 45 -19t18 -47q0 -17 -7.5 -32t-19.5 -26.5t-27 -18.5t-30 -7q-27 0 -46 18.5t-19 44.5q0 18 7 33.5t19 27.5
t27.5 19t32.5 7zM349 576q-6 -9 -11 -10.5t-13 0.5l-46 14q-8 2 -11 5.5t2 14.5l74 177q2 5 7 9.5t16 2.5l95 -15q8 -2 9 -7t-3 -10z" />
    <glyph glyph-name="Alphatonos" unicode="&#x386;" horiz-adv-x="635" 
d="M-16 530q-9 4 -9.5 8t4.5 12l91 174q9 17 23 12l95 -26q17 -6 6 -18l-139 -172q-6 -8 -10.5 -10t-12.5 1zM427 146h-221l-56 -127q-5 -10 -10.5 -14.5t-19.5 -4.5h-118q-10 0 -12 6t1 14l290 627q15 34 32 44t46 11h59q16 0 27 -1.5t19 -7.5t13 -17t8 -29l114 -627
q1 -6 -1.5 -13t-13.5 -7h-111q-11 0 -17.5 2.5t-8.5 13.5zM257 270h152l-18 127l-15 143h-7l-57 -143z" />
    <glyph glyph-name="anoteleia" unicode="&#x387;" horiz-adv-x="289" 
d="M194 523q35 0 57 -21t22 -54q0 -21 -8.5 -39.5t-23 -33t-33.5 -22.5t-40 -8q-33 0 -55 21.5t-22 54.5q0 21 8.5 39.5t23 32.5t33 22t38.5 8z" />
    <glyph glyph-name="Epsilontonos" unicode="&#x388;" horiz-adv-x="594" 
d="M-101 530q-9 4 -9.5 8t4.5 12l91 174q9 17 23 12l95 -26q17 -6 6 -18l-139 -172q-6 -8 -10.5 -10t-12.5 1zM543 23q-2 -12 -7 -17.5t-16 -5.5h-293q-55 0 -87.5 16t-49 42t-19.5 59t2 67l47 332q5 36 16 69t33 59t56.5 41.5t86.5 15.5h283q13 0 16 -5t1 -19l-12 -85
q-2 -13 -6.5 -17.5t-16.5 -4.5h-239q-38 0 -53 -18t-18 -44l-11 -77h278q12 0 14.5 -5t0.5 -19l-11 -78q-2 -12 -6.5 -17.5t-15.5 -5.5h-278l-16 -114q-5 -35 9.5 -47.5t44.5 -12.5h262q13 0 15.5 -4.5t0.5 -19.5z" />
    <glyph glyph-name="Etatonos" unicode="&#x389;" horiz-adv-x="704" 
d="M-127 530q-9 4 -9.5 8t4.5 12l91 174q9 17 23 12l95 -26q17 -6 6 -18l-139 -172q-6 -8 -10.5 -10t-12.5 1zM608 21q-2 -13 -6 -17t-19 -4h-102q-12 0 -17 4.5t-3 16.5l40 280h-263l-40 -280q-2 -13 -6.5 -17t-18.5 -4h-103q-11 0 -16.5 4.5t-3.5 16.5l93 658q2 12 8 16.5
t17 4.5h103q14 0 18 -4t2 -17l-35 -249h262l36 249q2 12 7.5 16.5t17.5 4.5h102q15 0 18.5 -4t1.5 -17z" />
    <glyph glyph-name="Iotatonos" unicode="&#x38a;" horiz-adv-x="319" 
d="M-108 530q-9 4 -9.5 8t4.5 12l91 174q9 17 23 12l95 -26q17 -6 6 -18l-139 -172q-6 -8 -10.5 -10t-12.5 1zM211 21q-2 -13 -6.5 -17t-18.5 -4h-103q-12 0 -17.5 4.5t-3.5 16.5l93 658q2 12 8 16.5t18 4.5h103q14 0 18 -4t2 -17z" />
    <glyph glyph-name="Omicrontonos" unicode="&#x38c;" horiz-adv-x="708" 
d="M-83 530q-9 4 -9.5 8t4.5 12l91 174q9 17 23 12l95 -26q17 -6 6 -18l-139 -172q-6 -8 -10.5 -10t-12.5 1zM422 711q66 0 115 -19.5t81.5 -56t49 -88t16.5 -115.5q0 -95 -23 -176t-67.5 -140.5t-110.5 -93t-152 -33.5q-132 0 -195.5 71.5t-63.5 203.5q0 103 25.5 186
t72 141t111 89t141.5 31zM409 575q-47 0 -81.5 -26t-57 -68.5t-34 -96.5t-11.5 -110q0 -70 27.5 -109t94.5 -39q48 0 83 26t57.5 68t33.5 95.5t11 108.5q0 33 -6 60.5t-20.5 47.5t-38 31.5t-58.5 11.5z" />
    <glyph glyph-name="Upsilontonos" unicode="&#x38e;" horiz-adv-x="606" 
d="M-153 530q-9 4 -9.5 8t4.5 12l91 174q9 17 23 12l95 -26q17 -6 6 -18l-139 -172q-6 -8 -10.5 -10t-12.5 1zM330 397l86 148l83 137q6 10 12 14.5t18 4.5h128q14 0 13.5 -6t-3.5 -12l-278 -425l-33 -238q-2 -11 -5.5 -15.5t-16.5 -4.5h-107q-20 0 -17 20l32 236l-162 426
q-2 5 1 12t14 7h117q15 0 19 -5t7 -17l46 -139l41 -143h5z" />
    <glyph glyph-name="Omegatonos" unicode="&#x38f;" horiz-adv-x="748" 
d="M-70 530q-9 4 -9.5 8t4.5 12l91 174q9 17 23 12l95 -26q17 -6 6 -18l-139 -172q-6 -8 -10.5 -10t-12.5 1zM423 575q-43 0 -77.5 -19.5t-59 -55t-37.5 -85t-13 -109.5q0 -48 13 -83t40 -66q18 -22 24.5 -35.5t3.5 -37.5l-3 -26q-7 -58 -62 -58h-218q-12 0 -16 5t-2 19
l12 84q2 15 8 18.5t15 3.5h82l4 4q-29 29 -40.5 73.5t-11.5 92.5q0 95 26.5 171t73.5 129.5t111.5 82t141.5 28.5q65 0 115.5 -20t85.5 -56.5t53.5 -89t18.5 -118.5q0 -36 -6 -75.5t-20 -78t-37 -74t-56 -65.5l2 -4h83q8 0 13 -3.5t3 -18.5l-12 -86q-2 -13 -7 -17.5
t-17 -4.5h-214q-28 0 -39.5 13.5t-7.5 43.5l4 25q3 24 14.5 38.5t33.5 34.5q51 44 80.5 109t29.5 154q0 72 -31.5 114.5t-103.5 42.5z" />
    <glyph glyph-name="iotadieresistonos" unicode="&#x390;" horiz-adv-x="320" 
d="M291 24v-3q0 -11 -11 -15q-36 -11 -67.5 -14t-51.5 -3q-37 0 -58.5 11.5t-31.5 31t-11 46t3 55.5l52 374q2 13 7.5 15.5t15.5 2.5h104q14 0 15.5 -4t-0.5 -14l-49 -345q-1 -5 -1.5 -9.5t-0.5 -8.5q0 -14 7 -20.5t24 -6.5h14t18 1h4q9 0 10 -13zM201 576q-6 -9 -11 -10.5
t-13 0.5l-46 14q-8 2 -11 5.5t2 14.5l74 177q2 5 7 9.5t16 2.5l95 -15q8 -2 9 -7t-3 -10zM374 742q28 0 46 -19t18 -47q0 -17 -7.5 -32t-19.5 -26.5t-27 -18.5t-31 -7q-27 0 -45.5 18.5t-18.5 44.5q0 18 7 33.5t19 27.5t27.5 19t31.5 7zM68 742q27 0 45 -19t18 -47
q0 -17 -7.5 -32t-19.5 -26.5t-27 -18.5t-30 -7q-27 0 -46 18.5t-19 44.5q0 18 7 33.5t19 27.5t27.5 19t32.5 7z" />
    <glyph glyph-name="Alpha" unicode="&#x391;" horiz-adv-x="635" 
d="M427 146h-221l-56 -127q-5 -10 -10.5 -14.5t-19.5 -4.5h-118q-10 0 -12 6t1 14l290 627q15 34 32 44t46 11h59q16 0 27 -1.5t19 -7.5t13 -17t8 -29l114 -627q1 -6 -1.5 -13t-13.5 -7h-111q-11 0 -17.5 2.5t-8.5 13.5zM257 270h152l-18 127l-15 143h-7l-57 -143z" />
    <glyph glyph-name="Beta" unicode="&#x392;" horiz-adv-x="659" 
d="M214 134h140q32 0 53 11t33 27t17 34.5t5 32.5q0 33 -20 53.5t-62 20.5h-141zM256 435h131q12 0 27 3.5t27.5 12.5t21.5 24.5t9 39.5q0 25 -17 39t-45 14h-135zM439 701q40 0 74.5 -8.5t60.5 -27t41 -48t15 -71.5q0 -55 -27.5 -95.5t-72.5 -62.5l-1 -7q47 -20 66 -59.5
t19 -85.5q0 -52 -20 -95t-55 -74.5t-83.5 -49t-105.5 -17.5h-244q-35 0 -45 14.5t-5 46.5l82 578q5 32 18 47t48 15h235z" />
    <glyph glyph-name="Gamma" unicode="&#x393;" horiz-adv-x="558" 
d="M197 21q-2 -14 -6 -17.5t-19 -3.5h-102q-11 0 -16.5 4.5t-3.5 16.5l70 495q5 36 17.5 69t35 59t57.5 41.5t85 15.5h288q12 0 15 -5t1 -19l-12 -85q-2 -13 -7 -17.5t-16 -4.5h-246q-38 0 -53 -17.5t-18 -44.5z" />
    <glyph glyph-name="Delta" unicode="&#x394;" horiz-adv-x="645" 
d="M501 646q29 -134 58 -267t58 -267q3 -14 4.5 -25.5t-0.5 -23.5l-2 -16q-3 -21 -18.5 -34t-39.5 -13h-504q-28 0 -38 11t-7 36l2 15q2 13 5.5 24t8.5 22q61 129 126.5 255.5t128.5 254.5q12 25 21.5 41t19.5 25.5t22 13t30 3.5h58q16 0 27.5 -2t19 -7.5t12 -16.5t8.5 -29z
M467 122q-2 12 -8.5 46t-14.5 78t-17 93t-17 92.5t-13.5 76t-7.5 43.5h-6q-4 -8 -19 -40t-35.5 -76t-43.5 -94t-44 -95t-37 -79t-22 -45l3 -5h279z" />
    <glyph glyph-name="Delta" unicode="&#x2206;" horiz-adv-x="645" 
d="M501 646q29 -134 58 -267t58 -267q3 -14 4.5 -25.5t-0.5 -23.5l-2 -16q-3 -21 -18.5 -34t-39.5 -13h-504q-28 0 -38 11t-7 36l2 15q2 13 5.5 24t8.5 22q61 129 126.5 255.5t128.5 254.5q12 25 21.5 41t19.5 25.5t22 13t30 3.5h58q16 0 27.5 -2t19 -7.5t12 -16.5t8.5 -29z
M467 122q-2 12 -8.5 46t-14.5 78t-17 93t-17 92.5t-13.5 76t-7.5 43.5h-6q-4 -8 -19 -40t-35.5 -76t-43.5 -94t-44 -95t-37 -79t-22 -45l3 -5h279z" />
    <glyph glyph-name="Epsilon" unicode="&#x395;" horiz-adv-x="594" 
d="M543 23q-2 -12 -7 -17.5t-16 -5.5h-293q-55 0 -87.5 16t-49 42t-19.5 59t2 67l47 332q5 36 16 69t33 59t56.5 41.5t86.5 15.5h283q13 0 16 -5t1 -19l-12 -85q-2 -13 -6.5 -17.5t-16.5 -4.5h-239q-38 0 -53 -18t-18 -44l-11 -77h278q12 0 14.5 -5t0.5 -19l-11 -78
q-2 -12 -6.5 -17.5t-15.5 -5.5h-278l-16 -114q-5 -35 9.5 -47.5t44.5 -12.5h262q13 0 15.5 -4.5t0.5 -19.5l-11 -85v0z" />
    <glyph glyph-name="Zeta" unicode="&#x396;" horiz-adv-x="610" 
d="M634 611q-3 -23 -16.5 -42.5t-28.5 -35.5l-371 -396l1 -7h334q11 0 13.5 -4t0.5 -18l-13 -87q-2 -12 -5.5 -16.5t-13.5 -4.5h-475q-27 0 -40 12.5t-9 41.5l3 24q4 24 14.5 41.5t27.5 35.5l386 410v6h-295q-18 0 -15 21l12 87q2 14 6 18t15 4h424q32 0 43.5 -12t6.5 -45z
" />
    <glyph glyph-name="Eta" unicode="&#x397;" horiz-adv-x="704" 
d="M608 21q-2 -13 -6 -17t-19 -4h-102q-12 0 -17 4.5t-3 16.5l40 280h-263l-40 -280q-2 -13 -6.5 -17t-18.5 -4h-103q-11 0 -16.5 4.5t-3.5 16.5l93 658q2 12 8 16.5t17 4.5h103q14 0 18 -4t2 -17l-35 -249h262l36 249q2 12 7.5 16.5t17.5 4.5h102q15 0 18.5 -4t1.5 -17
l-93 -658v0z" />
    <glyph glyph-name="Theta" unicode="&#x398;" horiz-adv-x="726" 
d="M433 711q67 0 117.5 -19.5t84.5 -55.5t50.5 -88t16.5 -117q0 -94 -23.5 -174.5t-69.5 -140t-114.5 -93.5t-159.5 -34q-133 0 -199 71t-66 199q0 106 26.5 189.5t74.5 142t115 89.5t147 31zM419 575q-48 0 -84 -24.5t-60 -66t-36.5 -95.5t-12.5 -114q0 -72 30.5 -110.5
t99.5 -38.5q50 0 86.5 24.5t60.5 65.5t35.5 95t11.5 113q0 33 -7 60.5t-22.5 47.5t-40.5 31.5t-61 11.5zM282 298q-11 0 -13.5 5t-0.5 16l10 76q3 14 6.5 18t14.5 4h197q11 0 14 -4t0 -18l-10 -76q-2 -11 -6 -16t-15 -5h-197z" />
    <glyph glyph-name="Iota" unicode="&#x399;" horiz-adv-x="319" 
d="M211 21q-2 -13 -6.5 -17t-18.5 -4h-103q-12 0 -17.5 4.5t-3.5 16.5l93 658q2 12 8 16.5t18 4.5h103q14 0 18 -4t2 -17l-93 -658v0z" />
    <glyph glyph-name="Kappa" unicode="&#x39a;" horiz-adv-x="662" 
d="M461 446l166 -421q10 -25 -13 -25h-103q-21 0 -30.5 2.5t-15.5 20.5l-115 306l-129 -134l-25 -174q-2 -14 -6 -17.5t-19 -3.5h-101q-11 0 -16.5 4.5t-3.5 16.5l93 658q2 12 8 16.5t17 4.5h101q14 0 18 -3.5t2 -15.5l-38 -270l4 -2l107 119l142 153q11 11 20.5 15t29.5 4
h125q10 0 12 -5.5t-5 -13.5z" />
    <glyph glyph-name="Lambda" unicode="&#x39b;" horiz-adv-x="638" 
d="M391 397l-16 143h-7l-57 -143l-162 -378q-5 -10 -10.5 -14.5t-19.5 -4.5h-117q-10 0 -12 6t1 14l292 627q8 17 15.5 27.5t16 16.5t19 8.5t25.5 2.5h59q16 0 27 -1.5t19 -7.5t13 -17t8 -29l114 -627q1 -6 -1.5 -13t-13.5 -7h-111q-11 0 -18 2.5t-9 13.5z" />
    <glyph glyph-name="Mu" unicode="&#x39c;" horiz-adv-x="843" 
d="M666 430h-5l-60 -115l-104 -189q-14 -26 -26 -35t-35 -9h-53q-25 0 -33.5 9t-15.5 35l-46 170l-33 122h-6l-56 -398q-2 -14 -7 -17t-17 -3h-99q-11 0 -16.5 3t-3.5 17l86 611q5 38 21 54t51 16h50q28 0 39.5 -10.5t19.5 -36.5l67 -242l42 -163h4l93 170l128 233
q16 27 32 38t47 11h52q32 0 45 -13.5t8 -51.5l-87 -616q-2 -14 -7 -17t-18 -3h-95q-11 0 -16.5 3t-3.5 17z" />
    <glyph glyph-name="Nu" unicode="&#x39d;" horiz-adv-x="722" 
d="M260 471l-63 -450q-2 -13 -6.5 -17t-18.5 -4h-102q-11 0 -16.5 4.5t-3.5 16.5l86 610q5 39 21 54.5t52 15.5h41q15 0 24.5 -1.5t16.5 -6.5t12.5 -14t12.5 -23l127 -287l61 -139h5l63 450q2 12 7 16.5t19 4.5h102q22 0 19 -21l-86 -611q-5 -32 -19.5 -50.5t-52.5 -18.5
h-41q-15 0 -24.5 1.5t-17 6.5t-13 13.5t-11.5 22.5l-129 288l-60 139h-5z" />
    <glyph glyph-name="Xi" unicode="&#x39e;" horiz-adv-x="597" 
d="M600 589q-2 -12 -5.5 -16t-14.5 -4h-460q-10 0 -13.5 4t-1.5 16l13 90q2 14 6 18t15 4h459q11 0 13.5 -4t0.5 -18zM518 322q-2 -12 -5 -17t-14 -5h-368q-11 0 -14 5t-1 17l12 85q2 14 6 17.5t15 3.5h368q11 0 13 -3.5t0 -17.5zM544 21q-2 -11 -5.5 -16t-13.5 -5h-494
q-18 0 -15 21l14 91q2 14 5.5 18t14.5 4h493q11 0 13.5 -4t0.5 -18z" />
    <glyph glyph-name="Omicron" unicode="&#x39f;" horiz-adv-x="708" 
d="M422 711q66 0 115 -19.5t81.5 -56t49 -88t16.5 -115.5q0 -95 -23 -176t-67.5 -140.5t-110.5 -93t-152 -33.5q-132 0 -195.5 71.5t-63.5 203.5q0 103 25.5 186t72 141t111 89t141.5 31zM409 575q-47 0 -81.5 -26t-57 -68.5t-34 -96.5t-11.5 -110q0 -70 27.5 -109t94.5 -39
q48 0 83 26t57.5 68t33.5 95.5t11 108.5q0 33 -6 60.5t-20.5 47.5t-38 31.5t-58.5 11.5z" />
    <glyph glyph-name="Pi" unicode="&#x3a0;" horiz-adv-x="704" 
d="M608 19q-2 -11 -5.5 -15t-17.5 -4h-107q-21 0 -18 19l77 549h-262l-77 -549q-2 -11 -5.5 -15t-17.5 -4h-107q-21 0 -18 19l86 614q5 35 21.5 51.5t50.5 16.5h433q35 0 46.5 -16.5t6.5 -51.5z" />
    <glyph glyph-name="Rho" unicode="&#x3a1;" horiz-adv-x="625" 
d="M275 567l-27 -190h124q54 0 83.5 32t29.5 80q0 13 -3.5 27t-13 25t-26 18.5t-41.5 7.5h-126zM230 254l-33 -233q-2 -14 -6.5 -17.5t-18.5 -3.5h-102q-11 0 -16.5 4.5t-3.5 16.5l88 619q4 28 17.5 44.5t48.5 16.5h233q49 0 87 -14.5t63.5 -40.5t38.5 -62.5t13 -79.5
q0 -19 -4 -45t-14.5 -53.5t-30 -55t-50.5 -49t-75 -34.5t-105 -13h-130z" />
    <glyph glyph-name="Sigma" unicode="&#x3a3;" horiz-adv-x="588" 
d="M597 702q10 0 13 -4t1 -17l-12 -89q-3 -20 -20 -20h-297l-2 -8l114 -147q21 -28 20 -51q-4 -25 -32 -54l-165 -174l1 -6h330q11 0 14.5 -4t1.5 -18l-13 -89q-2 -12 -6 -16.5t-15 -4.5h-474q-25 0 -37.5 11t-7.5 39l3 26q4 25 16.5 44.5t30.5 37.5l193 207l-133 174
q-14 17 -17 31.5t0 34.5l5 40q5 33 20.5 45t44.5 12h423z" />
    <glyph glyph-name="Tau" unicode="&#x3a4;" horiz-adv-x="557" 
d="M603 590q-2 -11 -6 -15.5t-15 -4.5h-176l-78 -549q-2 -13 -6.5 -17t-18.5 -4h-104q-12 0 -17 4.5t-3 16.5l78 549h-172q-11 0 -14 4.5t-2 15.5l13 89q2 13 6 17t15 4h497q11 0 14.5 -4t1.5 -17l-13 -89v0z" />
    <glyph glyph-name="Upsilon" unicode="&#x3a5;" horiz-adv-x="606" 
d="M330 397l86 148l83 137q6 10 12 14.5t18 4.5h128q14 0 13.5 -6t-3.5 -12l-278 -425l-33 -238q-2 -11 -5.5 -15.5t-16.5 -4.5h-107q-20 0 -17 20l32 236l-162 426q-2 5 1 12t14 7h117q15 0 19 -5t7 -17l46 -139l41 -143h5z" />
    <glyph glyph-name="Phi" unicode="&#x3a6;" horiz-adv-x="842" 
d="M469 19q-2 -11 -5.5 -15t-16.5 -4h-107q-21 0 -18 19l5 36q-127 13 -190.5 81t-63.5 171q0 74 25 135t70 106.5t107.5 74t136.5 37.5l3 21q3 19 23 19h107q13 0 16.5 -4t1.5 -15l-3 -21q128 -16 192.5 -83t64.5 -177q0 -73 -25 -133t-70 -104.5t-108 -72.5t-139 -36z
M490 173q48 8 83 29.5t57.5 51.5t33 66t10.5 72q0 27 -7 51.5t-22.5 44.5t-41 34t-61.5 19zM395 540q-45 -8 -78 -30t-55 -53t-33 -67t-11 -71q0 -57 29.5 -96.5t95.5 -49.5z" />
    <glyph glyph-name="Chi" unicode="&#x3a7;" horiz-adv-x="599" 
d="M315 240l-148 -217q-11 -14 -19 -18.5t-26 -4.5h-128q-8 0 -10 6.5t3 13.5l254 344l-143 318q-4 6 -0.5 12.5t14.5 6.5h106q20 0 27 -4t12 -18l80 -195l133 195q9 14 17 18t28 4h119q11 0 12 -6.5t-4 -13.5l-232 -316l158 -345q2 -7 -1 -13.5t-11 -6.5h-115
q-17 0 -24.5 4.5t-14.5 18.5z" />
    <glyph glyph-name="Psi" unicode="&#x3a8;" horiz-adv-x="814" 
d="M796 448q-19 -134 -99.5 -207.5t-221.5 -81.5l-18 -135q-2 -14 -6 -19t-18 -5h-106q-14 0 -16.5 4.5t-0.5 17.5l19 137q-64 6 -112 28.5t-79 60t-42.5 90.5t-1.5 120l32 223q3 19 23 19h105q13 0 16.5 -4t1.5 -15l-34 -239q-4 -31 -0.5 -57.5t16 -46t36 -32t58.5 -15.5
l54 385q2 13 5.5 18.5t17.5 5.5h106q12 0 16 -4t2 -18l-55 -387q71 7 108.5 46t46.5 102l34 242q3 19 23 19h104q14 0 17.5 -4t1.5 -15l-33 -233v0z" />
    <glyph glyph-name="Omega" unicode="&#x3a9;" horiz-adv-x="748" 
d="M423 575q-43 0 -77.5 -19.5t-59 -55t-37.5 -85t-13 -109.5q0 -48 13 -83t40 -66q18 -22 24.5 -35.5t3.5 -37.5l-3 -26q-7 -58 -62 -58h-218q-12 0 -16 5t-2 19l12 84q2 15 8 18.5t15 3.5h82l4 4q-29 29 -40.5 73.5t-11.5 92.5q0 95 26.5 171t73.5 129.5t111.5 82
t141.5 28.5q65 0 115.5 -20t85.5 -56.5t53.5 -89t18.5 -118.5q0 -36 -6 -75.5t-20 -78t-37 -74t-56 -65.5l2 -4h83q8 0 13 -3.5t3 -18.5l-12 -86q-2 -13 -7 -17.5t-17 -4.5h-214q-28 0 -39.5 13.5t-7.5 43.5l4 25q3 24 14.5 38.5t33.5 34.5q51 44 80.5 109t29.5 154
q0 72 -31.5 114.5t-103.5 42.5z" />
    <glyph glyph-name="Iotadieresis" unicode="&#x3aa;" horiz-adv-x="319" 
d="M211 21q-2 -13 -6.5 -17t-18.5 -4h-103q-12 0 -17.5 4.5t-3.5 16.5l93 658q2 12 8 16.5t18 4.5h103q14 0 18 -4t2 -17zM352 889q26 0 44 -18.5t18 -45.5q0 -16 -7.5 -31t-19 -26.5t-26.5 -18.5t-30 -7q-27 0 -45 18.5t-18 44.5q0 17 7 32t19 26.5t27 18.5t31 7zM152 889
q26 0 44.5 -18.5t18.5 -46.5q0 -16 -7.5 -30.5t-19.5 -26t-27 -18.5t-30 -7q-26 0 -44 18.5t-18 44.5q0 17 7 32t19 26.5t27 18.5t30 7z" />
    <glyph glyph-name="Upsilondieresis" unicode="&#x3ab;" horiz-adv-x="606" 
d="M330 397l86 148l83 137q6 10 12 14.5t18 4.5h128q14 0 13.5 -6t-3.5 -12l-278 -425l-33 -238q-2 -11 -5.5 -15.5t-16.5 -4.5h-107q-20 0 -17 20l32 236l-162 426q-2 5 1 12t14 7h117q15 0 19 -5t7 -17l46 -139l41 -143h5zM495 880q26 0 44 -18.5t18 -45.5q0 -16 -7.5 -31
t-19 -26.5t-26.5 -18.5t-30 -7q-27 0 -45 18.5t-18 44.5q0 17 7 32t19 26.5t27 18.5t31 7zM295 880q26 0 44.5 -18.5t18.5 -46.5q0 -16 -7.5 -30.5t-19.5 -26t-27 -18.5t-30 -7q-26 0 -44 18.5t-18 44.5q0 17 7 32t19 26.5t27 18.5t30 7z" />
    <glyph glyph-name="alphatonos" unicode="&#x3ac;" horiz-adv-x="581" 
d="M305 591q-9 4 -9.5 8t4.5 12l91 174q9 17 23 12l95 -26q17 -6 6 -18l-139 -172q-6 -8 -10.5 -10t-12.5 1zM337 415q-27 0 -52.5 -10.5t-45 -35t-31 -64t-11.5 -97.5q0 -49 21.5 -73t71.5 -24q15 0 38.5 3.5t39.5 8.5q10 71 20 143t21 141q-17 5 -37.5 6.5t-34.5 1.5z
M257 -11q-63 0 -103 15t-63 41.5t-32 62.5t-9 78q0 78 16.5 142.5t50.5 110.5t86.5 71.5t125.5 25.5q40 0 95 -5t115 -21q17 -5 19 -13t0 -19q-17 -113 -31 -219.5t-28 -216.5q-1 -14 -15 -19q-25 -10 -56 -16.5t-62.5 -10.5t-60.5 -5.5t-48 -1.5z" />
    <glyph glyph-name="epsilontonos" unicode="&#x3ad;" horiz-adv-x="472" 
d="M237 591q-9 4 -9.5 8t4.5 12l91 174q9 17 23 12l95 -26q17 -6 6 -18l-139 -172q-6 -8 -10.5 -10t-12.5 1zM296 422q-42 0 -60.5 -20t-18.5 -41q0 -24 21.5 -32.5t59.5 -11.5q19 -2 27 -7t6 -23l-5 -33q-2 -18 -11.5 -24t-26.5 -7q-46 -2 -75.5 -18.5t-29.5 -52.5
q0 -20 18.5 -32.5t55.5 -12.5q31 0 63 7.5t67 20.5q14 5 18 2.5t6 -10.5l27 -70q2 -8 1 -14t-12 -11q-23 -12 -48.5 -20t-51 -13t-49.5 -7.5t-43 -2.5q-39 0 -74.5 6t-63 21t-44 40t-16.5 63q0 54 30.5 96t76.5 57v3q-34 14 -50 41t-16 59q0 38 15.5 68.5t43.5 51.5t66.5 32
t84.5 11q42 0 84 -9t76 -27q11 -5 11.5 -10.5t-4.5 -17.5l-28 -67q-5 -14 -24 -7q-31 11 -58.5 16.5t-48.5 5.5z" />
    <glyph glyph-name="etatonos" unicode="&#x3ae;" horiz-adv-x="591" 
d="M276 591q-9 4 -9.5 8t4.5 12l91 174q9 17 23 12l95 -26q17 -6 6 -18l-139 -172q-6 -8 -10.5 -10t-12.5 1zM302 418q-10 0 -27.5 -0.5t-37.5 -4.5l-56 -395q-2 -11 -5.5 -14.5t-17.5 -3.5h-99q-11 0 -16 3.5t-3 14.5l61 429q5 34 20.5 54t50.5 27q10 2 27.5 3.5t38 3
t40 2.5t34.5 1q67 0 115.5 -14t77 -44.5t37.5 -80t-1 -120.5l-59 -422q-2 -12 -5.5 -15t-17.5 -3h-101q-11 0 -15.5 3.5t-2.5 14.5l61 431q4 33 2.5 57t-12.5 40.5t-32.5 24.5t-56.5 8z" />
    <glyph glyph-name="iotatonos" unicode="&#x3af;" horiz-adv-x="320" 
d="M291 24v-3q0 -11 -11 -15q-36 -11 -67.5 -14t-51.5 -3q-37 0 -58.5 11.5t-31.5 31t-11 46t3 55.5l52 374q2 13 7.5 15.5t15.5 2.5h104q14 0 15.5 -4t-0.5 -14l-49 -345q-1 -5 -1.5 -9.5t-0.5 -8.5q0 -14 7 -20.5t24 -6.5h14t18 1h4q9 0 10 -13zM154 591q-9 4 -9.5 8
t4.5 12l91 174q9 17 23 12l95 -26q17 -6 6 -18l-139 -172q-6 -8 -10.5 -10t-12.5 1z" />
    <glyph glyph-name="upsilondieresistonos" unicode="&#x3b0;" horiz-adv-x="591" 
d="M208 205q-7 -52 13 -76t62 -24q44 0 72 25.5t36 75.5l41 301q2 11 6 14.5t18 3.5h99q11 0 15.5 -3.5t2.5 -14.5l-39 -280q-17 -122 -78 -180t-180 -58q-118 0 -170.5 58t-35.5 178l39 282q2 11 6 14.5t17 3.5h101q11 0 15 -3.5t2 -14.5zM531 742q28 0 46 -19t18 -47
q0 -17 -7.5 -32t-19.5 -26.5t-27 -18.5t-31 -7q-27 0 -45.5 18.5t-18.5 44.5q0 18 7 33.5t19 27.5t27.5 19t31.5 7zM225 742q27 0 45 -19t18 -47q0 -17 -7.5 -32t-19.5 -26.5t-27 -18.5t-30 -7q-27 0 -46 18.5t-19 44.5q0 18 7 33.5t19 27.5t27.5 19t32.5 7zM358 576
q-6 -9 -11 -10.5t-13 0.5l-46 14q-8 2 -11 5.5t2 14.5l74 177q2 5 7 9.5t16 2.5l95 -15q8 -2 9 -7t-3 -10z" />
    <glyph glyph-name="alpha" unicode="&#x3b1;" horiz-adv-x="581" 
d="M337 415q-27 0 -52.5 -10.5t-45 -35t-31 -64t-11.5 -97.5q0 -49 21.5 -73t71.5 -24q15 0 38.5 3.5t39.5 8.5q10 71 20 143t21 141q-17 5 -37.5 6.5t-34.5 1.5zM257 -11q-63 0 -103 15t-63 41.5t-32 62.5t-9 78q0 78 16.5 142.5t50.5 110.5t86.5 71.5t125.5 25.5
q40 0 95 -5t115 -21q17 -5 19 -13t0 -19q-17 -113 -31 -219.5t-28 -216.5q-1 -14 -15 -19q-25 -10 -56 -16.5t-62.5 -10.5t-60.5 -5.5t-48 -1.5z" />
    <glyph glyph-name="beta" unicode="&#x3b2;" horiz-adv-x="586" 
d="M260 -11q-17 0 -41.5 1.5t-50.5 5.5t-52 10.5t-46 16.5t-22.5 19t-0.5 28l59 422q17 115 79 181t176 66q47 0 83.5 -12.5t61.5 -34t38 -52t13 -66.5q0 -17 -4 -38t-14.5 -43t-28.5 -43t-46 -37l-1 -6q46 -16 67 -56.5t21 -92.5q0 -57 -19 -106t-55.5 -85t-91 -57
t-125.5 -21zM325 450q25 3 42 13t27.5 25t15.5 32t5 33q0 26 -15.5 46t-50.5 20q-24 0 -41 -9t-28.5 -23t-18 -33t-9.5 -38l-54 -393q16 -7 39 -9t38 -2q31 0 55 11t40.5 30.5t25 46.5t8.5 58q0 38 -20.5 61.5t-65.5 28.5q-26 4 -34 10.5t-3 29.5l5 28q3 19 10.5 25t28.5 9z
" />
    <glyph glyph-name="gamma" unicode="&#x3b3;" horiz-adv-x="541" 
d="M297 -186q-2 -11 -6 -14.5t-18 -3.5h-100q-11 0 -16 3.5t-3 14.5l24 169l-78 413q-2 11 -6.5 15t-21.5 5q-8 0 -13 1t-7 12l-10 59q-2 13 2 18t12 8q27 11 54 16.5t47 5.5t32.5 -4.5t20 -13.5t11.5 -21.5t6 -28.5l25 -163l18 -138h5l60 142l85 190q7 16 15.5 21t22.5 5
h105q19 0 9 -19l-250 -516z" />
    <glyph glyph-name="delta" unicode="&#x3b4;" horiz-adv-x="577" 
d="M319 406q-30 -8 -53.5 -28t-39.5 -47t-24.5 -58.5t-8.5 -61.5q0 -46 20 -73.5t66 -27.5q33 0 56.5 16t38.5 40.5t22 54t7 56.5q0 39 -17.5 75t-66.5 54zM213 473q-26 18 -39 47t-13 62q0 72 51.5 115t149.5 43q40 0 83.5 -8.5t76.5 -24.5q10 -5 11 -11.5t-3 -16.5
l-22 -65q-5 -12 -10.5 -13t-14.5 2q-35 11 -66 17.5t-57 6.5q-17 0 -27.5 -5.5t-16.5 -12.5t-8 -15t-2 -12q0 -21 27.5 -38t72.5 -43q24 -14 48.5 -34t44 -47.5t32 -63t12.5 -80.5q0 -61 -19.5 -113.5t-56 -91t-88.5 -60.5t-117 -22q-106 0 -159.5 54.5t-53.5 148.5
q0 93 44.5 166.5t120.5 110.5z" />
    <glyph glyph-name="epsilon" unicode="&#x3b5;" horiz-adv-x="472" 
d="M296 422q-42 0 -60.5 -20t-18.5 -41q0 -24 21.5 -32.5t59.5 -11.5q19 -2 27 -7t6 -23l-5 -33q-2 -18 -11.5 -24t-26.5 -7q-46 -2 -75.5 -18.5t-29.5 -52.5q0 -20 18.5 -32.5t55.5 -12.5q31 0 63 7.5t67 20.5q14 5 18 2.5t6 -10.5l27 -70q2 -8 1 -14t-12 -11
q-23 -12 -48.5 -20t-51 -13t-49.5 -7.5t-43 -2.5q-39 0 -74.5 6t-63 21t-44 40t-16.5 63q0 54 30.5 96t76.5 57v3q-34 14 -50 41t-16 59q0 38 15.5 68.5t43.5 51.5t66.5 32t84.5 11q42 0 84 -9t76 -27q11 -5 11.5 -10.5t-4.5 -17.5l-28 -67q-5 -14 -24 -7q-31 11 -58.5 16.5
t-48.5 5.5z" />
    <glyph glyph-name="zeta" unicode="&#x3b6;" horiz-adv-x="465" 
d="M221 -107q7 8 17.5 19t20.5 22.5t17.5 21.5t7.5 15q1 10 -13 21t-58 30q-47 21 -78.5 40t-51.5 39.5t-28.5 44t-8.5 52.5q0 50 27 102.5t72 103.5t102.5 100.5t119.5 93.5l-1 5h-203q-11 0 -17 3.5t-4 14.5l11 79q2 11 6 14.5t15 3.5h345q26 0 36.5 -10t7.5 -35l-3 -27
q-2 -20 -10.5 -33.5t-24.5 -26.5q-58 -45 -116.5 -95.5t-105.5 -99.5t-76.5 -92.5t-29.5 -73.5q0 -27 19.5 -43t61.5 -35q57 -27 91 -46.5t51.5 -36t22 -31.5t3.5 -32q-2 -34 -42 -81.5t-100 -97.5q-10 -7 -18 -9.5t-16 5.5q-2 1 -9 8.5t-15 15.5t-15.5 15t-9.5 9
q-8 8 -8.5 13t8.5 14z" />
    <glyph glyph-name="eta" unicode="&#x3b7;" horiz-adv-x="591" 
d="M302 418q-10 0 -27.5 -0.5t-37.5 -4.5l-56 -395q-2 -11 -5.5 -14.5t-17.5 -3.5h-99q-11 0 -16 3.5t-3 14.5l61 429q5 34 20.5 54t50.5 27q10 2 27.5 3.5t38 3t40 2.5t34.5 1q67 0 115.5 -14t77 -44.5t37.5 -80t-1 -120.5l-59 -422q-2 -12 -5.5 -15t-17.5 -3h-101
q-11 0 -15.5 3.5t-2.5 14.5l61 431q4 33 2.5 57t-12.5 40.5t-32.5 24.5t-56.5 8z" />
    <glyph glyph-name="theta" unicode="&#x3b8;" horiz-adv-x="576" 
d="M358 733q102 0 153 -63.5t51 -195.5q0 -34 -1.5 -66t-5.5 -61q-21 -175 -97.5 -266.5t-194.5 -91.5q-104 0 -154 60.5t-50 189.5q0 32 2 66t6 63q23 184 99 274.5t192 90.5zM348 615q-49 0 -81 -48.5t-46 -133.5h202q2 17 2.5 32.5t0.5 28.5q0 57 -18 89t-60 32zM276 107
q51 0 85 53t48 162h-203q-4 -26 -5.5 -48.5t-1.5 -41.5q0 -59 16.5 -92t60.5 -33z" />
    <glyph glyph-name="iota" unicode="&#x3b9;" horiz-adv-x="320" 
d="M291 24v-3q0 -11 -11 -15q-36 -11 -67.5 -14t-51.5 -3q-37 0 -58.5 11.5t-31.5 31t-11 46t3 55.5l52 374q2 13 7.5 15.5t15.5 2.5h104q14 0 15.5 -4t-0.5 -14l-49 -345q-1 -5 -1.5 -9.5t-0.5 -8.5q0 -14 7 -20.5t24 -6.5h14t18 1h4q9 0 10 -13z" />
    <glyph glyph-name="kappa" unicode="&#x3ba;" horiz-adv-x="533" 
d="M180 19q-2 -11 -5.5 -15t-17.5 -4h-99q-22 0 -19 19l69 488q2 11 7 14.5t16 3.5h101q13 0 16 -3.5t1 -14.5l-24 -168l4 -2l159 174q8 8 14 11t20 3h122q14 0 14.5 -6.5t-7.5 -14.5l-171 -175l125 -309q5 -20 -17 -20h-108q-12 0 -18 3.5t-9 15.5l-76 203l-79 -81
q-1 -9 -3 -24.5t-4.5 -33t-5.5 -34.5t-5 -30z" />
    <glyph glyph-name="lambda" unicode="&#x3bb;" horiz-adv-x="564" 
d="M486 18q-2 -11 -6.5 -14.5t-15.5 -3.5h-101q-13 0 -16.5 3t-1.5 15l44 320q-16 6 -41.5 9.5t-44.5 3.5q-30 0 -49.5 -8t-31.5 -22.5t-18.5 -35t-9.5 -45.5l-31 -222q-2 -11 -6.5 -14.5t-16.5 -3.5h-100q-13 0 -17 3t-2 15l34 240q14 101 72 159.5t168 58.5q12 0 27 -1
t30.5 -3t30 -5t25.5 -6l3 25q4 28 -0.5 49.5t-22 38.5t-51.5 29.5t-90 21.5q-10 2 -13 5.5t-1 12.5l20 92q4 16 25 13q80 -8 135.5 -28.5t88.5 -56t44 -87t1 -122.5z" />
    <glyph glyph-name="nu" unicode="&#x3bd;" horiz-adv-x="543" 
d="M358 48q-8 -17 -15.5 -27.5t-16 -16t-19 -7.5t-23.5 -2h-73q-23 0 -36 10t-20 43l-94 459q-2 11 1.5 14.5t12.5 3.5h105q15 0 19.5 -3.5t6.5 -14.5l33 -205l22 -169h5l68 170l88 203q5 11 10 15t20 4h114q16 0 8 -16z" />
    <glyph glyph-name="xi" unicode="&#x3be;" horiz-adv-x="434" 
d="M310 -210q-11 -9 -17.5 -11.5t-17.5 5.5q-13 12 -25.5 24t-26.5 23q-9 7 -8 11.5t7 13.5q7 9 17 20t19 21.5t15 20t6 16.5q0 16 -25 29q-34 17 -72.5 34t-71.5 40t-54.5 55t-21.5 79q0 30 8.5 61t26 59t43 50t59.5 34l-2 6q-23 11 -37.5 26t-23.5 32t-12.5 35t-3.5 36
q0 53 19.5 94.5t53.5 69.5t79.5 42.5t96.5 14.5q96 -3 170 -36q10 -5 9 -12.5t-4 -15.5l-23 -67q-7 -16 -27 -9q-32 11 -67 16.5t-55 5.5q-54 0 -85 -28.5t-31 -74.5q0 -23 11 -37t30 -22t45.5 -12t56.5 -7q22 -2 34 -10t10 -26l-3 -35q-2 -23 -14.5 -31t-36.5 -9
q-35 -2 -67.5 -8.5t-57.5 -21t-40 -38.5t-15 -59q0 -21 9.5 -37t25.5 -28t38 -22t47 -20q72 -29 103 -56t31 -61q0 -45 -34 -88.5t-91 -91.5z" />
    <glyph glyph-name="omicron" unicode="&#x3bf;" horiz-adv-x="577" 
d="M334 538q108 0 161.5 -57t53.5 -162q0 -75 -19 -136t-55.5 -104t-89.5 -66.5t-121 -23.5q-109 0 -161.5 53.5t-52.5 153.5q0 82 21 146t58.5 107.5t89.5 66t115 22.5zM321 415q-30 0 -53 -15t-38.5 -42t-23.5 -64t-8 -81q0 -50 19.5 -75.5t62.5 -25.5q31 0 54 16.5
t38 44.5t22.5 64.5t7.5 77.5q0 45 -18 72.5t-63 27.5z" />
    <glyph glyph-name="pi" unicode="&#x3c0;" horiz-adv-x="595" 
d="M509 19q-2 -11 -5.5 -15t-17.5 -4h-100q-22 0 -19 19l55 388h-186l-55 -388q-2 -11 -5.5 -15t-17.5 -4h-99q-22 0 -19 19l64 450q3 24 16 40t46 16h359q34 0 42.5 -16t5.5 -40z" />
    <glyph glyph-name="rho" unicode="&#x3c1;" horiz-adv-x="590" 
d="M325 416q-40 0 -68.5 -29t-36.5 -81l-25 -179q17 -7 39.5 -9.5t36.5 -2.5q28 0 54 11.5t45 35.5t30.5 60.5t11.5 86.5q0 59 -24.5 83t-62.5 24zM74 282q8 56 28.5 102.5t53.5 80.5t78 52.5t103 18.5q60 0 102 -16.5t69 -46.5t39 -72.5t12 -93.5q0 -65 -18 -123t-53 -101
t-87 -68t-120 -25q-22 0 -51 2.5t-52 10.5l-27 -184q-2 -12 -5.5 -17.5t-17.5 -5.5h-101q-14 0 -17 5.5t-1 17.5z" />
    <glyph glyph-name="sigma1" unicode="&#x3c2;" horiz-adv-x="491" 
d="M325 409q-32 0 -55.5 -14.5t-39.5 -39t-23.5 -56.5t-7.5 -67q0 -42 19 -65.5t64 -44.5t72.5 -37.5t43.5 -30.5t21.5 -27.5t5.5 -27.5q0 -39 -29 -83t-99 -98q-14 -10 -20.5 -11t-14.5 6l-50 49q-7 7 -8.5 11.5t6.5 13.5q7 8 16.5 18t17.5 19.5t14 18.5t6 16
q0 9 -10.5 16.5t-36.5 19.5q-42 19 -73.5 37.5t-52 43t-31 56.5t-10.5 78q0 76 19 136.5t54.5 103t86.5 65.5t115 23q42 0 82.5 -8t72.5 -25q10 -5 11.5 -10t-3.5 -18l-28 -78q-5 -11 -12.5 -12t-19.5 3q-20 7 -46 13t-57 6z" />
    <glyph glyph-name="sigma" unicode="&#x3c3;" horiz-adv-x="600" 
d="M321 410q-29 0 -51.5 -14t-39 -40t-25 -62t-8.5 -80q0 -49 20 -75.5t63 -26.5q28 0 50.5 14.5t38.5 40.5t24 61.5t8 77.5q0 50 -18 77t-62 27zM513 404q17 -23 24.5 -55t7.5 -66q0 -65 -19 -119t-54 -93t-86.5 -60.5t-115.5 -21.5q-112 0 -165.5 57t-53.5 154
q0 82 21.5 143t59.5 101.5t90 60.5t114 20h275q12 0 14.5 -5t1.5 -13l-12 -82q-2 -10 -5.5 -13.5t-15.5 -3.5h-78z" />
    <glyph glyph-name="tau" unicode="&#x3c4;" horiz-adv-x="441" 
d="M297 408l-34 -240q-4 -29 8 -40t41 -11q14 0 36 2.5t35 4.5q17 3 17 -12l9 -86q1 -7 -0.5 -11.5t-12.5 -8.5q-38 -11 -78 -14t-65 -3q-83 0 -114 36.5t-20 107.5l38 275h-95q-11 0 -12 6t0 14l11 77q1 9 3.5 14.5t13.5 5.5h353q11 0 13 -5t0 -14l-11 -78q-2 -10 -4.5 -15
t-14.5 -5h-117z" />
    </font>
</defs>
</svg>
